<?xml version="1.0" encoding="utf-8"?>
<!-- Generator: Adobe Illustrator 26.0.0, SVG Export Plug-In . SVG Version: 6.00 Build 0)  -->
<svg version="1.1" id="图层_1" xmlns="http://www.w3.org/2000/svg" xmlns:xlink="http://www.w3.org/1999/xlink" x="0px" y="0px"
	 viewBox="0 0 200 200" style="enable-background:new 0 0 200 200;" xml:space="preserve">
<path d="M100,0C44.8,0,0,44.8,0,100s44.8,100,100,100s100-44.8,100-100S155.2,0,100,0z M147.2,139.8c-0.6,0.8-16,18.4-44.3,18.4
	c-34.2,0-58.3-25.5-58.3-58.7c0-32.8,25-57.8,58-57.8c27,0,41.1,15,41.7,15.7c1.5,1.6,1.7,4,0.5,5.9l-9,14c-1.6,2.5-5.2,3-7.4,0.9
	c-0.1-0.1-10.7-9.6-25-9.6c-18.6,0-29.8,13.5-29.8,30.7c0,16,10.3,32.1,30,32.1c15.6,0,26.3-11.4,26.4-11.5c2.1-2.2,5.7-2,7.5,0.4
	l9.9,13.5C148.8,135.6,148.7,138.1,147.2,139.8L147.2,139.8z"/>
</svg>
