<?xml version="1.0" encoding="utf-8"?>
<!-- Generator: Adobe Illustrator 26.0.0, SVG Export Plug-In . SVG Version: 6.00 Build 0)  -->
<svg version="1.1" id="图层_1" xmlns="http://www.w3.org/2000/svg" xmlns:xlink="http://www.w3.org/1999/xlink" x="0px" y="0px"
	 viewBox="0 0 200 200" style="enable-background:new 0 0 200 200;" xml:space="preserve">
<path d="M100,0c55.1,0,100,44.9,100,100s-44.9,100-100,100S0,155.1,0,100S44.9,0,100,0z M100,39c-3.9,0-7.3,3.4-7.3,7.3v55.1
	c0.5,2.4,2,4.9,4.4,5.9l39,18.5l0.5,0.5c3.4,1.5,7.3-0.5,9.3-3.9l0.5-0.5c1.5-3.4-0.5-7.3-3.9-9.3l-34.6-16.1V45.9
	C106.8,42,103.9,39,100,39L100,39z"/>
</svg>
