<?xml version="1.0" encoding="utf-8"?>
<!-- Generator: Adobe Illustrator 26.0.0, SVG Export Plug-In . SVG Version: 6.00 Build 0)  -->
<svg version="1.1" id="图层_1" xmlns="http://www.w3.org/2000/svg" xmlns:xlink="http://www.w3.org/1999/xlink" x="0px" y="0px"
	 viewBox="0 0 200 200" style="enable-background:new 0 0 200 200;" xml:space="preserve">
<path d="M81.3,114.8c10.3,10.4,27.1,10.4,37.5,0l82.6-74.4c0.1,0.9,0.3,1.7,0.3,2.6v92.7v26.7c0,9.8-7.9,17.8-17.7,17.8l-167.9,0
	c-9.8,0-17.7-8-17.7-17.8v-44.6V43c0-0.9,0.1-1.8,0.3-2.6L81.3,114.8z M191.4,21.5l-79.9,71.7c-8.8,8.9-14.3,8.9-23.1,0L8.6,21.6
	c2.3-1.1,4.8-1.8,7.5-1.8h167.9C186.6,19.8,189.1,20.4,191.4,21.5z"/>
</svg>
