<?xml version="1.0" encoding="utf-8"?>
<!-- Generator: Adobe Illustrator 26.0.0, SVG Export Plug-In . SVG Version: 6.00 Build 0)  -->
<svg version="1.1" id="图层_1" xmlns="http://www.w3.org/2000/svg" xmlns:xlink="http://www.w3.org/1999/xlink" x="0px" y="0px"
	 viewBox="0 0 200 200" style="enable-background:new 0 0 200 200;" xml:space="preserve">
<style type="text/css">
	.st0{fill:#595757;}
</style>
<path class="st0" d="M154,72.9V49.7C154,22.3,131.7,0,104.3,0h-3.6C73.3,0,51,22.3,51,49.7v23c-18.6,2-33.1,17.8-33.1,36.9v53.3
	c0,20.5,16.7,37.1,37.1,37.1h93.8c20.5,0,37.1-16.7,37.1-37.1v-53.3C185.9,90.9,172,75.4,154,72.9z M63.8,49.7
	c0-20.4,16.6-36.9,36.9-36.9h3.6c20.4,0,36.9,16.6,36.9,36.9v22.7H63.8V49.7z M173.1,162.9c0,13.4-10.9,24.3-24.3,24.3H55
	c-13.4,0-24.3-10.9-24.3-24.3v-53.3c0-13.4,10.9-24.3,24.3-24.3h93.8c13.4,0,24.3,10.9,24.3,24.3L173.1,162.9L173.1,162.9z"/>
<path class="st0" d="M101.9,111.4c-6.1,0-11,4.9-11,11c0,3.6,1.7,6.9,4.6,8.9v23.1c0,3.5,2.9,6.4,6.4,6.4c3.5,0,6.4-2.9,6.4-6.4
	v-23.1c2.9-2.1,4.6-5.4,4.6-8.9C112.9,116.3,108,111.4,101.9,111.4z"/>
</svg>
