<?xml version="1.0" encoding="utf-8"?>
<!-- Generator: Adobe Illustrator 26.0.0, SVG Export Plug-In . SVG Version: 6.00 Build 0)  -->
<svg version="1.1" id="图层_1" xmlns="http://www.w3.org/2000/svg" xmlns:xlink="http://www.w3.org/1999/xlink" x="0px" y="0px"
	 viewBox="0 0 200 200" style="enable-background:new 0 0 200 200;" xml:space="preserve">
<path d="M105.7,198.7c-4.3,0-8.6-2-12.1-5.4l-47.9-48.6H18.6c-10,0-18.6-8.1-18.6-17.6V71.7c0-9.5,8.6-17.6,18.6-17.6h27.1L93.6,5.5
	c4.3-4.7,10.7-6.8,17.1-4.7s10.7,7.4,10.7,13.5v169.6c0,6.1-4.3,11.5-10.7,13.5C109.3,198.7,107.9,198.7,105.7,198.7z M135.7,182.5
	c-2.9,0-5.7-2-6.4-4.7c-1.4-3.4,0.7-7.4,4.3-8.8c31.4-10.1,52.1-37.8,52.1-69.6s-21.4-60.1-52.9-70.3c-3.6-1.4-5.7-5.4-4.3-8.8
	s5.7-5.4,9.3-4.1C175,28.5,200,62.3,200,99.4s-25,70.3-62.1,83.1H135.7z M135.7,134.5c-2.9,0-5.7-2-6.4-4.7
	c-1.4-3.4,0.7-7.4,4.3-8.8c10-3.4,16.4-12.2,16.4-22.3s-6.4-18.9-16.4-22.3c-3.6-1.4-5.7-5.4-4.3-8.8c1.4-3.4,5.7-5.4,9.3-4.1
	C154.3,69,165,83.2,165,98.7s-10.7,29.7-26.4,35.1C137.1,134.5,136.4,134.5,135.7,134.5z"/>
</svg>
