<?xml version="1.0" encoding="utf-8"?>
<!-- Generator: Adobe Illustrator 26.0.0, SVG Export Plug-In . SVG Version: 6.00 Build 0)  -->
<svg version="1.1" id="图层_1" xmlns="http://www.w3.org/2000/svg" xmlns:xlink="http://www.w3.org/1999/xlink" x="0px" y="0px"
	 viewBox="0 0 200 200" style="enable-background:new 0 0 200 200;" xml:space="preserve">
<path d="M200,87.5L193,14.1c-0.4-3.8-3.4-6.8-7.2-7.2L112.5,0h-0.1c-0.8,0-1.3,0.2-1.8,0.7L0.7,110.6c-0.9,0.9-0.9,2.4,0,3.3
	c0,0,0,0,0,0l85.4,85.4c0.4,0.4,1,0.7,1.7,0.7s1.2-0.2,1.7-0.7L199.3,89.4C199.8,88.9,200,88.2,200,87.5L200,87.5z M143.9,70.7
	c-8.3,0-15-6.7-15-15s6.7-15,15-15c8.3,0,15,6.7,15,15S152.2,70.7,143.9,70.7z"/>
</svg>
