<?xml version="1.0" encoding="utf-8"?>
<!-- Generator: Adobe Illustrator 26.0.0, SVG Export Plug-In . SVG Version: 6.00 Build 0)  -->
<svg version="1.1" id="图层_1" xmlns="http://www.w3.org/2000/svg" xmlns:xlink="http://www.w3.org/1999/xlink" x="0px" y="0px"
	 viewBox="0 0 200 200" style="enable-background:new 0 0 200 200;" xml:space="preserve">
<path d="M100,84.3c-11.9,0-21.5-9.7-21.5-21.5s9.7-21.5,21.5-21.5s21.5,9.7,21.5,21.5S111.9,84.3,100,84.3z M100,54.9
	c-4.3,0-7.8,3.5-7.8,7.8s3.5,7.8,7.8,7.8s7.8-3.5,7.8-7.8C107.8,58.4,104.3,54.9,100,54.9z M100,200c-3.8,0-6.9-3.1-6.9-6.9v-37.4
	c0-3.8,3.1-6.9,6.9-6.9s6.9,3.1,6.9,6.9v37.4C106.9,196.9,103.8,200,100,200z M126,174.4c-3.8,0-6.9-3.1-6.9-6.9v-11.8
	c0-3.8,3.1-6.9,6.9-6.9c3.8,0,6.9,3.1,6.9,6.9v11.8C132.9,171.4,129.8,174.4,126,174.4z M74,183.7c-3.8,0-6.9-3.1-6.9-6.9v-21.1
	c0-3.8,3.1-6.9,6.9-6.9s6.9,3.1,6.9,6.9v21.1C80.8,180.6,77.8,183.7,74,183.7z"/>
<path d="M126.5,139.8H73.6c-7.2,0-13.8-3.9-17.2-10c-4.5,2-8.6,4.5-12.4,7.4c-3.7,2.8-8.6,3.4-12.9,1.6c-4.3-1.8-7.2-5.9-7.6-10.5
	c-2.7-28.1,13.4-41.4,23.7-47.1c1.4-28.9,14.5-56,36.4-75.1c9.4-8.2,23.5-8.2,32.9,0c21.9,19.1,35,46.3,36.4,75.1
	c10.4,5.6,26.4,19,23.7,47.1c-0.5,4.6-3.4,8.6-7.6,10.5c-4.3,1.8-9.2,1.2-12.9-1.6c-3.8-2.9-7.9-5.4-12.4-7.4
	C140.2,136,133.7,139.8,126.5,139.8L126.5,139.8z M57.4,115.4c4.5,0,8.8,2.6,10.6,7l0,0.1c0.9,2.2,3.1,3.6,5.5,3.6h52.9
	c2.4,0,4.6-1.4,5.5-3.6l0-0.1c2.4-5.8,9.1-8.5,14.9-6.2c5.8,2.4,11.2,5.4,16.1,9c0.6-9.3-1.5-17.1-6.2-23.2
	c-4.2-5.4-9.6-8.5-13.4-10.2l-4.1-1.8l0-4.5c-0.2-26.5-11.8-51.7-31.8-69.2c-4.2-3.7-10.6-3.7-14.9,0C72.6,33.9,61,59.1,60.7,85.6
	l0,4.5l-4.1,1.8c-3.8,1.6-9.2,4.7-13.4,10.2c-4.7,6.1-6.8,13.9-6.2,23.2c4.9-3.6,10.3-6.6,16.1-9C54.5,115.7,56,115.4,57.4,115.4z"
	/>
</svg>
