<?xml version="1.0" encoding="utf-8"?>
<!-- Generator: Adobe Illustrator 26.0.0, SVG Export Plug-In . SVG Version: 6.00 Build 0)  -->
<svg version="1.1" id="图层_1" xmlns="http://www.w3.org/2000/svg" xmlns:xlink="http://www.w3.org/1999/xlink" x="0px" y="0px"
	 viewBox="0 0 200 200" style="enable-background:new 0 0 200 200;" xml:space="preserve">
<path d="M100,0C44.8,0,0,44.8,0,100s44.8,100,100,100s100-44.8,100-100S155.2,0,100,0z M79.8,106.7l0,0.3c-0.3,4.6-1.4,9.8-2.9,15.1
	l5.4-4l15.8,18c2.1,7.4-0.7,14.1-0.7,14.1l-21.4-25v0c-2,6.5-4.5,12.8-7.4,18.9c-5,10.2-12.3,12.2-20,12.9c-7.7,0.7-5.2-1.2-5.2-1.2
	c15.2-12.4,17.4-19.6,21.6-27.5c2.7-5,4.6-14.4,5.6-21.6H44.7c0,0,1.1-7,4.3-9.3h22.7c0.1-3.4-0.3-22.9-0.4-29.3h-11
	c-2.1,10-9.2,12.7-10.7,13.4c-1.6,0.8-5.3,1.6-4.7,0c0.6-1.6,6-10.3,9.6-24.7C58,42.3,68.6,42.9,68.6,42.9c-2.9,5-5,16.4-5,16.4
	h35.6c2.3,0,2.4,8.7,2.4,8.7H81.4c-0.2,5.1-0.6,18.7-1.1,29.3h21.3c0,0,2.7,3.4,2.7,9.3L79.8,106.7L79.8,106.7z M157.1,143.9h-19.6
	L122,154.3l-3.7-10.4h-9V57.5h47.7L157.1,143.9L157.1,143.9z M76.8,122.1C76.8,122.1,76.8,122.1,76.8,122.1z M125,143.1l12.7-8.5
	h10.2h0V67.1h-29v67.5h3.1L125,143.1z"/>
</svg>
