<?xml version="1.0" encoding="utf-8"?>
<!-- Generator: Adobe Illustrator 26.0.0, SVG Export Plug-In . SVG Version: 6.00 Build 0)  -->
<svg version="1.1" id="图层_1" xmlns="http://www.w3.org/2000/svg" xmlns:xlink="http://www.w3.org/1999/xlink" x="0px" y="0px"
	 viewBox="0 0 600 600" style="enable-background:new 0 0 600 600;" xml:space="preserve">
<style type="text/css">
	.st0{fill:#36485E;}
	.st1{fill:#42B684;}
</style>
<rect x="553.2" y="126.3" class="st0" width="27.2" height="28.5"/>
<rect x="375.1" y="126.3" class="st0" width="27.2" height="28.5"/>
<rect x="286.4" y="126.3" class="st0" width="27.2" height="28.5"/>
<rect x="197.7" y="126.3" class="st0" width="27.2" height="28.5"/>
<rect x="464.5" y="126.3" class="st0" width="27.2" height="28.5"/>
<rect x="375.1" y="445.3" class="st0" width="27.2" height="28.5"/>
<rect x="197" y="445.3" class="st0" width="27.2" height="28.5"/>
<rect x="108.3" y="445.3" class="st0" width="27.2" height="28.5"/>
<rect x="19.6" y="445.3" class="st0" width="27.2" height="28.5"/>
<rect x="286.4" y="445.3" class="st0" width="27.2" height="28.5"/>
<rect x="88.7" class="st0" width="65.7" height="68.6"/>
<rect x="178.1" class="st1" width="65.7" height="68.6"/>
<rect x="266.8" class="st1" width="65.7" height="68.6"/>
<rect x="356.2" class="st1" width="65.7" height="68.6"/>
<rect x="444.9" class="st1" width="65.7" height="68.6"/>
<rect x="88.7" y="106.6" class="st0" width="65.7" height="68.6"/>
<rect x="178.1" y="212.4" class="st1" width="65.7" height="68.6"/>
<rect x="266.8" y="212.4" class="st1" width="65.7" height="68.6"/>
<rect x="356.2" y="212.4" class="st1" width="65.7" height="68.6"/>
<rect x="444.9" y="212.4" class="st0" width="65.7" height="68.6"/>
<polygon class="st0" points="600,281.8 533.6,281.8 533.6,212.4 "/>
<rect x="88.7" y="212.4" class="st0" width="65.7" height="68.6"/>
<rect x="88.7" y="319" class="st0" width="65.7" height="68.6"/>
<rect x="178.1" y="319" class="st1" width="65.7" height="68.6"/>
<rect x="266.8" y="319" class="st1" width="65.7" height="68.6"/>
<rect x="356.2" y="319" class="st1" width="65.7" height="68.6"/>
<rect x="444.9" y="319" class="st0" width="65.7" height="68.6"/>
<rect x="533.6" y="319" class="st0" width="65.7" height="68.6"/>
<rect y="106.6" class="st0" width="65.7" height="68.6"/>
<rect y="212.4" class="st0" width="65.7" height="68.6"/>
<rect x="444.9" y="424.8" class="st0" width="65.7" height="68.6"/>
<rect x="533.6" y="424.8" class="st0" width="65.7" height="68.6"/>
<rect x="178.1" y="531.4" class="st1" width="65.7" height="68.6"/>
<rect x="266.8" y="531.4" class="st1" width="65.7" height="68.6"/>
<rect x="356.2" y="531.4" class="st1" width="65.7" height="68.6"/>
<rect x="444.9" y="531.4" class="st0" width="65.7" height="68.6"/>
<rect x="88.7" y="531.4" class="st1" width="65.7" height="68.6"/>
<polygon class="st0" points="65.7,68.6 0,68.6 65.7,0 "/>
<polygon class="st1" points="65.7,531.4 0,531.4 65.7,600 "/>
<polygon class="st0" points="533.6,531.4 599.3,531.4 533.6,600 "/>
<polygon class="st1" points="533.6,68.7 599.3,68.7 533.6,0.1 "/>
<polygon class="st0" points="-1.4,318.6 65,318.6 65,388 "/>
</svg>
