<?xml version="1.0" standalone="no"?>
<!DOCTYPE svg PUBLIC "-//W3C//DTD SVG 1.1//EN" "http://www.w3.org/Graphics/SVG/1.1/DTD/svg11.dtd" >
<svg xmlns="http://www.w3.org/2000/svg">
  <metadata>Created by iconfont</metadata>
  <defs>
  <font id="iconfont" horiz-adv-x="1024">
    <font-face
      font-family="iconfont"
      font-weight="400"
      font-stretch="normal"
      units-per-em="1024"
      ascent="896"
      descent="-128"
    />
      <missing-glyph />
      
      <glyph glyph-name="jianshu" unicode="&#65490;" d="M667.136 896H356.864C253.952 896 202.752 896 147.456 878.592A217.8048 217.8048 0 0 1 17.408 748.544C0 693.248 0 642.048 0 539.136v-310.272c0-102.912 0-154.624 17.408-209.408a217.8048 217.8048 0 0 1 130.048-130.048c55.296-17.408 106.496-17.408 209.408-17.408h310.272c102.912 0 154.112 0 209.408 17.408a217.8048 217.8048 0 0 1 130.048 130.048c17.408 55.296 17.408 106.496 17.408 209.408V538.624c0 102.912 0 154.112-17.408 209.408C984.576 808.96 936.96 856.576 876.544 878.592 821.248 896 770.048 896 667.136 896zM213.504 443.392h76.8v-400.896h-76.8V443.392z m43.008 121.344c19.456-35.84 31.744-71.168 37.376-107.008h83.456c-11.264 45.568-26.112 80.896-43.008 107.008H256.512zM421.376 635.904h92.16v50.688H346.624c2.048 4.096 4.608 10.752 8.704 20.48 2.048 8.192 4.096 13.824 5.632 17.92H274.432C261.12 671.744 230.4 632.3199999999999 182.272 606.2080000000001v-50.688C245.76 571.392 290.816 598.528 317.44 635.904h28.672c9.728-25.6 15.36-50.688 17.408-74.24h80.896c-5.632 27.648-13.312 52.736-23.04 74.24zM384 475.648h347.136v-326.656c2.048-29.696-11.264-43.52-40.448-41.472h-47.616v-59.392h69.12c67.072-2.048 99.84 28.672 97.792 92.16V535.04H384v-59.392zM654.848 422.4H372.224v-300.032H568.32c61.44-2.048 90.112 27.648 86.528 89.088V422.4z m-204.8-53.76h126.464v-68.608H450.048V368.64z m89.6-193.024H450.048v74.24h126.464v-35.84c2.048-27.136-10.24-40.448-36.864-38.4z m117.76 514.048c0 2.048 1.024 5.12 3.072 8.704l8.704 26.624h-86.528c-13.312-55.296-43.008-97.28-89.088-124.928V552.96c59.392 15.872 104.448 43.52 135.168 82.944h40.448c9.728-25.6 15.36-50.688 17.408-74.24h77.824c-2.048 19.456-9.728 44.544-23.04 74.24h100.864V689.152l-184.832 0.512z"  horiz-adv-x="1024" />
      
      <glyph glyph-name="blog" unicode="&#65491;" d="M31.744 847.872h960v-71.168H31.744V847.872zM31.744-8.70399999999995h960v-71.168H31.744v71.168zM128 740.864h64v-71.168H128V740.864zM224.256 740.864h64v-71.168H224.256V740.864zM320 740.864H384v-71.168H320V740.864zM384 98.30399999999997H128V455.168h256v-356.864z m-192 71.68h128V384h-128v-214.016zM448 455.168h224.256V384H448V455.168zM1024 562.688H0V847.872h1024v-285.184zM64 633.856h896V776.704h-896v-142.848zM1024-79.87199999999996H0V455.168h64v-463.872h896V490.496H1024v-570.368zM448 312.832H896v-71.168H448v71.168zM448 169.98400000000004H896v-71.168H448v71.168z"  horiz-adv-x="1024" />
      
      <glyph glyph-name="toutiao" unicode="&#65492;" d="M1023.68 718.455A185.222 185.222 0 0 1 839.098 896H184.902A184.902 184.902 0 0 1 0 711.098v-54.383zM0 42.18700000000001a184.582 184.582 0 0 1 184.902-169.867h653.876a184.902 184.902 0 0 1 184.902 184.582v47.345z m566.863 354.769c-5.758-2.56-17.915 0-23.353-2.56a69.098 69.098 0 0 1-16.955 0 199.298 199.298 0 0 1 1.6-52.143l54.703 2.56a171.466 171.466 0 0 1 16.955 8.956c24.312 10.557 46.385 22.393 69.098 33.91a319.9 319.9 0 0 1 58.542 28.79 174.026 174.026 0 0 0 47.025-16.954c19.834-7.677 38.708-11.196 58.542-19.514a447.86 447.86 0 0 1 44.466-18.234l57.262 3.839v1.6a187.781 187.781 0 0 1 0 52.143l-39.028-3.199a469.613 469.613 0 0 0-45.746 18.234 206.655 206.655 0 0 0-46.705 16.635L931.229 515a479.85 479.85 0 0 1 0 91.491c-63.98-5.118-124.761-7.677-191.94-11.836a270.635 270.635 0 0 0-71.658-2.559l-61.1 30.07c-17.275-28.79-37.109-56.622-54.703-84.773a178.824 178.824 0 0 0-26.232-41.907c2.879-7.997 12.796-7.358 20.793-10.237a212.734 212.734 0 0 0 43.187-16.954c8.957 1.6 10.237 11.516 14.395 18.234 10.557 16.635 23.353 33.91 33.91 50.864a349.01 349.01 0 0 1 71.657 3.839h25.912c12.796 1.92 30.39 0 43.187 3.839 22.713 5.118 50.864-2.88 71.657 4.158v-1.6a17.595 17.595 0 0 0 0-8.956c-4.478-8.638-21.433-11.197-30.07-15.675l-62.38-31.99a112.285 112.285 0 0 1-24.953-11.837 223.93 223.93 0 0 0-57.262 21.114A118.043 118.043 0 0 0 639.8 512.12c-10.237-2.56-25.592-37.108-33.91-45.746 1.92-8.317 42.227-20.153 52.144-23.352v-1.6c-30.39-14.395-59.501-31.99-90.211-44.466z m-109.406-99.17a81.894 81.894 0 0 1 22.393 1.6 199.618 199.618 0 0 1 0 52.784l-95.97-5.118V502.523a311.903 311.903 0 0 1 0 71.658l-35.189-2.56c-7.038 0-17.275 1.92-22.073 0a95.97 95.97 0 0 1-22.393 0v-156.43a311.903 311.903 0 0 0 0-71.658L73.257 330.41700000000003v-52.144a531.674 531.674 0 0 1 91.492 5.118c14.395 2.88 31.99-3.518 42.866 2.56h26.232a80.615 80.615 0 0 1-14.396-18.235c-10.236-14.395-21.753-28.47-31.99-43.186-6.398-8.637-17.274-16.635-21.113-27.512-12.796-3.199-63.98 0-72.937-6.398a69.098 69.098 0 0 1-16.955 0v-52.143a359.248 359.248 0 0 1 70.378 5.118c8.957 1.92 21.753 0 28.791 0 13.436 2.88 37.428-3.199 47.025 2.56s26.872 31.99 33.91 43.186c24.952 34.549 57.902 68.458 80.935 104.287a466.734 466.734 0 0 1 76.776 5.119c13.115 3.199 37.108-2.88 46.705 2.879zM167.948 463.495a35.189 35.189 0 0 1 20.793 0l67.179 2.56c0 12.475-12.156 17.914-18.234 25.911-13.756 20.154-31.67 36.149-43.507 55.983l-63.98-3.839h-24.952c3.839-10.557 14.716-17.595 21.114-25.912a398.276 398.276 0 0 1 41.587-53.423z m2.879-101.728a80.615 80.615 0 0 1 25.912 0l59.181 4.159c-2.24 9.277-10.877 14.075-15.675 20.793-10.237 13.756-20.154 26.552-30.07 40.308-4.8 6.398-12.797 11.516-15.676 19.833a199.298 199.298 0 0 1-54.703-2.879c-7.677 0-18.234 2.24-23.672 0a39.348 39.348 0 0 1-11.517 0c12.476-19.834 31.99-36.148 44.147-54.703 5.758-7.677 11.516-21.433 21.113-24.952zM934.748 297.78700000000003V348.97c-59.502 0-106.847-8.317-164.109-7.998v24.953a257.84 257.84 0 0 1-50.864-2.56c-7.997-1.919-20.154 2.24-26.232 0h-2.559a86.373 86.373 0 0 0 0-26.231l-162.829-8.958v-52.143a275.434 275.434 0 0 1 54.703 3.839c16.315 3.518 33.91 0 48.305 2.559s38.068-3.52 47.985 2.559a50.544 50.544 0 0 0 13.116 0v-77.096a150.353 150.353 0 0 1 0-36.469c20.473 1.92 52.783 3.84 77.096 5.119V254.91999999999996a134.678 134.678 0 0 0 4.158 33.27c54.383 0 107.487 5.758 159.95 8.957z m-507.042-16.635l-87.332-4.159a121.562 121.562 0 0 1 18.234-37.748c14.715-28.79 29.75-56.622 42.867-86.053l54.702 2.56a81.575 81.575 0 0 1 31.99 2.559c2.88 7.677-11.836 25.272-15.675 31.99-15.675 30.39-29.11 61.42-45.425 90.211zM892.841 281.15200000000004h-5.118c-3.84-2.56-13.436 0-19.514-1.6a184.902 184.902 0 0 1-53.424-5.118 168.267 168.267 0 0 0 21.114-35.189c11.836-19.514 25.272-38.388 36.468-58.861a370.764 370.764 0 0 1 63.98 4.158h18.235a1129.567 1129.567 0 0 1-58.542 97.89z m-235.766-13.116c-4.799-3.199-14.076 0-20.794-1.6-15.355-3.198-45.106 0-55.023-5.118s-8.637-16.315-12.796-23.352c-9.597-15.675-18.874-31.99-27.511-49.585-4.479-7.997-6.398-18.874-13.116-24.952a17.914 17.914 0 0 0 0-3.839l79.975 3.839c12.476 24.312 26.232 49.265 39.028 73.257a140.116 140.116 0 0 0 13.116 25.912c0 4.159 0 3.199-2.56 5.438z"  horiz-adv-x="1024" />
      
      <glyph glyph-name="auto" unicode="&#65493;" d="M579.84 440.32H427.264L507.648 882.688c0 15.872-15.872 15.872-24.064 8.192L49.408 351.744c-8.192-8.192 0-24.064 8.192-24.064h152.576l-80.384-442.368c0-15.872 15.872-15.872 24.064-8.192l434.176 539.136c8.192 8.192 8.192 24.064-8.192 24.064zM978.176-106.49599999999998h-80.384l-39.936 146.944h-227.328l-53.248-146.944H510.208L697.6 414.72h93.696l186.88-521.216z m-146.944 200.192l-93.696 253.952-93.696-253.952h187.392z"  horiz-adv-x="1024" />
      
      <glyph glyph-name="light" unicode="&#65494;" d="M510.839 83.30200000000002c-167.184 0-301.86 136.997-301.86 301.859s134.676 301.86 301.86 301.86 301.86-132.354 301.86-301.86-134.676-301.86-301.86-301.86z m0 0c-167.184 0-301.86 136.997-301.86 301.859s134.676 301.86 301.86 301.86 301.86-132.354 301.86-301.86-134.676-301.86-301.86-301.86z m-383.13 299.537c0 2.322 0 2.322 0 0 0 16.254 2.323 32.508 2.323 48.762h-92.88C18.576 431.6 0 413.025 0 394.449v-16.254c0-20.898 18.576-39.474 37.152-39.474h92.88c-2.322 13.932-2.322 30.186-2.322 44.118z m83.593 239.166a400.213 400.213 0 0 0 62.693 62.693l-32.507 32.508c-11.61 16.254-37.152 16.254-53.406 0l-9.288-9.288c-16.254-13.932-16.254-39.474 0-53.406l32.508-32.507z m601.396 0l30.186 34.83c16.254 11.61 16.254 37.151 0 53.405l-11.61 11.61c-11.61 16.254-37.152 16.254-53.406 0l-32.507-32.508c23.22-20.898 46.44-41.796 67.337-67.337zM510.84 768.29c16.254 0 30.186-2.322 46.44-2.322v92.88C557.279 877.424 538.703 896 520.127 896h-16.254c-20.898 0-39.474-18.576-39.474-37.152v-95.202c16.254 2.322 30.186 4.644 46.44 4.644zM982.204 431.6h-90.558c2.322-16.253 2.322-30.185 2.322-46.439s0-30.186-2.322-44.118h90.558c20.898 0 39.474 18.576 39.474 39.474v16.254c0 16.254-18.576 34.83-39.474 34.83zM211.302 145.99599999999998l-30.186-32.507c-16.254-11.61-16.254-37.152 0-53.406l11.61-11.61c11.61-16.254 37.152-16.254 53.406 0l32.507 32.508c-25.541 18.576-48.761 39.474-67.337 65.015z m603.718 4.644c-18.576-25.541-41.796-48.761-67.337-67.337l32.507-32.508c11.61-16.254 37.152-16.254 53.406 0l13.932 13.932c16.254 11.61 16.254 37.152 0 53.406l-32.508 32.507zM510.84 2.032000000000039c-13.932 0-30.186 0-44.118 2.322v-92.88c0-20.898 16.254-39.474 37.152-39.474h16.254c18.576 0 37.152 18.576 37.152 39.474v92.88c-16.254-2.322-30.186-2.322-46.44-2.322z"  horiz-adv-x="1024" />
      
      <glyph glyph-name="dark" unicode="&#65495;" d="M1023.484356 381.24935800000003c-1.699998-287.657638-238.3827-516.34635-525.842338-508.549359C226.07536-120.00401 7.282636 98.98871399999996 0.186645 370.55537200000003-7.409346 658.614009 222.377365 895.297711 510.536002 895.99771c45.177943 0.1 88.956888-5.597993 130.735835-16.491979a510.347357 510.347357 0 0 0 98.851876-37.081954c5.396993-2.698997 3.397996-10.894986-2.598997-10.794986h-1.399998c-32.08396 0-63.16792-6.696992-91.653885-19.489975-24.487969-10.994986-47.076941-26.486967-66.667916-46.077942-41.979947-41.979947-65.167918-97.651877-65.567917-156.922803-0.399999-58.170927 21.989972-114.443856 62.269921-156.322803 42.978946-44.777944 101.049873-69.265913 162.919795-68.966913 59.669925 0.3 116.942853 24.687969 158.7218 67.266915 18.490977 18.890976 33.283958 40.579949 43.978945 64.06992 12.992984 28.684964 19.889975 60.069924 19.889975 92.553883v0.3c0 6.096992 8.19599 7.99599 10.894986 2.597996 15.49198-31.283961 27.785965-64.467919 36.681954-98.950875 10.594987-41.779947 16.19198-85.457892 15.89198-130.435836z"  horiz-adv-x="1024" />
      
      <glyph glyph-name="menu-arrow" unicode="&#65496;" d="M616.448 100.35199999999998V0H0v100.352h616.448z m140.8 602.624l266.752-322.048-266.752-322.56-59.904 70.144 208.384 251.904-208.384 251.904 59.904 70.656z m-28.672-268.8v-100.352H0V434.176h728.576zM616.448 768v-100.352H0V768h616.448z"  horiz-adv-x="1024" />
      
      <glyph glyph-name="language" unicode="&#65497;" d="M678.4 601.6c19.456-57.344 45.056-102.4 89.6-146.944 38.4 38.4 64 89.6 82.944 147.456 0-0.512-172.544-0.512-172.544-0.512zM256 281.6h166.4L338.944 505.344 256 281.6zM896 896H128C57.856 896 0 838.656 0 768v-768c0-70.656 57.344-128 128-128h768c70.656 0 128 57.344 128 128V768c0 70.656-51.2 128-128 128z m-313.344-825.344c-12.8-12.8-25.6-12.8-38.4-12.8-6.144 0-19.456 0-25.6 6.656-6.144 6.144-12.8 0-12.8 6.144s-6.144 12.8-12.8 25.6c-6.144 12.8-6.144 19.456-12.8 31.744l-25.6 70.656H230.4L204.8 128c-12.8-25.6-19.456-45.056-25.6-57.344s-19.456-12.8-38.4-12.8c-12.8 0-25.6 6.656-38.4 12.8-12.8 12.8-18.944 19.456-18.944 31.744 0 6.656 0 12.8 6.144 25.6s6.144 19.456 12.8 31.744l140.8 358.4c6.144 12.8 6.144 25.6 12.8 38.4 6.144 12.8 12.8 25.6 19.456 31.744 6.656 6.144 12.8 19.456 25.6 25.6 12.8 6.144 25.6 6.144 38.4 6.144s25.6 0 38.4-6.144 19.456-12.8 25.6-25.6c6.144-6.144 12.8-19.456 19.456-31.744 6.144-12.8 12.8-25.6 19.456-45.056l140.8-352.256c12.8-25.6 19.456-45.056 19.456-57.344-7.168-5.632-13.824-18.944-19.968-31.232z m351.744 249.344c-70.656 25.6-121.856 57.344-166.4 96.256-45.056-45.056-102.4-76.8-173.056-96.256l-19.456 31.744c70.656 19.456 128 45.056 172.544 89.6-44.544 45.056-82.944 102.4-95.744 166.4H588.8v25.6h172.544c-12.8 19.456-25.6 45.056-38.4 64l19.456 6.144c12.8-19.456 31.744-45.056 45.056-70.656H947.2v-31.744h-64c-19.456-64-51.2-121.856-89.6-159.744 45.056-38.4 96.256-70.656 166.4-89.6l-25.6-31.744z"  horiz-adv-x="1024" />
      
      <glyph glyph-name="timeLine" unicode="&#65498;" d="M627.712 853.504H53.248C23.552 853.504 0 829.44 0 800.256V486.4c0-29.184 24.064-53.248 53.248-53.248h574.464c29.184 0 53.248 24.064 53.248 53.248V800.256c0 29.184-24.064 53.248-53.248 53.248z m0-516.096H53.248c-29.184 0-53.248-24.064-53.248-53.248v-313.856c0-29.184 24.064-53.248 53.248-53.248h574.464c29.184 0 53.248 24.064 53.248 53.248v313.856c0 29.696-24.064 53.248-53.248 53.248z m321.536 163.328V890.88c0 3.072-2.56 5.12-5.12 5.12h-84.992c-3.072 0-5.12-2.56-5.12-5.12v-389.632c-64-26.624-94.208-99.84-67.584-163.328 12.8-30.72 36.864-54.784 67.584-67.584v-389.632c0-3.072 2.56-5.12 5.12-5.12h84.992c3.072 0 5.12 2.56 5.12 5.12v389.632c64 26.624 94.208 99.84 67.584 163.328-12.8 30.208-36.864 54.784-67.584 67.072z"  horiz-adv-x="1026" />
      
      <glyph glyph-name="eye1" unicode="&#65499;" d="M1019.904 402.944c4.096-14.336 4.096-24.064 0-38.4 0 0-4.096-14.336-8.704-18.944-4.096-14.336-12.8-28.672-21.504-47.616-21.504-38.4-51.2-86.016-93.696-138.24-80.896-100.352-208.896-205.312-384-205.312s-303.104 104.96-384 205.312c-42.496 52.736-72.704 100.352-93.696 138.24l-21.504 47.616c-4.096 4.608-8.704 18.944-8.704 18.944-4.096 9.728-4.096 24.064 0 38.4 0 0 4.096 14.336 8.704 18.944 4.096 14.848 12.8 28.672 21.504 48.128 21.504 38.4 51.2 86.016 93.696 138.24 80.896 100.352 208.896 205.312 384 205.312s303.104-104.96 384-205.312c42.496-52.736 72.704-100.352 93.696-138.24l21.504-47.616c4.096-5.12 8.704-19.456 8.704-19.456zM512 556.0319999999999c76.8 0 144.896-76.288 144.896-172.032S588.8 211.96799999999996 512 211.96799999999996s-144.896 76.8-144.896 172.032S435.2 556.0319999999999 512 556.0319999999999zM281.6 384c0-143.36 102.4-267.264 230.4-267.264s230.4 123.904 230.4 267.264-102.4 267.264-230.4 267.264S281.6 527.36 281.6 384z"  horiz-adv-x="1024" />
      
      <glyph glyph-name="account" unicode="&#65500;" d="M743.424 389.12c-59.392-52.736-138.24-84.48-225.28-84.48-88.576 0-168.448 33.28-228.352 87.04-138.752-36.352-224.768-160.768-224.768-308.736v-75.776c0-177.152 892.928-177.152 892.928 0v75.776c-0.512 143.872-81.92 266.24-214.528 306.176z m-225.792-31.232c154.112 0 279.04 120.32 279.04 268.8S672.256 896 517.632 896c-153.6 0-279.04-120.32-279.04-269.312 0.512-148.48 125.44-268.8 279.04-268.8z"  horiz-adv-x="1024" />
      
      <glyph glyph-name="copyright" unicode="&#65501;" d="M512 896C229.376 896 0 666.624 0 384s229.376-512 512-512 512 229.376 512 512S794.624 896 512 896z m241.664-715.776c-3.072-4.096-81.92-94.208-226.816-94.208-175.104 0-298.496 130.56-298.496 300.544 0 167.936 128 295.936 296.96 295.936 138.24 0 210.432-76.8 213.504-80.384 7.68-8.192 8.704-20.48 2.56-30.208l-46.08-71.68c-8.192-12.8-26.624-15.36-37.888-4.608-0.512 0.512-54.784 49.152-128 49.152-95.232 0-152.576-69.12-152.576-157.184 0-81.92 52.736-164.352 153.6-164.352 79.872 0 134.656 58.368 135.168 58.88 10.752 11.264 29.184 10.24 38.4-2.048l50.688-69.12c7.168-9.216 6.656-22.016-1.024-30.72z"  horiz-adv-x="1024" />
      
      <glyph glyph-name="home" unicode="&#65502;" d="M979.845519 302.026247c-3.071616-4.607424-8.190976-8.190976-13.310336-8.702912h-2.047744c-5.11936 0-9.726784 1.535808-13.310336 5.631296L511.936008 759.185102l-439.241095-460.230471c-4.607424-4.095488-9.726784-6.143232-15.35808-5.631296-5.11936 1.023872-10.23872 4.095488-13.310336 8.702912L4.607424 360.89888800000006c-7.167104 10.23872-5.631296 27.132608 2.55968 35.83552L463.814023 874.88264c26.620672 28.15648 69.623297 28.15648 96.755906 0l155.11661-162.795651V867.715536c0 14.334208 8.702912 25.5968 20.477441 25.5968h121.840769c11.262592 0 20.47744-11.262592 20.477441-25.5968v-325.591302l139.246594-145.389826c8.190976-8.702912 9.726784-25.5968 2.55968-35.83552l-40.442945-58.872641z m-101.875265-378.832646c0-28.15648-18.429696-51.193601-40.442945-51.193601H593.845769v306.137733H430.538183V-128H186.856643c-22.013248 0-40.442945 23.03712-40.442945 51.193601v382.928134c0 1.535808 0.511936 3.071616 0.511936 4.607424L511.936008 689.049869l365.010374-378.32071c0.511936-1.535808 0.511936-3.071616 0.511936-4.607424l0.511936-382.928134z"  horiz-adv-x="1024" />
      
      <glyph glyph-name="docs" unicode="&#65503;" d="M0-128l36.864 6.144c11.264 2.048 23.04 3.584 34.304 5.12 17.408 2.56 35.328 5.12 52.736 7.68 13.312 2.048 26.624 3.584 39.936 5.632l3.072 0.512c13.824 2.048 27.648 4.096 41.472 5.12l67.072 7.68V896h-2.56C238.592 896 203.776 895.488 168.96 894.464c-38.4-1.024-77.312-2.56-115.712-4.608-16.384-0.512-32.768-1.536-49.664-3.072H1.024V-128H0zM340.992 895.488v-978.944c47.616 4.096 95.232 7.68 142.848 10.752 117.248 6.656 235.52 9.216 353.28 6.656 62.464-1.536 124.928-4.096 186.88-8.192v906.24c-55.808 9.728-111.616 18.432-167.936 26.112-109.056 14.336-219.136 25.088-329.728 31.232C464.896 892.416 402.944 894.464 340.992 895.488z m596.48-631.296h-2.56l-31.232 2.56c-77.312 6.144-155.136 10.24-232.96 12.288-77.824 1.536-156.16 1.536-233.984-0.512h-2.56c-2.56 0-5.12 0-7.68 0.512-5.632 1.024-10.752 3.072-14.848 6.144-7.168 5.632-10.24 13.312-8.704 20.992 0.512 2.56 1.536 4.608 3.072 7.168 1.536 2.048 3.584 4.608 5.632 5.632 2.56 2.048 5.12 3.072 7.68 4.608 3.072 1.024 6.656 2.048 9.728 2.56h5.12c10.752 0 21.504 0.512 31.744 0.512 76.8 1.536 154.112 1.024 230.912-1.536 79.36-2.56 158.72-7.168 237.568-14.336l8.192-0.512c2.56-0.512 5.12-0.512 7.68-1.536 5.632-1.536 10.24-4.096 14.336-7.68 2.56-2.048 4.096-4.608 5.632-7.168 1.536-2.56 2.56-5.12 2.56-7.68 1.024-7.168-2.56-14.336-9.216-19.456-2.56-2.048-5.12-3.072-7.68-4.608-2.56-1.536-5.632-2.048-9.216-2.56-1.536-0.512-2.56-0.512-5.12-0.512h-2.56l-1.536 5.12z m1.536 115.712h-5.12l-30.72 3.072c-77.312 7.68-154.624 12.8-232.448 15.36-77.824 3.072-155.648 4.096-233.472 2.56l-2.56 0.512c-2.56 0.512-5.12 0.512-7.68 1.024-5.632 1.536-10.24 3.584-13.824 7.168-1.536 2.048-4.096 4.608-5.12 6.144-4.096 7.168-4.096 15.36 1.024 22.528 1.536 2.56 3.584 4.608 5.632 6.144 2.56 2.048 5.12 4.096 8.192 4.608 3.584 1.024 6.656 2.56 9.728 2.56l5.12 0.512 32.256 0.512c76.8 0.512 153.6-0.512 229.888-4.096 79.872-3.072 158.72-9.216 237.568-16.384l8.192-0.512 5.12-0.512c5.632-1.024 11.264-3.584 14.848-7.168 6.656-5.12 9.728-12.288 9.216-18.944 0-2.56-1.024-5.12-2.56-7.168-1.536-2.56-3.584-4.608-5.12-6.144-1.536-2.048-4.096-3.072-7.68-5.12-2.56-1.024-5.632-2.048-9.216-2.56l-5.12-0.512h-2.56l-3.584-3.584z m0 115.2c-2.56 0-2.56 0-5.12 0.512l-30.72 3.584c-77.312 8.192-154.624 14.336-232.448 18.432-77.824 4.096-155.648 5.632-233.472 5.632h-2.56l-5.12 0.512c-3.072 0.512-6.144 1.536-9.216 3.072-8.704 4.096-14.336 10.752-15.872 18.432 0 2.56 0 5.12 1.024 7.68 0.512 2.56 1.536 5.12 3.072 7.168 2.048 2.048 4.096 4.608 6.656 6.144 6.144 4.608 14.848 7.168 23.04 7.168h31.744c79.872-0.512 159.744-2.56 238.592-7.168 77.312-4.608 153.6-11.264 229.888-19.456l8.192-1.024c2.56-0.512 3.584-0.512 5.12-1.024 3.072-1.024 6.656-2.048 9.216-3.584 3.072-1.024 5.632-3.072 7.68-5.12 1.536-2.048 3.584-4.096 5.12-6.656 6.144-12.8-2.048-27.648-18.944-32.256-1.024-0.512-2.048-0.512-3.072-1.024-1.536-0.512-2.56-0.512-5.12-0.512h-2.56l-5.12-0.512z m0 115.712c-2.56 0-2.56 0-5.12 0.512l-30.72 3.584c-77.312 9.728-154.624 16.896-232.448 20.992-77.824 5.12-155.648 7.68-233.472 8.704h-2.56l-5.632 0.512c-6.656 1.536-12.288 4.096-16.896 8.192-2.048 2.048-3.584 4.608-5.12 6.144-1.024 2.56-2.048 5.12-2.56 7.68-1.024 7.68 3.072 15.36 10.24 20.992 4.096 3.072 9.728 5.632 15.36 6.144 2.56 0.512 5.12 0.512 7.68 0.512 10.24 0 20.992 0 31.744-0.512 79.872-1.536 159.232-4.608 238.592-10.24 76.8-5.12 153.6-12.8 229.888-22.528l7.68-0.512c2.048 0 3.072 0 5.12-0.512 3.584-0.512 6.144-2.048 9.216-3.072 2.56-1.024 5.12-3.072 7.168-5.12 5.12-5.632 7.168-12.8 5.632-19.968-0.512-2.56-2.048-4.608-3.584-7.168-1.536-2.048-4.096-4.096-6.656-5.632-4.096-3.072-9.216-5.12-14.848-6.144h-7.68l-1.024-2.56zM71.168 632.832c-5.12 0-10.24 1.024-14.848 2.56-10.752 4.096-17.408 12.288-18.432 21.504 0 2.56 1.024 4.608 1.536 7.168 1.024 3.072 2.56 5.632 5.12 8.192s5.632 5.12 9.216 6.656c4.096 2.048 8.704 3.072 13.312 4.096l26.624 2.048c35.84 2.56 72.192 4.608 108.032 6.144h3.072c5.12 0 10.24-1.024 14.848-3.072 10.752-4.096 17.408-12.8 17.408-22.016 0-2.56-1.024-4.608-1.536-6.656-1.024-3.072-2.56-5.632-5.12-8.192-2.56-3.072-5.632-5.12-9.216-7.168-4.096-2.048-8.704-3.072-13.312-3.584-5.632-0.512-11.776-0.512-17.408-1.536-7.68-0.512-15.872-0.512-24.064-1.536l-64.512-3.584-15.872-1.536c-3.584-0.512-7.168-0.512-10.752-0.512l-4.096 1.024z m867.328 93.696l-5.12 0.512-30.72 4.096c-77.312 10.24-155.136 17.92-233.472 24.064-77.824 5.632-155.648 9.728-233.472 11.776h-2.56l-5.12 1.024c-3.072 0.512-6.144 1.536-9.216 3.072-2.56 1.536-5.12 3.072-7.68 5.12-6.656 6.144-9.216 14.336-6.656 21.504 1.024 2.56 2.56 5.12 4.096 7.68 1.536 2.56 4.096 4.608 6.656 6.144 4.608 3.072 9.728 5.12 15.872 6.656 2.56 0.512 5.12 0.512 7.68 0.512l32.256-0.512c77.312-2.56 153.6-6.656 230.4-12.8 79.872-6.144 158.72-15.36 237.568-25.6l8.192-0.512c2.56 0 3.584 0 5.12-0.512 3.072-0.512 6.144-1.536 9.216-3.072 7.68-4.096 12.288-10.752 13.312-17.92 1.024-2.56 0-5.12-1.024-7.68 0-2.56-1.536-5.12-3.072-7.168-1.536-2.048-3.584-4.096-5.632-5.632-4.096-3.072-9.728-5.12-15.872-5.632l-4.608-0.512h-2.56l-3.584-4.608zM70.144 759.296c-17.92 0-32.768 11.264-32.768 25.088 0 8.192 5.12 16.384 14.336 20.992 4.096 2.048 9.216 3.584 14.336 4.096 8.704 0.512 17.408 0.512 26.112 1.024 35.84 2.048 72.192 3.072 108.032 4.608h2.56c5.12-0.512 10.24-1.024 14.336-3.072 9.728-4.608 16.384-13.312 16.384-22.528 0-2.56-0.512-4.608-1.536-7.168-1.536-3.072-3.584-5.632-5.632-8.192-2.56-2.56-6.144-5.12-10.24-6.144-4.096-2.048-9.216-3.072-14.336-3.072-5.632-0.512-11.776-0.512-18.432-0.512L158.72 762.88c-22.528-1.024-44.032-2.048-65.536-3.072l-16.384-0.512c-4.096-0.512-7.68-0.512-10.752-0.512-0.512-0.512 4.096 0.512 4.096 0.512z"  horiz-adv-x="1024" />
      
      <glyph glyph-name="FAQ" unicode="&#65504;" d="M576 640H448c-126.016 0-128-128-128-128v-64h128s-1.984 64 64 64 64-64 64-64c-73.984 0-128-128-128-128h128c0 56 64 64 64 64s64 8 64 128-128 128-128 128zM512 896C229.248 896 0 666.752 0 384s229.248-512 512-512 512 229.248 512 512S794.752 896 512 896z m0-896c-212.096 0-384 171.904-384 384s171.904 384 384 384 384-171.904 384-384-171.904-384-384-384z m-64 128h128V256H448v-128z"  horiz-adv-x="1024" />
      
      <glyph glyph-name="github" unicode="&#65505;" d="M512 883.328c-282.88 0-512-229.248-512-512 0-226.261 146.688-418.133 350.08-485.76 25.6-4.821 34.987 11.008 34.987 24.619 0 12.16-0.427 44.373-0.64 87.04-142.422-30.891-172.459 68.693-172.459 68.693-23.296 59.093-56.96 74.88-56.96 74.88-46.379 31.744 3.584 31.104 3.584 31.104 51.413-3.584 78.421-52.736 78.421-52.736 45.654-78.293 119.851-55.68 149.12-42.581 4.608 33.109 17.792 55.68 32.427 68.48-113.707 12.8-233.216 56.832-233.216 253.013 0 55.893 19.84 101.547 52.693 137.387-5.76 12.928-23.04 64.981 4.48 135.509 0 0 42.88 13.739 140.8-52.48 40.96 11.392 84.48 17.024 128 17.28 43.52-0.256 87.04-5.888 128-17.28 97.28 66.219 140.16 52.48 140.16 52.48 27.52-70.528 10.24-122.581 5.12-135.51 32.64-35.84 52.48-81.493 52.48-137.386 0-196.693-119.68-240-233.6-252.587 17.92-15.36 34.56-46.762 34.56-94.72 0-68.522-0.64-123.562-0.64-140.202 0-13.44 8.96-29.44 35.2-24.32C877.44-46.591999999999985 1024 145.40800000000002 1024 371.328c0 282.752-229.248 512-512 512"  horiz-adv-x="1024" />
      
      <glyph glyph-name="friend" unicode="&#65506;" d="M675.360223 866.724087c-116.213262 41.980121-237.034098 37.372547-348.639786-4.607574l348.639786-353.24736V866.724087z m-395.227481-27.645445c-102.390539-55.802844-185.838828-144.37066-232.426524-255.976348h492.498493c-4.607574 0-260.071969 255.976348-260.071969 255.976348z m437.207602 9.215148v-492.498493L972.804739 602.044544c-55.802844 111.093735-144.37066 199.661551-255.464395 246.249246zM29.275921 541.6341259999999c-41.980121-111.605688-37.372547-237.034098 4.607575-348.639786l348.639785 348.639786h-353.24736z m279.014219-627.654005V406.478614l-255.464395-255.464395c55.290891-102.390539 148.466282-190.446403 255.464395-237.034098z m427.480501 13.822723c106.998113 51.19527 195.053977 139.251133 241.641672 246.249246H489.521395l246.249246-246.249246z m255.464395 641.476727l-348.639785-353.24736h357.854934c32.764973 116.213262 32.764973 241.641672-9.215149 353.24736zM349.758309-99.84260200000006c116.213262-37.372547 237.034098-37.372547 348.639785 4.607575l-348.639785 348.639785v-353.24736z"  horiz-adv-x="1024" />
      
      <glyph glyph-name="eye" unicode="&#65507;" d="M512 694.784C275.456 694.784 74.752 565.248 0 384c74.752-180.736 275.456-310.784 512-310.784s437.248 129.536 512 310.784c-74.752 181.248-275.456 310.784-512 310.784z m0-543.744c-128.512 0-232.96 104.448-232.96 232.96S383.488 616.96 512 616.96s232.96-104.448 232.96-232.96-104.448-232.96-232.96-232.96zM356.864 384c0-86.016 69.632-155.136 155.136-155.136s155.136 69.632 155.136 155.136-69.12 155.648-155.136 155.648S356.864 470.016 356.864 384z"  horiz-adv-x="1024" />
      
      <glyph glyph-name="notice" unicode="&#65508;" d="M541.144821-121.34448199999997c-22.014406 0-44.028812 10.239259-61.947515 27.645999l-245.230245 248.813985H95.225106c-51.196293 0-95.225106 41.468998-95.225106 90.105477V528.848444c0 48.636479 44.028812 90.105476 95.225106 90.105477h138.741955L479.197306 867.767906C501.211712 891.830164 533.97734 902.581386 566.742968 891.830164s54.780034-37.885257 54.780034-69.114996v-868.289136c0-31.229739-22.014406-58.875737-54.780034-69.114996-7.167481-6.655518-14.334962-6.655518-25.598147-6.655518z m153.58888 82.937995c-14.846925 0-29.181887 10.239259-32.765627 24.062258-7.167481 17.40674 3.583741 37.885257 22.014406 45.052739 160.756361 51.708256 266.732689 193.521989 266.732688 356.326201s-109.560068 307.689723-270.828392 359.909943c-18.430666 7.167481-29.181887 27.645998-22.014406 45.052738s29.181887 27.645998 47.612553 20.99048C895.935134 750.016432 1023.925868 576.9729600000001 1023.925868 387.034711s-127.990733-359.909943-317.928982-425.441198h-11.263185z m0 245.742209c-14.846925 0-29.181887 10.239259-32.765627 24.062258-7.167481 17.40674 3.583741 37.885257 22.014406 45.052738 51.196293 17.40674 83.961921 62.459478 83.961921 114.167734s-32.765628 96.760995-83.961921 114.167734c-18.430666 7.167481-29.181887 27.645998-22.014406 45.052738 7.167481 17.40674 29.181887 27.645998 47.612552 20.990481C789.958807 542.671443 844.738841 469.972707 844.738841 390.618452s-54.780034-152.052991-135.158215-179.69899c-7.679444-3.583741-11.263185-3.583741-14.846925-3.58374z"  horiz-adv-x="1024" />
      
      <glyph glyph-name="linkedin" unicode="&#65509;" d="M512-128C229.222-128 0 101.22199999999998 0 384S229.222 896 512 896s512-229.222 512-512-229.222-512-512-512zM374.238 158.37900000000002v340.24h-102.4v-340.24h102.4z m-51.2 488.448c-33.024 0-54.58-22.955-53.914-53.59-0.682-29.218 20.89-52.872 53.248-52.872 33.673 0 55.245 23.654 55.245 52.89-0.683 30.617-21.572 53.572-54.58 53.572z m133.41-488.448h102.4V354.59400000000005c0 9.728 1.365 20.173 4.062 26.453 6.724 19.456 23.569 39.646 51.883 39.646 37.034 0 51.882-29.918 51.882-73.762V158.38h102.4V360.158c0 100.181-50.517 146.125-117.913 146.125-54.563 0-88.252-32.717-101.735-54.272h-2.03l-4.711 46.609H453.75c1.349-29.918 2.697-66.1 2.697-108.544v-231.697z"  horiz-adv-x="1024" />
      
      <glyph glyph-name="email" unicode="&#65510;" d="M424.448 308.22400000000005c52.736-53.248 138.752-53.248 192 0l422.912 380.928c0.512-4.608 1.536-8.704 1.536-13.312v-611.328c0-50.176-40.448-91.136-90.624-91.136H90.624c-50.176 0-90.624 40.96-90.624 91.136V675.84c0 4.608 0.512 9.216 1.536 13.312l422.912-380.928z m563.712 477.696l-409.088-367.104c-45.056-45.568-73.216-45.568-118.272 0L52.224 785.408c11.776 5.632 24.576 9.216 38.4 9.216H950.272c13.312 0 26.112-3.072 37.888-8.704z"  horiz-adv-x="1040" />
      
      <glyph glyph-name="lock" unicode="&#65511;" d="M788.48 522.752V641.5360000000001C788.48 781.824 674.304 896 534.016 896h-18.432C375.296 896 261.12 781.824 261.12 641.5360000000001v-117.76c-95.232-10.24-169.472-91.136-169.472-188.928v-272.896c0-104.96 85.504-189.952 189.952-189.952h480.256c104.96 0 189.952 85.504 189.952 189.952v272.896c0 95.744-71.168 175.104-163.328 187.904zM326.656 641.5360000000001c0 104.448 84.992 188.928 188.928 188.928h18.432c104.448 0 188.928-84.992 188.928-188.928v-116.224H326.656V641.5360000000001z m559.616-579.584c0-68.608-55.808-124.416-124.416-124.416H281.6c-68.608 0-124.416 55.808-124.416 124.416v272.896c0 68.608 55.808 124.416 124.416 124.416h480.256c68.608 0 124.416-55.808 124.416-124.416v-272.896zM521.728 325.63199999999995c-31.232 0-56.32-25.088-56.32-56.32 0-18.432 8.704-35.328 23.552-45.568v-118.272c0-17.92 14.848-32.768 32.768-32.768 17.92 0 32.768 14.848 32.768 32.768v118.272c14.848 10.752 23.552 27.648 23.552 45.568 0 31.232-25.088 56.32-56.32 56.32z"  horiz-adv-x="1024" />
      
      <glyph glyph-name="douban" unicode="&#65512;" d="M512-128c282.767 0 512 229.233 512 512S794.767 896 512 896 0 666.767 0 384s229.233-512 512-512z m256.205 705.434H260.608v51.61h507.597v-51.61z m11.694-455.68h-534.59v52.183h159.888c-19.6 42.598-40.305 79.4-62.096 110.387l41.104 26.419h-72.008v206.09h406.2v-206.09h-75.591l41.103-27.013c-19.415-42.598-39.608-79.196-60.62-109.773h156.61v-52.224zM661.402 362.639V463.75H368.906v-101.11h292.496z m-28.509-51.896H394.711a1153.413 1153.413 0 0 0 69.898-136.806h97.198c29.799 46.203 53.494 91.811 71.086 136.806z"  horiz-adv-x="1024" />
      
      <glyph glyph-name="menu" unicode="&#65513;" d="M945.664 827.904c22.016 0 40.448-7.68 55.296-23.04 15.36-15.36 23.04-33.792 23.04-55.296v-59.392c0-22.016-7.68-40.448-23.04-55.296-15.36-15.36-33.792-23.04-55.296-23.04H78.336C56.32 611.8399999999999 37.888 619.52 23.04 634.88S0 668.16 0 689.664V749.568c0 22.016 7.68 40.448 23.04 55.296s33.792 23.04 55.296 23.04h867.328z m0-366.08c22.016 0 40.448-7.68 55.296-23.04 15.36-15.36 23.04-33.792 23.04-55.296v-59.392c0-22.016-7.68-40.448-23.04-55.296-15.36-15.36-33.792-23.04-55.296-23.04H78.336c-22.016 0-40.448 7.68-55.296 23.04-15.36 15.36-23.04 33.792-23.04 55.296v59.392c0 22.016 7.68 40.448 23.04 55.296s33.792 23.04 55.296 23.04h867.328z m0-366.08c22.016 0 40.448-7.68 55.296-23.04 15.36-15.36 23.04-33.792 23.04-55.296v-59.392c0-22.016-7.68-40.448-23.04-55.296-15.36-15.36-33.792-23.04-55.296-23.04H78.336c-22.016 0-40.448 7.68-55.296 23.04-15.36 15.36-23.04 33.792-23.04 55.296v59.392c0 22.016 7.68 40.448 23.04 55.296 15.36 15.36 33.792 23.04 55.296 23.04h867.328z"  horiz-adv-x="1024" />
      
      <glyph glyph-name="npm" unicode="&#65514;" d="M0 896v-1024h1024V896H0z m832-832H704V576H512v-512H192V704h640v-640z"  horiz-adv-x="1024" />
      
      <glyph glyph-name="message" unicode="&#65515;" d="M883.2 38.39999999999998h-328.704L451.072-76.79999999999995c-14.336-15.872-38.4-16.896-54.272-3.072-15.872 14.336-16.896 38.4-3.072 54.272l115.2 128c7.168 8.192 17.408 12.8 28.672 12.8h345.6c35.328 0 64 28.672 64 64V716.8c0 35.328-28.672 64-64 64h-742.4C105.472 780.8 76.8 752.1279999999999 76.8 716.8v-537.6c0-35.328 28.672-64 64-64H307.2c20.992 0 38.4-17.408 38.4-38.4s-17.408-38.4-38.4-38.4H140.8C62.976 38.39999999999998 0 101.37599999999998 0 179.20000000000005V716.8C0 794.624 62.976 857.6 140.8 857.6h742.4C961.024 857.6 1024 794.624 1024 716.8v-537.6c0-77.824-62.976-140.8-140.8-140.8zM742.4 588.8c20.992 0 38.4-17.408 38.4-38.4S763.392 512 742.4 512H281.6c-20.992 0-38.4 17.408-38.4 38.4S260.608 588.8 281.6 588.8h460.8z m-230.4-204.8c20.992 0 38.4-17.408 38.4-38.4s-17.408-38.4-38.4-38.4H281.6c-20.992 0-38.4 17.408-38.4 38.4s17.408 38.4 38.4 38.4h230.4z"  horiz-adv-x="1024" />
      
      <glyph glyph-name="suggestion" unicode="&#65516;" d="M821.76-128H164.352c-87.04 0-158.208 74.752-158.208 166.4v691.2C6.656 821.248 77.312 896 164.352 896H778.24c23.552 0 43.008-19.968 43.008-45.056s-18.944-45.056-43.008-45.056H164.352c-39.936 0-72.704-34.304-72.704-76.288v-691.712c0-41.984 32.768-76.288 72.704-76.288h657.408c39.936 0 72.704 34.304 72.704 76.288v419.84c0 25.088 18.944 45.056 43.008 45.056s43.008-19.968 43.008-45.056v-419.84c-0.512-91.136-71.68-165.888-158.72-165.888zM744.448 536.576c-11.776 0-23.552 5.12-32.256 15.36-15.872 18.432-13.824 47.104 3.584 63.488L947.2 830.976c17.408 16.384 44.544 14.848 60.416-3.584 15.872-18.432 13.824-47.104-3.584-63.488L772.608 547.8399999999999a41.216 41.216 0 0 0-28.16-11.264zM459.776 547.8399999999999H217.088c-23.552 0-43.008 19.968-43.008 45.056s18.944 45.056 43.008 45.056h242.688c23.552 0 43.008-19.968 43.008-45.056S483.328 547.8399999999999 459.776 547.8399999999999z m114.176-229.888H217.088c-23.552 0-43.008 19.968-43.008 45.056s18.944 45.056 43.008 45.056H573.44c23.552 0 43.008-19.968 43.008-45.056s-18.944-45.056-42.496-45.056z m171.008-229.888h-527.36c-23.552 0-43.008 19.968-43.008 45.056s18.944 45.056 43.008 45.056h527.36c23.552 0 43.008-19.968 43.008-45.056s-19.456-45.056-43.008-45.056z"  horiz-adv-x="1024" />
      
      <glyph glyph-name="douyin" unicode="&#65517;" d="M512 896C229.376 896 0 666.624 0 384s229.376-512 512-512 512 229.376 512 512S794.624 896 512 896z m336.384-446.464c-66.048-0.512-128 19.456-182.272 56.32V245.76c0-115.2-78.848-214.528-190.464-240.64-152.576-34.816-281.6 75.264-297.472 207.36-16.896 132.096 66.56 247.296 195.584 273.408 25.088 5.12 61.952 5.12 82.432 0.512v-139.264c-5.632 1.536-11.264 3.072-17.408 3.584-50.176 8.704-98.816-16.384-118.784-61.952-19.968-46.08-6.656-99.328 34.304-130.048 33.792-26.624 71.68-30.208 110.08-12.8 38.4 16.896 58.88 48.128 63.488 90.112 0.512 6.144 0.512 12.8 0.512 19.456V755.2c0 13.824 0.512 13.824 14.336 13.824h110.08c8.192 0 11.264-1.536 11.776-11.264 6.144-86.016 71.168-159.232 154.624-169.984 8.704-1.536 18.432-2.048 28.672-3.072l0.512-135.168z"  horiz-adv-x="1024" />
      
      <glyph glyph-name="gitlab" unicode="&#65518;" d="M1022.464 329.216l-138.752 472.064c-8.704 26.112-29.184 43.52-57.344 43.52-27.648 0-50.176-15.872-58.88-41.472l-92.16-274.432H354.816l-92.16 274.432C253.952 829.44 231.424 844.8 203.776 844.8s-50.176-17.408-57.344-43.52L7.68 329.216c-5.12-17.408 1.536-36.352 15.872-47.104l491.008-368.128 492.544 368.128c13.312 10.752 20.48 29.696 15.36 47.104z"  horiz-adv-x="1024" />
      
      <glyph glyph-name="QQ" unicode="&#65519;" d="M512 896C229.376 896 0 666.624 0 384s229.376-512 512-512 512 229.376 512 512S794.624 896 512 896z m240.64-699.904c-13.312-1.536-51.2 60.416-51.2 60.416 0-35.84-18.432-82.432-58.368-116.224 19.456-6.144 62.976-22.016 52.224-39.424-8.192-13.824-143.36-9.216-182.784-4.608-38.912-4.096-174.08-9.728-182.784 4.608-10.24 17.408 33.28 33.28 52.224 39.424-39.936 33.792-58.368 80.384-58.368 116.224 0 0-38.4-61.952-51.2-60.416-6.144 1.024-14.336 33.792 10.752 114.176 11.776 37.888 25.088 69.12 46.08 120.832-3.584 133.632 51.712 245.76 183.296 245.76 130.048 0 186.88-110.08 183.296-245.76 20.48-51.712 34.304-82.944 46.08-120.832 25.088-80.384 16.896-113.664 10.752-114.176z"  horiz-adv-x="1024" />
      
      <glyph glyph-name="bilibili" unicode="&#65280;" d="M770.048 546.816H261.12c-15.36 0-28.672-11.776-28.672-27.648v-337.408c0-15.872 12.8-27.648 28.672-27.648h508.416c15.36 0 27.136 11.776 27.136 27.648v337.92c0.512 15.36-11.264 27.136-26.624 27.136zM295.936 422.4l143.36 27.648 10.752-53.76-141.824-27.648-12.288 53.76z m221.184-163.84c-44.032-48.128-90.112 15.36-90.112 15.36l23.552 15.36s31.232-56.832 66.56 18.432c33.792-72.704 70.656-18.944 70.656-19.456l21.504-13.824c-0.512-0.512-40.448-64-92.16-15.872z m212.48 110.08l-142.336 27.648 11.264 53.76 142.848-27.648-11.776-53.76zM512 896C229.376 896 0 666.624 0 384s229.376-512 512-512 512 229.376 512 512S794.624 896 512 896z m269.824-809.472c-35.84 1.024-47.616 0-47.616 0s-2.56-40.96-37.888-41.984c-35.328-0.512-40.448 28.672-41.984 39.424-21.504 0-279.552-1.024-279.552-1.024s-4.608-37.888-39.424-37.888c-35.328 0-37.376 31.744-39.424 37.888-23.04 0-53.76 0.512-53.76 0.512s-77.824 16.384-87.552 117.248c1.024 100.864 0 300.544 0 300.544s-7.168 93.184 85.504 119.808c28.672 1.024 90.624 1.536 161.792 1.536l-66.56 64.512s-10.24 12.8 7.168 27.136c17.92 14.336 18.432 8.704 24.576 4.096 6.144-4.096 98.304-95.232 98.304-95.232h-12.288c35.328 0 72.192-0.512 107.008-0.512 13.312 13.312 90.624 89.088 96.256 93.184 6.144 3.584 7.168 10.24 24.576-4.096s7.168-27.136 7.168-27.136l-64.512-61.952c88.576-0.512 156.672-1.024 156.672-1.024s87.552-19.456 89.6-119.296c-1.024-100.352 0.512-301.568 0.512-301.568s-5.12-98.816-88.576-114.176z"  horiz-adv-x="1024" />
      
      <glyph glyph-name="bokeyuan" unicode="&#65281;" d="M874.002766 746.00275c-199.655043 200.166979-524.222472 200.166979-723.877516 0-200.166979-200.166979-200.166979-524.222472 0-723.877516 200.166979-200.166979 524.222472-200.166979 723.877516 0 200.166979 199.655043 200.166979 524.222472 0 723.877516zM378.960646 153.69278799999995c-19.453568-19.453568-51.193601-19.453568-71.159105 0-19.453568 19.453568-19.453568 51.193601 0 71.159106 19.453568 19.453568 51.193601 19.453568 71.159105 0 19.965504-19.965504 19.965504-51.705537 0-71.159106z m219.108611-1.535808c-1.023872-8.190976-5.11936-16.381952-11.774528-23.03712-16.381952-16.381952-42.490689-16.381952-58.360705 0-9.726784 9.726784-13.310336 23.03712-11.774528 35.323585v-0.511936 0.511936c0.511936 3.071616 2.047744 22.013248-3.071616 48.121984-7.67904 36.347457-25.084864 68.087489-51.705537 95.220098-27.132608 27.132608-58.872641 44.026497-94.708161 51.705537-22.013248 4.607424-38.907137 3.583552-45.050369 3.071616-13.310336-2.55968-27.644544 1.023872-37.883265 11.262592-16.381952 16.381952-16.381952 42.490689 0 58.360705 6.143232 6.143232 14.334208 10.23872 22.525185 11.774528 4.607424 1.023872 118.769154 17.405824 213.477315-77.814273 95.220097-94.708161 79.350081-209.381827 78.326209-213.989252z m186.856643-8.190976c-3.583552-22.525184-24.572928-37.883265-47.098112-34.299712-8.702912 1.535808-16.893888 5.631296-22.525185 11.774528-9.214848 9.214848-14.334208 22.525184-12.286464 35.83552 0 0.511936 5.631296 39.931009-5.631296 94.708162-14.334208 71.671041-48.121985 135.151106-101.36333 188.904387-53.241345 52.729409-116.72141 87.029121-188.904387 101.363329-54.777153 10.750656-94.196225 5.11936-94.708161 5.119361-13.822272-2.047744-27.132608 3.583552-35.835521 12.286464-6.143232 6.143232-10.23872 13.822272-11.774528 22.525184-3.583552 23.03712 11.774528 44.026497 34.299713 47.610049 2.047744 0.511936 51.193601 7.67904 118.769154-4.607424 39.419073-7.167104 77.302337-19.965504 113.137857-37.371329 44.538433-22.013248 86.005249-51.193601 122.352706-87.541057l1.023872-1.023872 1.023872-1.023872c36.347457-36.347457 66.039745-77.814273 87.541058-122.352706 17.405824-35.835521 30.204224-73.718785 37.371328-113.137858 12.7984-67.575553 5.11936-116.72141 4.607424-118.769154z"  horiz-adv-x="1024" />
      
      <glyph glyph-name="weibo" unicode="&#65282;" d="M512 896C229.243 896 0 666.7760000000001 0 384s229.243-512 512-512 512 229.224 512 512S794.757 896 512 896z m-51.2-778.24c-175.313 0-317.44 91.686-317.44 204.781s212.86 291.688 294.286 291.688c34.134 0 101.149-25.448 54.272-106.078-3.28-5.632 105.719 46.895 165.3 12.344 59.601-34.55 0-90.055 0-96.218 0-6.163 119.657-6.163 119.657-101.717 0-113.114-140.762-204.8-316.075-204.8z m249.477 418.778c-19.74 23.438-55.03 17.958-55.03 17.958-10.336-0.095-18.376 7.111-19.798 16.84-0.133-0.987-0.569-1.897-0.569-2.902v5.708c0-1.005 0.436-1.859 0.569-2.807 1.422 9.994 9.538 18.792 19.74 20.139 0 0 42.724 11.681 79.74-21.637 37.015-33.318 21.864-88.405 21.864-88.405-1.593-11.207-12.554-20.158-23.931-20.158h-2.03c-11.396 0-18.033 8.78-14.904 19.608 0 0.019 14.07 32.218-5.651 55.656z m140.345-70.808c-1.423-15.587-15.019-28.273-30.512-30.018 1.138-0.133 2.238-0.341 3.433-0.341h-6.979c1.195 0 2.37 0.208 3.546 0.341-15.018 1.745-25.126 14.45-22.945 30.056 0 0 16.706 64.607-23.988 123.032-40.714 58.425-128.209 48.337-128.209 48.337-15.55 0.019-28.596 11.453-30.246 26.718-0.113-1.08-0.322-2.123-0.322-3.223v6.41c0-1.1 0.209-2.125 0.322-3.187 1.65 15.266 14.507 27.44 30.341 27.554 0 0 91.098 9.197 158.948-54.955 67.85-64.133 46.61-170.724 46.61-170.724zM430.08 322.55999999999995a1.08 1.08 0 1 1 40.96 0 1.08 1.08 0 1 1-40.96 0zM403.304 255.35799999999995a2.159 1.62 90 1 1-25.965 55.683 2.159 1.62 90 1 1 25.965-55.683zM432.033 444.17C320.038 428.43 237.55 356.654 247.77 283.837c10.221-72.818 109.322-119.088 221.336-103.33 112.014 15.74 194.503 87.515 184.282 160.332-10.24 72.8-109.34 119.069-221.355 103.33z m16.365-243.845c-66.636-12.952-129.384 21.56-140.174 77.065-10.79 55.524 34.475 111.01 101.092 123.961 66.635 12.97 129.384-21.542 140.174-77.065 10.77-55.505-34.475-111.01-101.092-123.961z"  horiz-adv-x="1024" />
      
      <glyph glyph-name="category" unicode="&#65283;" d="M56.832 440.832h341.504c31.232 0 56.832 25.6 56.832 56.832V839.168C455.168 870.4 429.568 896 398.336 896H56.832C25.6 896 0 870.4 0 839.168v-341.504c0-31.232 25.6-56.832 56.832-56.832z m568.832 0h341.504c31.232 0 56.832 25.6 56.832 56.832V839.168C1024 870.4 998.4 896 967.168 896h-341.504c-31.232 0-56.832-25.6-56.832-56.832v-341.504c0-31.232 25.6-56.832 56.832-56.832zM56.832-128h341.504c31.232 0 56.832 25.6 56.832 56.832v341.504c0 31.232-25.6 56.832-56.832 56.832H56.832c-31.232 0-56.832-25.6-56.832-56.832v-341.504C0-102.39999999999998 25.6-128 56.832-128z m739.84 0c125.44 0 227.328 101.888 227.328 227.328s-101.888 227.328-227.328 227.328-227.328-101.888-227.328-227.328S670.72-128 796.672-128z"  horiz-adv-x="1024" />
      
      <glyph glyph-name="zhihu" unicode="&#65284;" d="M512 896C229.376 896 0 666.624 0 384s229.376-512 512-512 512 229.376 512 512S794.624 896 512 896zM408.576 349.696v-1.536c-1.536-23.552-7.168-50.176-14.848-77.312l27.648 20.48 80.896-92.16c10.752-37.888-3.584-72.192-3.584-72.192l-109.568 128c-10.24-33.28-23.04-65.536-37.888-96.768-25.6-52.224-62.976-62.464-102.4-66.048-39.424-3.584-26.624 6.144-26.624 6.144 77.824 63.488 89.088 100.352 110.592 140.8 13.824 25.6 23.552 73.728 28.672 110.592H228.864s5.632 35.84 22.016 47.616h116.224c0.512 17.408-1.536 117.248-2.048 150.016h-56.32c-10.752-51.2-47.104-65.024-54.784-68.608-8.192-4.096-27.136-8.192-24.064 0 3.072 8.192 30.72 52.736 49.152 126.464C296.96 679.424 351.232 676.352 351.232 676.352c-14.848-25.6-25.6-83.968-25.6-83.968h182.272c11.776 0 12.288-44.544 12.288-44.544H416.768c-1.024-26.112-3.072-95.744-5.632-150.016h109.056s13.824-17.408 13.824-47.616l-125.44-0.512z m395.776-190.464h-100.352L624.64 105.98400000000004l-18.944 53.248h-46.08V601.6H803.84l0.512-442.368z m-411.136 111.616z m246.784-107.52l65.024 43.52h52.224V552.448h-148.48v-345.6h15.872l15.36-43.52z"  horiz-adv-x="1024" />
      
      <glyph glyph-name="date" unicode="&#65285;" d="M512 896c282.112 0 512-229.888 512-512s-229.888-512-512-512S0 101.88800000000003 0 384 229.888 896 512 896z m0-199.68c-19.968 0-37.376-17.408-37.376-37.376v-282.112c2.56-12.288 10.24-25.088 22.528-30.208l199.68-94.72 2.56-2.56c17.408-7.68 37.376 2.56 47.616 19.968l2.56 2.56c7.68 17.408-2.56 37.376-19.968 47.616l-177.152 82.432V660.992c-5.632 19.968-20.48 35.328-40.448 35.328z"  horiz-adv-x="1024" />
      
      <glyph glyph-name="taobao" unicode="&#65286;" d="M512 896C229.376 896 0 666.624 0 384s229.376-512 512-512 512 229.376 512 512S794.624 896 512 896zM266.24 670.72c33.792 0 61.44-27.648 61.44-61.44s-27.648-61.44-61.44-61.44-61.44 27.648-61.44 61.44 27.648 61.44 61.44 61.44z m-27.648-541.696l-103.936 74.752s145.92 119.808 137.728 159.232C264.192 402.944 163.84 452.608 163.84 452.608l46.592 66.048s119.808-78.336 128-140.288c8.192-61.952-99.84-248.832-99.84-249.344zM856.576 245.76s-9.728-78.336-76.8-105.984c-67.072-27.648-170.496-6.656-170.496-6.656l5.632 43.008s61.952-13.824 100.352-1.536c22.016 6.144 39.936 22.016 49.664 43.008V524.288c-6.144 22.528-20.992 41.984-41.472 53.76-35.84 22.016-53.76 18.432-92.16 13.824-33.792-7.168-66.56-18.432-97.792-32.768l-32.768-64.512h222.72V450.56h-136.704v-55.296h141.824v-38.4l-138.752-5.632v-104.448l66.048 29.184-5.632 45.568 53.76 11.264 39.936-104.448-66.048-29.696-8.192 37.376s-124.928-52.736-174.592-55.808c-50.176-3.584-99.328 7.68-122.88 41.472s-18.432 101.888-18.432 101.888l89.088-2.048c-3.584-21.504 0-44.032 10.752-62.976 17.408-24.576 57.344-18.432 57.344-18.432v115.712l-137.216 4.096v37.376h138.24l-1.536 55.296-43.008 8.704s-35.84-55.808-59.392-54.272c-23.552 1.536-27.136 33.28-27.136 33.28l75.776 93.184-40.96 4.096-61.952-75.776-46.592 41.472c23.552 22.016 44.032 47.104 60.416 74.752 15.872 27.648 28.16 56.832 35.84 88.064l75.776-30.208-22.016-42.496s5.632-5.632 25.088-2.56c19.456 2.56 145.92 66.048 232.448 50.688s141.824-83.968 141.824-137.216V245.76z"  horiz-adv-x="1024" />
      
      <glyph glyph-name="theme" unicode="&#65287;" d="M512.512 896C138.24 896 0 569.344 0 386.56s133.12-513.024 501.76-513.024c0 0 91.648-1.536 91.648 80.896s-40.96 56.32-40.96 115.2c0 59.392 40.96 85.504 60.928 85.504s150.016-9.728 222.72 18.432 189.44 116.736 189.44 268.8C1025.536 576 886.784 896 512.512 896z m-312.32-510.976c-49.152 0-89.088 39.936-89.088 89.088S151.04 563.2 200.192 563.2s89.088-39.936 89.088-89.088c0-49.664-39.936-89.088-89.088-89.088z m167.936 220.16c-49.152 0-89.088 39.936-89.088 89.088S318.976 783.36 368.128 783.36C417.28 783.36 457.216 743.424 457.216 694.2719999999999s-39.936-89.088-89.088-89.088z m285.696 0c-49.152 0-89.088 39.936-89.088 89.088S604.672 783.36 653.824 783.36c49.152 0 89.088-39.936 89.088-89.088s-39.936-89.088-89.088-89.088z m169.472-220.16c-49.152 0-89.088 39.936-89.088 89.088S774.144 563.2 823.296 563.2s89.088-39.936 89.088-89.088c0-49.664-39.936-89.088-89.088-89.088z"  horiz-adv-x="1025" />
      
      <glyph glyph-name="gitee" unicode="&#65288;" d="M512-128C230.4-128 0 102.39999999999998 0 384S230.4 896 512 896s512-230.4 512-512-230.4-512-512-512z m259.2 569.6H480c-12.8 0-25.6-12.8-25.6-25.6v-64c0-12.8 12.8-25.6 25.6-25.6h176c12.8 0 25.6-12.8 25.6-25.6V288c0-41.6-35.2-76.8-76.8-76.8h-240c-12.8 0-25.6 12.8-25.6 25.6V480c0 41.6 35.2 76.8 76.8 76.8h355.2c12.8 0 25.6 12.8 25.6 25.6v64c0 12.8-12.8 25.6-25.6 25.6H416c-105.6 0-188.8-86.4-188.8-188.8V128c0-12.8 12.8-25.6 25.6-25.6h374.4c92.8 0 169.6 76.8 169.6 169.6V416c0 12.8-12.8 25.6-25.6 25.6z"  horiz-adv-x="1024" />
      
      <glyph glyph-name="tag" unicode="&#65529;" d="M1024 448l-35.84 375.808c-2.048 19.456-17.408 34.816-36.864 36.864L576 896h-0.512c-4.096 0-6.656-1.024-9.216-3.584L3.584 329.72799999999995c-4.608-4.608-4.608-12.288 0-16.896l437.248-437.248c2.048-2.048 5.12-3.584 8.704-3.584s6.144 1.024 8.704 3.584L1020.416 438.272c2.56 2.56 3.584 6.144 3.584 9.728z m-287.232 86.016c-42.496 0-76.8 34.304-76.8 76.8s34.304 76.8 76.8 76.8 76.8-34.304 76.8-76.8-34.304-76.8-76.8-76.8z"  horiz-adv-x="1024" />
      
      <glyph glyph-name="csdn" unicode="&#65530;" d="M512-128C229.222-128 0 101.22199999999998 0 384S229.222 896 512 896s512-229.222 512-512-229.222-512-512-512z m17.067 413.525c34.85-4.352 68.778-5.12 102.741-2.099 23.04 2.048 44.817 8.363 64.17 21.914 38.213 26.794 49.784 85.197 24.252 123.05-14.626 21.71-36.812 30.345-60.757 35.5-35.055 7.543-70.451 5.75-105.847 3.412-5.667-0.358-6.759-3.072-7.237-8.209-3.072-32.682-6.536-65.314-9.813-97.962-2.509-24.815-4.932-49.63-7.51-75.606z m53.401 33.929c1.963 20.907 3.635 39.339 5.427 57.77 1.554 15.907 3.414 31.779 4.728 47.702 0.358 4.284 1.553 6.656 5.956 6.383 15.616-1.041 31.71-0.034 46.729-3.652 36.488-8.824 48.725-54.307 23.347-83.03-15.82-17.903-36.762-23.586-59.256-25.088-8.465-0.546-17.015-0.085-26.93-0.085zM512 461.704c-2.185 0.65-3.533 1.178-4.932 1.434-37.718 6.878-75.69 8.329-113.647 2.816-20.975-3.038-41.011-9.489-57.48-23.33-22.99-19.32-21.641-46.848 4.402-62.003 13.056-7.595 28.024-12.51 42.599-17.289 14.08-4.608 28.996-6.826 43.144-11.264 12.596-3.925 14.012-14.319 3.584-22.306-3.345-2.56-7.44-5.086-11.537-5.751-11.195-1.826-22.698-4.386-33.826-3.567-24.098 1.775-48.042 5.461-72.55 8.43-1.366-10.615-2.936-23.09-4.557-35.942 4.181-1.365 7.68-2.73 11.264-3.618 33.946-8.5 68.386-9.608 102.912-5.12 20.087 2.611 39.475 7.902 56.695 19.03 28.604 18.483 36.694 57.19-4.676 75.383-14.506 6.383-30.19 10.41-45.482 15.087-11.418 3.481-23.314 5.615-34.526 9.523-9.78 3.413-11.145 12.203-3.038 18.398 4.659 3.55 10.718 6.997 16.384 7.373a480.853 480.853 0 0 0 53.384 0.853c15.377-0.7 30.652-3.55 46.49-5.53L512 461.705z m257.143-2.047l-18.21-177.955h54.153c4.779 45.637 9.71 90.727 14.063 135.885 0.614 6.366 2.355 8.84 8.687 9.011 11.434 0.273 22.886 1.98 34.287 1.57 23.722-0.853 42.393-9.727 38.4-43.263-2.902-24.27-5.598-48.572-8.244-72.875-1.092-10.07-1.826-20.19-2.73-30.413h55.33c3.584 35.26 7.987 70.059 10.496 104.994 3.413 47.463-17.766 73.319-64.683 80.214-40.96 6.007-81.34 0.34-121.549-7.134zM285.645 325.052c-8.738-1.297-16.384-2.8-24.098-3.482-25.652-2.236-51.32-3.942-76.305 4.267-13.91 4.59-24.679 12.578-29.799 25.958-7.902 20.702 0.888 47.104 19.832 60.314 17.374 12.117 37.717 15.923 58.453 15.923 22.545 0.017 45.09-2.423 68.233-3.84l5.239 39.51c-15.07 1.723-29.491 3.925-43.998 4.915-41.011 2.798-80.64-2.612-117.47-20.463-30.02-14.558-52.053-36.011-58.675-68.13-7.85-38.145 11.537-69.496 51.763-85.846 19.15-7.765 39.288-12.51 60.007-12.595 24.746-0.102 49.493 1.57 74.206 2.952 3.106 0.171 8.311 2.902 8.67 5.035 1.98 11.554 2.73 23.28 3.942 35.465z"  horiz-adv-x="1024" />
      
      <glyph glyph-name="beian" unicode="&#65531;" d="M512.512 894.464L112.64 708.608v-279.04c0-258.048 170.496-498.176 399.872-557.568 229.376 58.368 399.872 300.032 399.872 557.568V708.608L512.512 894.464z m-9.216-654.336l-51.712-51.712-51.712 51.712L296.448 343.03999999999996 348.16 394.752 451.584 291.84000000000003l232.448 232.448 51.712-51.712-232.448-232.448z"  horiz-adv-x="1024" />
      
      <glyph glyph-name="facebook" unicode="&#65532;" d="M1024 384C1024 666.764 794.764 896 512 896S0 666.764 0 384s229.236-512 512-512 512 229.236 512 512z m-649.495 0v97.978h60.043v59.253c0 79.918 23.878 137.495 111.384 137.495h104.075v-97.746h-73.262c-36.725 0-45.056-24.39-45.056-49.943v-49.059h112.919L629.201 384H531.69v-295.517h-97.14V384h-60.044z"  horiz-adv-x="1024" />
      
      <glyph glyph-name="search" unicode="&#65533;" d="M353.125261 705.619425c-18.423927-7.676636-35.312526-16.888599-51.177574-27.63589-15.865048-10.747291-30.706544-23.541684-44.012714-36.847853-14.329721-13.817945-26.100563-29.171217-36.847853-45.036266-10.747291-15.865048-20.47103-33.265423-27.63589-51.177574-5.629533-13.306169 0.511776-28.147666 13.817945-33.265423 12.794393-5.629533 27.63589 0.511776 33.265423 13.30617 6.141309 14.329721 13.817945 29.171217 23.029908 42.477386 9.211963 13.306169 18.935702 26.100563 30.194769 36.847853 11.259066 11.770842 24.05346 22.006357 37.359629 31.21832 13.817945 9.211963 27.63589 16.888599 41.96561 23.029909 13.306169 5.629533 19.447478 19.959254 13.817945 33.265423-5.629533 13.306169-20.47103 19.447478-33.777198 13.817945z m658.143601-759.986974l-184.239266 184.239266c30.194769 36.336078 54.248228 75.74281 72.160379 119.755524 23.029908 55.27178 35.312526 115.149541 35.312526 178.609733 0 61.924865-12.282618 121.29085-34.288975 175.539079l-0.511775 2.047102c-23.029908 56.295331-56.807107 106.449354-98.772718 149.438517l-2.558879 2.047102c-42.477386 42.989162-93.65496 77.278137-150.462067 100.819821C593.148083 881.158504 532.758545 893.441121 470.321905 893.441121c-127.943935 0-244.117028-52.201125-328.048249-136.132347C99.284494 714.8313880000001 64.483743 663.142038 40.942059 605.823155 18.423927 551.0631510000001 6.141309 491.18539 6.141309 428.236974c0-62.43664 12.282618-121.802626 34.288974-176.050855l1.023552-2.558878c23.541684-56.295331 57.830659-107.984681 100.819821-150.973844 42.989162-42.989162 94.166736-77.789912 150.462067-101.331596h0.511776c54.248228-23.029908 114.12599-35.312526 177.074406-35.312526 63.460192 0 122.826178 12.282618 177.586182 35.312526 43.500938 17.400375 83.931221 42.477386 119.243747 72.160379l184.751042-185.262818c16.376824-16.376824 43.500938-16.376824 59.877762 0.511776 15.865048 17.400375 15.865048 44.524489-0.511776 60.901313zM738.492393 159.04293500000006l-0.511776-1.023552c-34.80075-34.80075-76.254585-62.948416-122.314402-81.884118-44.524489-18.935702-93.65496-29.171217-145.34431-29.171217-51.68935 0-100.308045 10.235515-144.832534 29.171217-46.571592 18.935702-88.025427 47.595144-122.826178 82.395894l-0.511776 0.511776h0.511776c-35.312526 34.80075-63.460192 77.278137-82.90767 123.337953l-0.511776 2.047103c-17.912151 43.500938-27.63589 92.119633-27.63589 143.297207 0 51.68935 10.235515 100.819821 28.659442 145.34431 19.447478 46.059817 47.595144 88.537203 82.90767 123.337953C271.752918 764.985411 366.43143 807.974573 470.833681 807.974573c51.68935 0 100.819821-10.235515 145.34431-28.659442 46.059817-18.935702 88.025427-47.595144 123.337953-82.395894l2.558879-2.047103c33.777199-34.80075 60.901313-75.74281 79.837015-121.802626l1.023552-2.047103c17.400375-43.500938 27.63589-92.631409 27.63589-143.297207 0-51.68935-10.747291-100.819821-29.171218-145.34431-19.447478-46.059817-48.10692-88.537203-82.907669-123.337953z m6.653084 294.782826c-13.817945 0-25.588787-11.770842-25.588787-25.588787 0-32.753647-6.141309-65.507295-18.935702-95.702064l-0.511776-1.023551c-12.282618-28.659441-29.682993-56.295331-53.736453-79.32524-23.541684-24.05346-51.177574-42.477386-80.860566-54.760004-30.194769-12.794393-62.43664-18.935702-95.702064-18.935702-14.329721 0-25.077011-11.770842-25.077011-25.588787s10.747291-25.588787 25.077011-25.588787c39.406732 0 78.301688 7.676636 115.149542 23.029908 35.824302 14.329721 69.089725 36.336078 97.23739 65.507295 28.659441 28.659441 50.154023 61.413089 64.995519 96.725615 15.865048 36.847853 23.541684 76.766361 23.541684 115.661317 0 13.817945-11.770842 25.588787-25.588787 25.588787z"  horiz-adv-x="1024" />
      
      <glyph glyph-name="zhiding" unicode="&#65534;" d="M512 464.384c-60.928 0-110.08 49.664-110.08 110.08s49.664 110.08 110.08 110.08 110.08-49.664 110.08-110.08-49.152-110.08-110.08-110.08z m0 150.528c-22.016 0-39.936-17.92-39.936-39.936s17.92-39.936 39.936-39.936 39.936 17.92 39.936 39.936-17.92 39.936-39.936 39.936z m0-742.912c-19.456 0-35.328 15.872-35.328 35.328v191.488c0 19.456 15.872 35.328 35.328 35.328s35.328-15.872 35.328-35.328v-191.488c0-19.456-15.872-35.328-35.328-35.328z m133.12 131.072c-19.456 0-35.328 15.872-35.328 35.328v60.416c0 19.456 15.872 35.328 35.328 35.328 19.456 0 35.328-15.872 35.328-35.328v-60.416c0-19.968-15.872-35.328-35.328-35.328z m-266.24-47.616c-19.456 0-35.328 15.872-35.328 35.328v108.032c0 19.456 15.872 35.328 35.328 35.328s35.328-15.872 35.328-35.328v-108.032c-0.512-19.456-15.872-35.328-35.328-35.328zM647.68 180.22400000000005H376.832c-36.864 0-70.656 19.968-88.064 51.2-23.04-10.24-44.032-23.04-63.488-37.888-18.944-14.336-44.032-17.408-66.048-8.192-22.016 9.216-36.864 30.208-38.912 53.76-13.824 143.872 68.608 211.968 121.344 241.152 7.168 147.968 74.24 286.72 186.368 384.512 48.128 41.984 120.32 41.984 168.448 0 112.128-97.792 179.2-237.056 186.368-384.512 53.248-28.672 135.168-97.28 121.344-241.152-2.56-23.552-17.408-44.032-38.912-53.76-22.016-9.216-47.104-6.144-66.048 8.192-19.456 14.848-40.448 27.648-63.488 37.888-17.92-31.744-51.2-51.2-88.064-51.2z m-353.792 124.928c23.04 0 45.056-13.312 54.272-35.84v-0.512c4.608-11.264 15.872-18.432 28.16-18.432h270.848c12.288 0 23.552 7.168 28.16 18.432v0.512c12.288 29.696 46.592 43.52 76.288 31.744 29.696-12.288 57.344-27.648 82.432-46.08 3.072 47.616-7.68 87.552-31.744 118.784-21.504 27.648-49.152 43.52-68.608 52.224l-20.992 9.216v23.04c-1.024 135.68-60.416 264.704-162.816 354.304-21.504 18.944-54.272 18.944-76.288 0C371.712 722.432 312.32 593.408 310.784 457.728v-23.04l-20.992-9.216c-19.456-8.192-47.104-24.064-68.608-52.224-24.064-31.232-34.816-71.168-31.744-118.784 25.088 18.432 52.736 33.792 82.432 46.08 7.168 3.072 14.848 4.608 22.016 4.608z"  horiz-adv-x="1024" />
      
      <glyph glyph-name="tools" unicode="&#65535;" d="M1002.202138 104.677278L768.025007 338.85440900000003c-46.195489 46.195489-115.188751 55.19461-170.783322 27.797285L384.062504 579.830876V704.018748L128.087501 896 0.1 768.012499l191.981252-255.975003h124.187872l213.179182-213.179181c-27.197344-55.594571-18.398203-124.587833 27.797285-170.783322l234.177131-234.177131c29.197149-29.197149 76.39254-29.197149 105.389708 0l105.389708 105.389708c28.997168 29.197149 28.997168 76.39254 0 105.389708zM663.435221 446.043941c56.594473 0 109.789278-21.997852 149.785373-61.993946l38.796211-38.796211c31.596914 13.798652 61.593985 32.996778 87.591446 58.994239 74.192755 74.192755 99.390294 178.58256 75.792599 273.373303-4.39957 17.998242-26.997364 24.197637-40.196075 10.998926l-148.78547-148.78547-135.78674 22.597793L668.034772 698.219315l148.78547 148.78547c13.198711 13.198711 6.799336 35.796504-11.398887 40.396055-94.790743 23.397715-199.180549-1.799824-273.173323-75.792599-56.994434-56.994434-83.791817-132.187091-82.391953-207.179767l164.183966-164.183967c16.198418 3.799629 32.996778 5.799434 49.395176 5.799434z m-207.779709-163.983986l-113.388927 113.388927L37.496348 90.47866399999998c-49.995118-49.995118-49.995118-130.987208 0-180.982326s130.987208-49.995118 180.982326 0l247.175862 247.175862c-15.198516 39.796114-19.798067 83.191876-9.999024 125.387755zM128.087501-47.90782200000001c-26.397422 0-47.995313 21.597891-47.995313 47.995313 0 26.597403 21.39791 47.995313 47.995313 47.995313s47.995313-21.39791 47.995313-47.995313c0-26.397422-21.39791-47.995313-47.995313-47.995313z"  horiz-adv-x="1024" />
      
    </font>
</defs>
</svg>
