<?xml version="1.0" encoding="utf-8"?>
<!-- Generator: Adobe Illustrator 26.0.0, SVG Export Plug-In . SVG Version: 6.00 Build 0)  -->
<svg version="1.1" id="图层_1" xmlns="http://www.w3.org/2000/svg" xmlns:xlink="http://www.w3.org/1999/xlink" x="0px" y="0px"
	 viewBox="0 0 1200 300" style="enable-background:new 0 0 1200 300;" xml:space="preserve">
<style type="text/css">
	.st0{fill:#3EAF7C;}
</style>
<g>
	<path class="st0" d="M54.8,71.4c1.1,0.3,2.1,0.6,2.5,0.6c0.6,0,1.3,0.3,1.9,0.8c0.6,0.6,1.9,1.3,3.5,2.1l2.7,3.2l-0.9,5.5l0.9,0.8
		c-0.9,3-1.9,5.7-2.5,7.9c-0.6,2.2-1.1,4-1.6,4.9c-0.3,0.9-0.9,2.8-1.7,5.4l-0.9,0.3c0,0.3,0,0.5,0.2,0.8s0,0.6-0.6,1.3
		c-0.5,0.6-0.8,1.1-0.8,1.7s-0.3,1.4-0.8,2.7h-0.8l-0.8,3.8L54,114c0,0.9-0.5,2.5-1.4,4.9s-1.9,5.5-3,9.2c-1.1,3.8-1.6,6-1.6,7
		s0,1.7-0.2,2.2s-0.6,1.1-1.4,1.9c-0.8-0.3-1.4-0.5-2.2-0.8c-0.6-0.3-1.7-1.3-3.3-2.8c-1.6-1.6-2.4-2.5-2.7-2.7s-0.6-0.3-1.1-0.3
		l-0.3-4l-1.7-1.3l0.3-1.6l2.1-1.1c0.9-1.7,1.7-3,2.2-3.5c0.5-0.6,0.8-1.1,0.9-1.6c0.2-0.5,0.2-1.1,0.2-1.7l0.8,1.3l7.3-10.4h0.9
		c0.5-1.9,1.6-3.5,3.5-4.9l-0.8-0.8h1.3c0-0.6,0.2-1.3,0.5-2.1c0.3-0.6,0.6-1.1,0.8-1.4c0.3-0.3,0.5-0.5,0.8-0.8l0.8-0.3
		c-0.2-0.3-0.2-0.8-0.2-1.3s0.6-1.6,2.1-3.5c1.3-1.9,1.9-3,1.7-3.3S60,89.5,60,89l1.6-0.6c0-0.6,0-1.1,0-1.4s0.5-1.3,1.6-2.7
		c0.9-1.4,1.4-2.4,1.4-2.7c0-0.3,0-0.8,0.2-1.3l-1.9,2.1c-4.1,2.2-8.2,3.6-12.5,4l-3-2.5c-1.6-2.4-3.3-4.7-4.9-7.3l0.2-1.3
		c0.9,0.2,1.7,0.2,2.4,0.2s1.7-0.3,3.2-0.9C49.4,73.9,51.6,72.8,54.8,71.4z M38,31.7c4.7,2.1,8.2,3.3,10.6,4
		c2.4,0.6,4.6,1.4,6.5,2.7c2.1,1.3,5.1,3.3,9.3,6c2.1,2.2,3.6,4,4.9,4.9s2.7,2.4,4.1,4.3c1.6,1.9,2.4,3.5,2.5,5.1s0,2.4-0.3,2.7
		s-0.6,0.9-0.9,1.7c-3-1.1-5.8-1.3-8.5-0.3C66,62.4,66,62.2,66,61.9s-0.2-0.6-0.6-1.1c-0.5-0.5-0.9-1.3-1.6-2.5l2.1-2.1l-1.3-2.5
		c-2.7-2.8-4.7-5.1-6.3-6.5C56.7,45.8,54.6,44,52,42s-4.9-3.6-6.6-4.7C43.6,36.1,41.2,34.4,38,31.7z M122,54.5c0.8,0,1.3,0,1.6-0.2
		c0.3,0,0.8,0,1.4,0.2s1.7,0.5,3,1.1l0.6,1.7c-1.6,1.9-2.7,3.2-3.5,3.8s-1.4,1.6-1.9,2.7s-0.6,2.7-0.6,4.6s0.6,5.8,1.7,11.5
		c1.3,5.7,1.7,9,1.6,9.8c-0.2,0.8-0.2,1.3,0.2,1.6c0.3,0.3,0.5,1.3,0.6,3c0.2,1.7,0.9,5.2,2.7,10.7c1.6,5.4,5.1,12.2,10.3,20.2
		s8.5,13,9.8,14.5c1.3,1.6,2.8,3.5,4.6,5.4c0.6-0.9,1.1-1.9,1.3-2.5s0.3-1.3,0.2-2.1c0-0.6,0-1.3,0.3-1.7c0.3-0.5,0.6-0.9,0.8-1.6
		c-0.9-1.6-0.6-3.2,0.9-4.4l-0.6-2.1l0.6-0.6c-0.3-0.5-0.3-1.3-0.3-2.5c0-1.1,0.2-2.1,0.3-2.7c0.2-0.6,0.2-1.1,0-1.3
		s-0.3-0.5-0.5-1.1c0.3-1.6,0.3-3.5-0.2-5.4c0.3-0.6,0.3-1.3,0.3-1.7c0-0.5,0-1.3,0-2.1c0-0.9,0-1.9-0.2-2.8s-0.3-1.9-0.3-2.8
		s0-1.9,0-3s0-2.2-0.2-3c-0.2-0.9-0.2-1.9-0.2-3s0-3.3,0.2-7c0.3,0.3,0.5,0.6,0.8,0.8c0.3,0.2,0.6,0.8,1.1,1.6
		c0.5,0.9,1.1,2.7,1.6,5.5s0.9,5.8,0.9,9s0.6,6.2,1.6,9.2c0.9,2.8,1.6,7.1,1.7,12.5c0.1,5.4,0.5,9.5,1.1,12.2
		c0.6,2.8,1.1,5.4,1.3,7.6c0.3,2.2,0.6,3.8,0.9,4.6c0.3,0.8,0.5,1.3,0.2,1.6s-0.5,0.9-0.8,2.1l-1.3,0.8c-0.8-0.3-1.3-0.8-1.7-1.1
		c-0.3-0.3-1.4-0.6-3.2-0.8c-1.7-0.2-2.8-0.5-3.5-0.9c-0.6-0.5-1.6-0.9-2.8-1.4l-4.9-6.6l-1.1-0.6c-1.7-2.2-3.2-4.1-4.4-5.7
		c-1.1-1.6-3.5-5.5-7-11.5s-6.3-11.4-8.7-16.3c-2.4-4.9-4.1-9.8-5.4-14.9s-2.7-16.3-4.1-34l-1.3,0.3l-7.9,8.2l-1.6,0.9l-4,4.4
		l-1.3,0.9l-3,4.1l-2.5,2.1c-4.1,5.2-8.2,10.1-12.6,14.5l-5.1,3l-1.7-1.6l-3-7.7c2.2-2.4,4.3-5.1,6-7.9c-0.3,1.1-0.3,2.2,0.3,3
		c0.5-0.3,1.3-0.8,2.5-1.3c1.1-0.5,2.4-1.4,3.8-2.5c1.4-1.3,3.6-3.2,6.6-6l2.1-2.1l0.9,0.9l0.3-2.7l0.6,0.8H99v-1.9l0.9-0.3l5.4-5.1
		c1.7-1.7,3.6-3.5,5.7-5.1l0.9-1.6l5.1-3.6l2.7-3.6L122,54.5z M85.9,20.2c2.5-0.2,5.1,0.3,7.7,1.6c0.3,0.6,0.8,1.1,1.3,1.6
		c0.5,0.3,0.5,0.9,0,1.9c-0.5,0.9-0.5,1.6-0.3,2.2c0.3,0.6,0.3,1.4,0,2.2s-0.5,1.6-0.5,2.4s-0.2,1.9-0.2,3.2
		c3.2-1.6,5.7-2.8,7.4-3.8c1.9-0.9,4-1.7,6.3-2.5c2.4-0.8,4.3-1.3,5.5-1.4c1.3-0.2,2.1,0,2.5,0.3c0.5,0.5,0.9,0.9,1.4,1.4l0.9,1.9
		l-1.6,2.1c-0.5,0-0.9,0.2-1.1,0.3c-0.3,0.2-1.9,1.1-4.9,2.7c-3,1.6-4.9,2.7-5.7,3.2c-0.8,0.6-2.2,1.6-4.1,3L98,45l-7,6.3
		c-0.8,1.3-1.6,2.5-2.2,4c-0.8,1.4-1.6,2.5-2.2,3.5l-2.1-1.7c-1.6-2.7-2.7-4.4-3.5-5.5c-0.8-0.9-1.3-2.1-1.3-3.2
		c-0.2-1.1-0.3-3-0.3-5.8l3.2-1.6c0.9-0.8,1.6-1.4,2.2-2.1c0.6-0.6,1.4-3,2.4-7c0.9-4,1.4-6.3,1.3-7.3c-0.2-0.8-0.3-1.7-0.6-2.7
		L85.8,21L85.9,20.2z M104.9,49.3c2.2,0.5,4.4,0.8,7,0.8l0.9,2.2l-2.1,2.1c-1.7,1.3-3.2,2.2-4.4,2.8c-1.1,0.6-2.5,1.7-4.4,3.2
		c-1.7,1.4-4.6,4.1-8.5,8.1l-4.4,7l-2.2,0.3c-1.1-0.9-1.9-1.7-2.4-2.2s-0.6-1.1-0.6-1.7s-0.2-1.3-0.5-1.9s-0.6-1.3-0.6-2.1
		c0-0.8,0.2-1.4,0.6-1.9c0.5-0.5,1.1-1.3,1.7-2.4C91.3,58.3,97.8,53.5,104.9,49.3z"/>
	<path class="st0" d="M281.7,27.8c1.1,1.6,2.2,2.8,3,3.6c0.9,0.8,1.6,2.2,2.2,4.6c0.6,2.2,1.4,5.2,2.2,8.8c0.8,3.6,1.3,7.6,1.3,12
		s0.6,7.7,2.1,10s2.8,4.1,4.6,5.5c1.6,1.4,2.7,2.5,3.2,3.2s1.1,1.6,2.2,2.5c2.5-3.5,4.4-6.2,5.8-8.1s3.3-5.1,5.7-9.2
		c2.4-4.1,3.8-7,4-8.4c0.3-1.4,0.6-3,1.3-4.7l-2.8-1.6c2.2-0.3,3.8-0.8,4.7-1.3s1.7-0.5,2.1-0.2c0.3,0.5,0.9,0.8,1.9,1.1
		c0.3,1.1,0.6,2.1,0.9,2.7c0.3,0.6,0.2,1.6-0.6,2.7c-0.8,1.3-1.4,2.8-2.1,4.9c-0.5,2.1-1.9,4.9-4,8.4c-2.2,3.6-4.7,7.6-7.6,12
		c-2.8,4.4-4.4,6.8-4.4,7.3l17.1,15l3.8,3.6c11.7,11.5,19.1,17.7,22.4,18.3c3.3,0.8,6.3,1.4,9.2,1.7c2.7,0.5,5.8,1.3,9.3,2.4
		s5.5,2.1,6,2.5c0.6,0.6,1.3,1.1,2.2,1.6c0,1.4,0.6,2.5,1.9,3.5l-1.7,0.2v0.9l-3.5,1.6c0.9-0.2,1.3-0.3,1.1-0.3
		c-0.2-0.2-0.8-0.5-2.1-0.8c-1.3-0.5-2.2-0.6-3-0.5c-0.6,0.2-1.3,0.2-1.7-0.2c-0.5-0.2-0.9-0.2-1.4-0.2c-0.5,0.2-1.7,0.2-4,0.2
		c-2.1,0-4.6-0.3-7.6-0.8s-5.1-0.9-6-1.4c-1.1-0.5-2.4-1.1-4-2.2c-2.2-3.3-4.6-6.3-7.3-9.3c-4.1-3.5-7-6-8.8-7.3
		c-1.9-1.3-10.3-9.5-25-24.5l-2.1,1.9c-1.1,0.3-1.9,0.2-2.5-0.6c-0.8-2.8-1.1-5.1-1.3-6.3c0-1.3-0.6-2.4-1.7-3.2
		c-1.1-0.8-2.5-2.4-4.1-4.7c0,0.8,0,1.4,0,1.9s0.2,1.3,0.3,2.1c0.2,0.9,0.3,2.1,0.2,3.5c0,1.4,0.2,3.6,0.8,6.5
		c0.6,2.8,0.9,6.5,1.1,11.1s-0.2,9.2-0.8,13.7c-0.6,4.6-0.9,8.5-0.8,11.7c0,3.2-0.2,5.5-0.6,7c-0.5,1.4-0.9,3.5-1.6,6.3l-0.8-0.8
		l-2.7-0.3l-1.9-1.7l-2.2-1.3c-1.9-2.8-3.2-4.7-4-5.8s-2.2-4.1-4.4-8.8s-3.6-7.9-4.4-9.2c-0.8-1.3-2.1-3.3-3.8-6.2
		c-1.6,2.2-2.7,4-3.3,4.9c-0.6,0.9-1.6,2.2-2.7,4c-1.1,1.6-2.1,3.3-2.8,5.1s-2.2,4.3-4.1,7.7c-1.9,3.3-4.1,7-6.5,10.9l-0.9,0.3
		l-1.3,2.1c-0.9,0.9-1.7,1.9-2.4,2.5c-0.6,0.6-0.9,0.9-1.3,0.9c-0.3,0-0.8,0-1.3,0l-0.8-1.6l1.6-2.1l0.8,0.8c1.9-3,3.5-5.2,4.6-6.5
		s2.4-3.5,3.8-6.5c1.4-3,2.5-6,3.5-8.8c0.9-2.8,2.2-5.8,4-8.7s3.8-7.7,6-14.7c2.4-7,3.5-10.9,3.5-11.7c0-0.9,0-1.7,0.2-2.7
		c-1.4,0.8-2.7,1.3-4,1.7c-1.3,0.3-3.2,0.9-6,1.7c-2.8,0.8-4.7,1.1-5.8,1.1c-0.9-0.2-1.7,0-2.2,0.2c-0.5,0.3-0.9,0.3-1.4,0.2
		s-1.3-0.2-2.4-0.2c-1.1,0-2.1,0.5-3,1.1s-1.7,0.9-2.2,0.8c-0.6-0.2-1.3-0.3-2.2-0.6l-0.8-3l1.7-1.7c2.5-2.5,4.4-4.4,5.8-5.8
		c1.4-1.4,3.3-2.5,5.8-3.3s4.7-1.6,7-2.2c2.3-0.6,4.1-1.3,5.5-2.1c1.4-0.8,2.7-1.1,3.6-1.1s1.9-0.2,3.2-0.6l1.3-1.1
		c0.6-0.3,1.1-0.5,1.3-0.6c0.3-0.2,0.8-0.2,1.7,0c0.9,0.2,1.9,0.6,3,1.6c0.9,0.8,2.5,2.1,4.6,4c0,0.3,0.2,0.6,0.3,0.6
		c0.3,0,0.5,0.2,0.5,0.5s0.3,0.6,0.6,0.9c-2.4,4.3-4.6,8.5-6.5,12.5l-1,0.1c-1.6,3.5-3.3,7-4.9,10.3H270l-3,7.4
		c4.6,5.7,9.2,11.4,13.6,16.9c1.6,1.1,3.3,1.3,5.1,0.3c0.9-6.6,1.6-11.5,2.1-14.9c0.5-3.3,0.6-8.2,0.3-14.5
		c-0.3-6.3-0.6-11.9-1.1-16.8c-0.5-4.9-0.9-8.1-1.3-9.6c-0.5-1.6-0.9-2.7-1.4-3.2s-1.3-1.4-2.5-2.8l-1.1,0.3l-0.2-1.1l1.6-1.1
		l0.9,0.9l2.1,1.1c0.3-0.3,0.5-0.6,0.6-0.9c0.2-0.3,0-3-0.6-8.1c-0.5-5.1-1.1-9.6-2.1-13.4c-0.8-3.8-1.7-6.2-2.5-7
		c-0.9-0.8-1.9-2.1-2.8-3.6L281.7,27.8z"/>
	<path class="st0" d="M497.1,45c-0.2,0.3-0.2,0.8-0.2,1.1s-1.6,2.1-4.9,5.1s-6,5.7-7.9,8.2c-1.9,2.4-3,4.4-3.5,6.2
		c-0.3,1.7-1.3,3.3-2.5,4.9c-1.3,1.6-2.1,3-2.5,4.6c-0.5,1.6-1.1,3.2-2.2,5.1c-0.9,1.9-1.9,3.3-2.8,4.4s-1.3,1.9-1.3,2.5
		s0,1.3,0.2,2.2l1.3,0.8c-0.8,0.6-1.3,1.3-1.7,1.9c-0.3,0.6-1.1,2.1-2.1,4.3c-0.9,2.2-1.9,3.8-2.8,4.9h-1.6
		c-1.6-2.2-2.5-3.8-3.2-4.7c-0.6-0.9-1.1-1.9-1.3-3c-0.3-1.1-0.6-2.1-1.3-2.8c-0.6-0.8-0.8-1.9-0.5-3.5c0.3-1.4,0.9-2.8,2.1-4.1
		c1.1-1.3,1.6-2.7,1.4-4.1c-0.2-1.6-0.2-2.8,0-4c0.2-1.1,0.3-3,0.6-5.5c-2.8,1.7-5.4,3.6-7.7,5.5c-0.9,1.7-1.7,3.3-2.2,4.4
		c-0.5,1.3-1.1,3.2-1.7,5.8c-0.8,2.7-0.9,5.5-0.5,8.5c0.5,3,0.5,4.9,0.2,5.5c-0.3,0.8-0.6,1.3-0.6,1.7c0,0.3,0.2,1.1,0.3,2.1
		l-1.3,0.3c-0.5,0.9-0.9,1.7-1.3,2.2c-2.2-2.8-4-4.7-4.9-5.8c-0.9-1.1-1.7-3-2.2-5.4c-0.5-2.5,0-5.2,1.6-8.4s2.1-6.6,1.6-10.4
		c-0.6-3.8-1.6-7.1-3-9.6s-2.4-4.6-3-5.8c0.3,0.2,1.6,0.6,3.5,1.6s3.8,2.1,5.5,3.5c1.1,1.6,1.9,3.5,2.5,5.4c0.9-0.8,2.7-2.2,5.4-4.4
		c2.7-2.2,4.9-4,6.3-5.4c1.6-1.4,2.5-2.2,3.2-2.4c0.6-0.2,1.4-0.5,2.5-0.6c1.9,1.7,4.1,2.8,6.8,3.5c0.3,1.7,0.5,3.2,0.8,4.1
		s0.3,1.7-0.2,2.5c-0.5,0.6-1.1,2.1-1.7,4l0.9,0.6l12-13.1L497.1,45z M513.2,9.7c0.5,1.3,0.9,2.4,1.6,3.2c0.5,0.8,0.6,2.4,0.5,4.7
		s-0.2,6.6,0.2,12.8l6-2.5l0.9,0.3c1.3-0.3,2.4-0.6,3.3-0.8c0.9-0.2,2.1-0.6,3.5-1.6c1.4-0.8,2.7-1.1,4-1.1c1.3,0.2,2.2,0.5,2.8,1.3
		c0.6,0.6,1.6,1.4,2.7,2.4c-0.2,1.6-0.2,2.7-0.2,3.3c0,0.6,0,1.1-0.2,1.3s-0.5,0.6-0.6,1.4c-1.6,1.4-3.3,2.4-4.9,3
		c-1.6,0.6-3.5,1.4-5.5,2.2c-2.1,0.9-3.8,1.6-5.4,2.1s-3.3,1.4-5.4,2.8c-0.6,4.7-0.6,9.2,0,13.6l7.4-3.5l-0.2-1.6l-5.5-5.1
		c1.4,0.5,2.4,0.9,3.2,1.3c0.6,0.3,1.7,0.3,3,0.2c1.3-0.2,3,0.3,5.1,1.4s3.5,1.9,4.1,2.4s1.6,1.1,2.5,1.7l-1.6,2.2
		c-3.5,1.4-6.8,2.8-9.8,4.6c-1.3,2.8-2.2,4.6-2.8,5.5s-0.9,1.6-0.8,2.1c0,0.5,0.2,1.1,0.3,1.7l-0.9-0.2l-1.1,4.6
		c5.4,4,9.8,6.6,13,8.4c3.2,1.6,6.6,3.6,10.3,5.8c3.6,2.2,6.6,4,9.3,5.4c2.5,1.4,6,3.5,10.1,6c0.9,1.3,1.7,2.1,2.5,2.5
		c0.8,0.5,0.9,1.3,0.8,2.4c-0.3,1.1-0.3,1.9-0.2,2.4c0.2,0.5,0.5,1.1,0.6,2.2l-1.1-0.2l-0.3,0.9c-1.6,1.6-3.6,2.7-5.8,3.2l-0.6,0.8
		h-3.2l-2.1-2.2l2.7-1.6l2.1-2.8c-10.1-6.6-19.9-13.6-29.2-21c-0.2,0.3-0.3,0.8-0.6,1.3s-1.9,2.1-4.7,4.7c-2.8,2.7-4.3,4.6-4.4,5.8
		c0,1.3-0.2,2.8-0.2,4.7l0.8-0.2c0,6.5,0.2,11.1,0.3,13.9c0.3,2.8,0.2,5.8-0.2,9.3c-0.3,3.5-0.5,6.3-0.2,8.4c0.3,2.2,0.3,3.6,0,4.6
		c-0.3,0.9-0.3,1.7,0,2.4c0.3,0.6,0.2,1.7-0.2,3.2c-0.3,1.4-0.2,3.2,0.5,5.1c0.6,2.1,0.8,3.6,0.3,4.9c-0.5,1.3-0.5,2.2,0.2,3
		c0.5,0.8,0.8,1.9,0.8,3.6c0,1.6,0,3.5-0.2,5.5s-0.5,3.5-0.8,4.3c-0.5,0.8-0.8,1.7-1.1,2.8c-2.7-1.9-4.7-4.4-6-7.4l-1.3-0.6
		c-0.8-1.7-1.3-3.2-1.4-4c-0.2-0.9-0.2-2.1,0.2-3.3s0.3-2.7,0.2-4c-0.3-1.3-0.3-2.4,0-3.2c0.3-0.9,0.3-1.9,0.2-3
		c-0.2-1.1,0-3.2,0.2-6c0.3,0.6,0.8,1.1,1.1,1.4c0.3,0.3,0.8,1.9,1.6,4.9c0.6,3,1.3,4.6,1.6,5.1c0-5.4-0.2-9.5-0.3-12.2
		c-0.3-2.7-0.5-6.3-0.6-10.9c-0.2-4.6-0.3-14.1-0.3-28.3l-1.1-0.3c-3.2,3.2-5.4,5.5-6.8,7.1s-3.3,4-5.8,7.3
		c-2.5,3.2-4.3,5.4-5.2,6.5c-0.9,1.1-2.2,2.7-4,5.1c-0.9-2.5-2.2-4.7-3.6-6.8l0.3-1.3l-1.3-0.9c0.3-2.1,0.9-4.1,1.9-6.3l8.4-7
		c3.5-6.3,6-11.1,7.9-14.1s3.8-6.6,6-11.1c2.2-4.3,3.2-7.1,2.8-8.4c-0.3-1.3-0.3-2.5-0.3-4c-0.9-0.3-1.9-0.3-3.2,0.3
		c-1.3,0.6-4.7,2.1-10.4,4.4c-5.7,2.2-9,3.5-10.1,3.6c-0.9,0.2-1.9,0.2-2.8,0c-0.6-1.1-1.1-2.1-1.3-2.5c-0.2-0.6-0.3-1.6-0.3-3.2
		s0.5-2.7,1.3-3.5s1.9-2.1,3.3-3.6c6.8-7,14.2-13.4,22.1-19.3V42c-0.8,0-1.4,0-1.7-0.2c-0.5,0-1.6,0.2-3.2,0.8
		c-1.7,0.6-3.3,0.9-4.7,1.1c-1.4,0.2-2.8,0.2-4.1-0.2c-1.3-0.2-2.4-0.5-3-0.8s-1.6-0.9-2.5-1.6c-0.5-1.1-0.9-1.9-1.3-2.4
		c-0.3-0.5-0.6-1.1-0.8-1.7c-0.3-0.8-0.5-1.9-0.8-3.6l1.3,0.6l-0.6-0.6l0.8,2.1c2.5,0,4.4,0.2,5.7,0.3c1.3,0.2,2.8,0,4.9-0.6
		c1.9-0.6,5.1-1.4,9.2-2.7c0.2-4.7,0.3-8.1,0.6-9.8c0.3-1.7,0.3-3.2,0-4.3c-0.3-1.1-0.6-2.5-0.9-4.3l-1.3,2.5l0.6-5.8l2.1-1.1
		L513.2,9.7z M510.5,49.1l-13,10.7l-2.8,3.6l-1.3,0.6c-0.9,1.7-2.2,3.3-3.6,4.7l0.3,0.3c7.3-2.5,14.2-5.4,21.2-8.4L510.5,49.1
		L510.5,49.1z M518,79.4c-0.3,1.6-0.3,4-0.2,7c0.2,3,0.3,4.7,0.3,4.9l7.6-4.9l-7.3-7H518z"/>
	<path class="st0" d="M652.9,33.8c0.3,0.2,4.7,0.8,13.3,1.9c8.5,1.1,14.4,2.1,17.7,2.7c3.3,0.6,5.5,1.3,6.6,1.7
		c1.1,0.6,2.4,1.4,4,2.4l3.2,6.5l-0.6,0.3V52l-1.3,0.6c-1.6-0.6-2.8-1.3-3.8-1.9c-0.9-0.6-4.3-1.7-9.6-3.5
		c-5.4-1.7-10.3-3.3-14.4-4.9c-4.1-1.6-7-2.8-8.7-4C657.7,37.1,655.5,35.7,652.9,33.8z M730.8,26.2c0.5,0.5,1.1,0.9,1.9,1.3
		c0.2,0.9,0.2,1.9,0.2,2.7s-0.9,3-2.7,6.5c-1.7,3.5-3.8,6.8-5.8,10c-2.2,3.2-3.5,4.9-3.8,5.2s-0.9,0.9-1.6,1.7l0.6,0.3
		c6-1.6,11.7-4,17.1-7.4l-0.2-2.8l0.9-0.3l4.4-4.4c0.8,0.2,1.3,0.2,1.7,0.2c0.3,0,0.6,0,0.9,0.3c0.3,0.3,0.8,0.6,1.7,1.1l3.2,4.4
		l-0.8,1.1l1.6,0.9l-1.7,1.6l-2.2,1.3c-0.9,0.9-1.9,1.7-2.7,2.4c-0.8,0.6-0.9,2.8-0.6,7c0.3,4.1,0.8,8.7,1.3,13.6s0.9,10.9,1.1,18.2
		c0.3,7.1,0,13.7-0.8,19.8c-0.8,6-1.6,11.2-2.5,15.5s-2.1,8.1-3.3,11.2c-1.3,3.2-2.4,5.2-3.5,6.3c-0.9,1.1-2.7,3-4.9,6
		c-1.1,1.1-2.1,1.9-3,2.5c-0.8,0.5-2.2,1.1-4.1,1.7c-1.9,0.6-3.2,0.9-3.5,0.8c-0.3,0-0.8-0.3-1.3-0.6c-2.7-2.7-4.6-4.6-5.7-5.5
		c-1.1-1.1-2.4-2.8-3.5-5.2c-1.3-2.4-2.2-4.7-3.2-7s-1.7-4.1-2.5-5.4c-0.8-1.3-2.1-3.5-3.6-6.5c3.5,4.7,7.6,9.2,12.2,13
		c2.7,2.2,4.6,4,5.7,4.9c1.1,0.9,2.2,1.6,3.3,1.9c1.1,0.3,2.5,0.8,4.4,1.3l2.1-1.3c1.7-2.2,3.2-4.1,4.1-5.4c0.9-1.3,2.4-4,4.3-7.9
		c1.9-4,3.2-7.9,4-11.7c0.8-4,1.1-6.8,1.1-8.7c0-1.9,0.2-4.7,0.6-8.4H740l-2.7-3c-4.7-1.7-8.7-3.2-11.5-4c-2.8-0.9-5.8-2.1-9-3.3
		c-3.2-1.3-5.8-2.7-8.2-4c-2.2-1.3-3.8-2.1-4.6-2.5c-0.8-0.5-1.6-1.1-2.5-2.1c2.4,0,4.4,0,5.8-0.2c1.6-0.2,3.3,0.2,5.4,0.6
		c2.1,0.6,4.3,1.1,6.8,1.4c2.4,0.3,5.4,0.9,8.8,1.9c3.5,0.9,6.5,1.9,8.7,3.2s3.5,1.9,3.8,1.9c-1.3-20.2-2.2-31-2.7-32.2
		c-0.5-1.3-0.9-2.7-1.3-4.4c-8.8,3.6-17.5,7.1-26.2,10.4l-8.7,10.6l-3.8,3c0.2-0.9-0.2-1.9-0.8-2.5c-0.9,2.5-1.7,4.4-2.2,5.5
		s-0.8,2.8-0.8,5.2c0,2.4,0.2,5.5,0.6,9.5c0.5,4,0.6,7.9,0.8,11.5c0,3.8-0.2,6.2-0.5,7.3c-0.3,1.1-0.6,2.7-0.9,4.9l-4.1-7.7h1.7
		l0.9-1.1l-2.2-18c-2.7,5.4-4.6,9.3-6,12c-1.3,2.7-3.5,5.7-6.5,9.2s-4.4,6.2-4.3,7.9c0.2,1.9-0.2,3-0.6,3.3
		c-0.6,0.3-0.9,0.8-1.1,1.1c-0.2,0.3-0.3,0.9-0.8,1.7l-2.2-2.2l-0.9,10.6c-0.6-0.6-1.9-2.7-3.6-6.2c-1.9-3.5-2.5-6.2-2.1-7.9
		c0.5-1.7,0.8-3.2,0.6-4.1c0-0.9-0.2-2.7-0.2-4.9l1.1,0.2c-0.5-4.6-0.8-8.4-0.9-11.2c-0.2-3-0.3-9-0.3-18.3
		c-0.2-9.2-0.5-15.3-1.3-18.2c-0.6-2.8-1.4-6.6-2.2-11.1c0.6,1.9,1.3,3.2,1.7,3.8c0.5,0.6,1.1,1.7,1.7,3.2c0.6,1.4,1.3,3.6,1.7,6.5
		c0.5,2.8,0.8,7.1,0.9,12.5c0.2,5.4,0.5,8.4,1.1,8.8l0.2-0.9c6.2-4.7,13.3-7,21.2-6.5v4.1c-2.8,2.2-4.9,3.8-6,4.7s-2.1,1.4-2.7,1.4
		s-1.3,0.2-2.1,0.6c-0.6,0.5-1.9,0.9-3.6,1.1c-1.7,0.3-3,0.5-4,0.8c-0.8,0.3-2.1,0.6-4,1.1l1.6,17.4h1.9l0.6-0.9l1.1-0.2l1.9-3.5
		v1.1l2.2-2.1c2.2-3.2,3.8-5.4,4.7-6.6c0.9-1.3,2.1-2.4,3.3-3.5c1.3-0.9,2.2-2.4,2.5-4s1.1-3.3,2.5-4.9s1.9-3.6,1.7-6
		c-0.3-2.4-0.6-4.1-0.9-5.2c-0.3-1.1-0.6-2.8-0.9-4.9c-3,1.4-5.4,2.4-7,3s-2.8,0.8-3.6,0.5s-1.6-0.5-2.2-0.5s-1.6-0.2-3-0.3
		c0.8-0.2,1.3-0.3,1.7-0.6c0.3-0.3,1.4-1.1,3-2.5s4.4-3.8,8.2-7c-0.2-1.1-0.2-1.9-0.2-2.5c0-0.5,0.3-1.1,0.8-1.6
		c0.5-0.6,1.3-1.6,2.1-3.2l1.9-0.9l7,3.2l1.6,3.2l1.9,1.1l8.7-13.9c-1.9,3.2-3.5,6.5-4.7,9.8l4.6-2.5c4.3-6.3,7.3-10.7,9.2-13.1
		c1.7-2.4,3-4.3,3.5-5.7c0.6-1.4,1.4-3.5,2.4-6l-0.3-0.6c1.6-1.6,2.4-3.5,2.2-5.8C727.5,27.8,729.2,27.1,730.8,26.2z M697.5,68.9
		c-1.6,1.6-2.2,3.2-2.2,5.1c1.6-0.9,2.7-2.7,3-5.1H697.5z"/>
	<path class="st0" d="M895.5,6.1c0.5,0,0.9,0,1.3-0.2c0.3,0,1.1,0.3,2.5,1.1c1.3,0.8,3.5,2.1,6.5,4l1.9,4l-5.4,1.7
		c-0.8,0.9-1.4,1.7-1.9,2.4c-0.5,0.6-1.4,1.9-3,3.5c-1.4,1.6-2.5,2.8-3.5,4c-0.8,0.9-1.6,2.2-2.2,3.5l-1.7,1.1
		c-4.4,5.2-9.2,10.1-14.1,14.5l-1.7,0.9l-1.6,1.7c0.3,2.4,0.5,4.1,0.8,5.1c0.3,0.9,0.5,1.6,0.3,1.9c-0.2,0.3-0.2,0.8-0.2,1.6
		c0.9,0.3,1.6,0.5,2.1,0.6c0.5,0.2,1.9-0.2,4.1-0.8c2.2-0.6,4.7-2.1,7.7-4.3c2.8-2.2,5.5-3.6,7.7-4.3c2.2-0.6,3.6-0.6,4.4-0.2
		c0.8,0.5,1.7,1.1,3,1.7c0.3,0.9,0.8,1.6,1.6,2.2c0.2-4.6,0.3-7.7,0.5-9.5c0.2-1.7,0.2-2.8,0-3.5c-0.2-0.5-0.3-1.3-0.5-2.5
		c-8.2,3.6-16.1,7.4-23.7,11.2c2.2-2.2,4.3-4.1,5.8-5.5c1.6-1.4,8.7-6.2,21.3-14.2l3.2,1.6l2.5,2.4c-0.5,2.1-0.9,3.6-1.3,5.1
		c-0.3,1.3-0.6,4.4-1.1,9.2s-0.5,10.7-0.2,17.7s0.3,11.5-0.2,13.9c-0.3,2.2-0.8,5.4-1.3,9.3h-1.6c2.2,1.6,4.7,2.8,7.6,3.8l0.9,2.1
		c-0.3,0.5-1.6,2.8-3.5,7s-4,7.9-5.8,11.2c-1.9,3.3-3.3,6.2-4.3,8.7l-1.3,0.6c-0.2,0.3-0.2,0.8-0.2,1.1s-0.2,0.9-0.8,1.6
		s-1.4,2.1-2.7,4c3.5,2.4,8.1,5.1,13.9,8.2c5.8,3,11.2,5.2,15.8,6.8c4.7,1.4,9.8,3.5,15.2,6s11.1,4.3,16.8,5.2s10,1.4,12.5,1.4
		s4.1,0.2,4.9,0.6c0.8,0.3,1.6,0.5,2.7,0.2c0.9-0.3,1.7-0.3,2.1,0c0.3,0.3,0.6,0.5,1.1,0.6c-1.1,0.6-2.1,0.9-2.8,1.1
		c-0.8,0-1.6,0.2-2.4,0.3c-0.8,0.2-2.2,0.5-4.1,0.6c-1.9,0.3-3.3,0.3-4,0.3s-1.3-0.3-1.6-0.6l-0.9,0.8c-1.1,0.2-2.2,0.2-3,0.2
		c-0.9,0-2.2,0-4,0.2s-2.7,0.2-3,0.2s-0.6-0.2-1.1-0.5c-0.3,0.3-0.6,0.5-0.9,0.5c-0.3,0-0.5,0-0.8-0.2s-0.6-0.2-1.3-0.2
		c-0.6,0-1.6,0.2-3,0.2l-0.8-0.9l-1.3,0.8c-0.6-0.2-1.1-0.3-1.4-0.6c-0.3-0.3-1.1-0.3-2.2-0.3s-2.8,0-5.2-0.3s-5.5-1.3-9.3-3
		c-4-1.6-9.5-4.4-16.8-8.5s-13.6-8.1-19.1-12.2l-7.4,11.5l-1.9,0.3L874,157c-0.8,0.3-1.4,0.6-1.9,0.9c-0.5,0.3-1.6,1.1-3.2,2.5
		c-1.6,1.4-3.6,2.8-5.8,4.1s-4.1,2.1-5.7,2.2c-1.6,0.2-3.6,0.6-6.3,1.3l9.8-5.8c3.5-3.6,6.2-6.3,7.9-7.9c1.7-1.6,3.6-3.8,5.7-6.5
		c2.1-2.7,3.8-5.1,5.4-7.3s3.8-5.8,6.8-10.9l-10.7-7.9l-4.4,8.5l-1.3,0.3c-3,5.8-6.6,11.1-10.6,16l-4.9,3.8l-0.9-0.6
		c-0.8-0.9-1.3-1.7-1.4-2.2c-0.2-0.5-0.3-1.1-0.2-2.1c0-0.8,0.2-2.2,0.5-4.1l1.1,1.9l1.7,0.9l3-3.5l0.9-0.3c0.9-2.4,1.6-4.1,1.7-4.9
		c0.2-0.9,0.6-1.7,1.6-2.7c0.8-0.9,1.6-2.2,2.4-4c0.8-1.7,2.2-5.1,4.1-10.1l-2.2-0.9l3-0.8l-0.6-0.9c-5.5-3.2-10.9-6.6-16.1-10.4
		c6,3,12,5.7,18.3,8.2c2.1-4.1,3.5-6.8,4.3-8.2c0.8-1.4,1.3-2.5,1.3-3.2s0.3-1.4,0.6-2.2c-1.6-0.3-2.8-1.3-3.8-2.5l-0.9,0.3
		l-2.7-2.1c-0.9-2.2-1.6-4-2.1-5.1s-0.5-2.2,0.2-3.6c0.5-1.3,0.6-2.1,0.6-2.4c-0.2-0.3-0.3-0.6-0.3-1.1c0.3-0.6,0.6-1.3,0.9-1.7
		c0.3-0.6,0.6-4.1,0.6-10.6s-0.6-15.3-2.1-26.5c-1.4-11.2-2.4-17.7-3-19.3s-1.1-3.3-1.6-5.2l1.7,0.9c0.8,1.1,1.4,2.2,2.2,3
		c0.6,0.9,1.4,4.1,2.1,9.8c0.6,5.7,1.4,9.8,2.1,12.3c0.8-0.6,1.4-1.3,2.1-1.9c0.6-0.6,3-4.6,7.3-11.7c4.3-7.3,6.3-10.9,6.3-11.2
		c0-0.3-0.2-0.8-0.2-1.3c-1.6,0.2-2.8,0.2-4.1,0.3c-1.3,0-3.3,0-6.3-0.3s-4.9-0.6-5.8-1.1c-0.9-0.5-1.9-0.9-3.2-1.6
		c-0.9-1.1-1.6-1.9-1.9-2.4c-0.3-0.5-0.6-0.8-0.6-1.3c0-0.3,0-0.9,0-1.6l0.8,0.8c0.9,0.3,1.9,0.5,2.7,0.6c0.8,0.2,2.8,0,6-0.2
		c3.2-0.3,6.5-0.9,10-2.1s5.8-2.2,7.3-3.2C893.9,7.2,894.9,6.4,895.5,6.1z M904,52.6c-2.8,1.4-5.5,2.4-7.7,3.2
		c-2.2,0.6-4.6,1.9-6.8,3.6c-2.2,1.7-4.4,2.7-6.5,2.8c-2.1,0.2-3.8-0.3-5.4-1.6c-1.6-1.3-2.4-1.9-2.5-1.7c-0.2,0-0.3,0.2-0.8,0.2
		c1.1,4.7,1.7,9.3,1.7,13.9c0.9-0.6,1.7-0.6,2.7,0c5.5-3.8,9.6-6.5,12.2-8.2c2.5-1.6,4.6-2.7,6-3s2.4-0.3,2.7,0s0.9,0.6,1.9,0.9
		l1.9,2.2l-7.4,4.9c-2.4,2.2-5.1,5.4-8.1,9.2c-3,3.8-4.4,6.2-4.4,7l0.9-0.3c2.4-3,4.3-5.1,5.5-6.2c1.3-1.1,2.1-2.2,2.5-3.6
		c0.5-1.3,0.9-2.2,1.6-2.5s1.3-1.1,2.1-2.1c0.9,0.2,1.9,0.2,2.5,0.2s1.4,0.2,2.2,0.6c0.8,0.5,2.1,0.9,4,1.6V53L904,52.6z
		 M883.5,78.3c-0.6-0.2-1.7,0.5-3.2,1.7c-1.4,1.3-2.5,2.1-3.2,2.5l-1.1-0.2l-0.2,5.8h0.8l6.8-9.6v-0.2H883.5z M901.2,102
		c-6.5,5.1-13.3,9.5-20.2,13.3l-2.1,2.1l10.7,6.6c1.6-2.2,2.7-3.8,3.5-4.9s1.7-2.8,2.7-4.9c1.1-2.2,3-6,5.5-11.5L901.2,102z
		 M901.3,79.1l-14.9,23.7l0.2,0.3l6.6-4.9l3.5-3.5c3.6-1.9,7.1-4.4,10.3-7.4c-0.3-0.3-0.9-0.9-1.7-2.2c-0.8-1.3-2.1-3.2-3.5-5.7
		L901.3,79.1z"/>
	<path class="st0" d="M1091.8,54c-0.3,2.1-0.3,3.6-0.2,4.9c0.2,1.3-0.2,4.1-1.1,8.5c-0.8,4.4-1.4,7.7-1.6,9.6l13.4-6.5l0.8-1.1
		l-9.3-5.7c1.6,0.6,4.6,1.3,9,1.9s8.5,1.4,12.5,2.5l0.2,1.9l1.3,0.6c-1.6,1.1-2.4,2.5-2.2,4.1c-9.3,4.7-18.6,9.8-27.7,15l-0.2,3.6
		c2.4,0.3,4.3,0.3,5.5,0.2c1.3-0.2,3.3,0.5,6,1.7c2.7,1.3,5.7,3.3,8.8,6.2c3.2,2.8,7.7,5.8,13.6,9.3c5.8,3.5,12.8,7,20.5,10.6
		c7.9,3.5,14.1,5.8,18.6,7.1c4.6,1.3,8.1,2.1,10.4,2.5s6,1.4,10.6,2.7c-1.3,0.9-2.5,1.6-4,2.1c-1.3,0.5-5.4,0.9-12.2,1.1
		c-6.8,0.3-12.6,0.2-17.4-0.3s-8.8-1.6-12.5-3.5c-3.6-1.7-7.1-3.6-10.3-5.7c-3.3-2.1-8.1-5.5-14.2-10.4
		c-6.6-7.3-13.4-14.5-20.7-21.6l-3.5-1.3c-0.3,0.8-0.3,1.3-0.3,1.7c0,0.3-0.3,0.8-0.9,1.1c-0.6,0.3-1.7,3.2-3.5,8.4
		c-1.7,5.2-2.5,8.7-2.2,10.3c0.2,1.6-0.2,3-1.3,4.6c-0.9,1.6-2.1,4-3,7.3c-0.9,3.3-2.5,9.2-4.9,17.9l-0.2-0.6
		c-1.6,0.9-3,1.6-4.4,1.9c-0.8-1.9-1.3-3.3-1.6-4.4c-0.3-1.1-0.2-2.4,0.6-3.6c0.6-1.4,0.9-2.4,0.9-3.2c0-0.6,0-1.6,0.2-2.7l1.1,0.6
		c1.1-3.2,1.7-5.2,2.1-6.2c0.2-0.9,0.8-2.1,1.7-3.5c0.9-1.3,2.4-5.7,4.4-13s3-11.5,3.2-12.6c0-1.1,0.2-2.5,0.3-4.1
		c-2.8,1.6-5.4,3-7.9,4.1s-4.1,1.6-5.1,1.3c-0.9-0.2-2.1,0-3.6,0.8c-1.6,0.6-2.8,0.9-4,0.9c-0.9,0-2.5,0-4.4,0.2
		c-0.8-1.6-1.4-3.2-1.9-4.6c0.3-1.9,0.8-3.3,1.1-4.3s1.1-1.9,2.1-2.8c0.9-0.9,2.7-2.5,4.9-4.9l-2.2,7.6c0.3,0,0.8,0,1.4,0
		s8.4-4,23.2-11.7c1.1-7.6,2.1-12.8,3-15.6c0.8-2.8,1.1-4.9,0.8-6c-0.3-1.1-0.3-2.5-0.3-4.4l3.2-1.6L1091.8,54z M1104.7,29.3
		c0.5,0,0.8,0,0.9-0.2c0.2,0,0.8,0.2,1.7,0.8c1.1,0.6,2.7,1.6,5.1,3.2l1.3,2.7l2.5,1.6c-1.3,1.1-2.2,2.5-2.7,4
		c-2.8,0.9-6.3,2.7-10.6,4.9c-4.3,2.2-8.1,4-11.2,5.4l4.6-5.7c-11.1,0.6-21.5-1.1-31.6-5.1c2.2-0.2,4.3-0.3,5.8-0.5
		c1.6-0.2,4.9-0.9,9.6-2.2s8.2-2.5,10.3-3.6s4-1.9,5.5-2.1c1.6-0.3,2.8-0.6,4-1.1C1100.9,30.9,1102.5,30.3,1104.7,29.3z"/>
</g>
<g>
	<path class="st0" d="M196.9,211.2c0,0.3,0,0.8-0.2,1.6s-0.3,1.7-0.5,2.8s-0.2,1.9-0.2,2.2l0.5-0.2c-0.2,0.9-0.3,1.7-0.3,2.2
		c-0.2,0.5-0.3,0.9-0.5,1.6c-0.2,0.6-0.5,1.9-0.9,3.8c-0.5,1.9-0.8,3-0.9,3.5s-0.3,0.9-0.5,1.6c-0.2,0.6-0.3,1.3-0.5,1.9
		c0,0.3,0.2,0.3,0.3,0.5s0,0.8-0.5,2.5c-0.5,1.6-0.8,2.8-0.9,3.6l-0.5-0.9l-0.5,1.3l0.6-0.2c0,0.8,0,1.3,0,1.6
		c0.2,0.3,0,0.9-0.2,1.7c-0.3,0.8-0.6,2.4-1.3,4.6h0.5c-0.2,0.5-0.2,1.1-0.3,1.9c0,0.8-0.3,1.6-0.5,2.2l-0.3-0.6
		c-0.2,0.6-0.3,1.3-0.5,1.6s-0.3,0.6-0.8,0.9c-0.5,0.3-1.1,0.9-2.2,1.7c-1.3,0.8-2.4,1.4-3.3,1.7c-0.9,0.5-2.1,0.8-3.3,0.9
		c-1.3,0.2-2.4,0.3-3.5,0.2c-1.1,0-2.7,0.2-4.9,0.5c-2.2,0.5-4.3,0.5-6.6,0.3c-2.2-0.3-4.6-0.6-7-0.9c-2.4-0.5-4-0.8-4.6-1.1
		c-0.8-0.3-1.3-0.6-1.7-1.3c-0.2-0.9-0.3-1.6-0.3-2.1c-0.2-0.5,0-1.6,0.3-3.5c0.3-1.7,1.3-4.1,2.7-7c1.4-2.8,1.9-4.7,1.7-5.4
		c-0.3-0.6-0.3-1.3,0-1.6s0.6-0.8,1.1-1.6l1.1-0.6l0.8,0.3l0.5,1.1l1.1,0.8c0.6-0.3,1.3-0.3,1.9-0.2l0.8-0.6l3.5-2.1
		c1.4-1.4,2.5-2.5,3.3-3c0.8-0.6,1.4-1.3,1.9-2.2c0.5-0.8,0.6-1.4,0.6-1.9s0-1.1,0.2-1.9c-1.9-0.9-3.3-1.6-4.3-2.1
		c-0.9-0.5-2.1-0.8-3.2-0.8s-2.4,0-3.5,0.3c-1.3,0.3-2.1,0.6-2.7,0.9c-0.6,0.3-1.4,0.8-2.5,1.6c-1.4,1.3-2.7,2.2-3.5,3
		c-0.9,0.8-2.2,2.5-4.1,5.2c-1.9,2.7-3.5,5.4-5.1,8.2c-1.6,2.7-3,5.1-4.4,7.1c-1.4,2.1-2.7,4-3.5,5.5s-1.3,2.7-1.4,3.5
		c-0.2,0.6-0.5,1.3-0.8,1.7c-0.3,0.5-0.8,1.3-1.1,2.4c-0.5,1.1-0.6,2.1-0.5,2.7c0,0.6-0.2,1.3-0.5,1.7c-0.3,0.5-1.1,1.3-2.1,2.4
		l-0.8-0.2c-0.6-0.9-1.1-1.6-1.3-1.9c-0.3-0.3-0.5-0.6-0.5-0.8c0-0.2-0.2-0.3,0-0.5l-0.8,0.2c0.2-0.9,0.3-1.7,0.5-2.2
		s0.5-1.3,1.1-2.2s1.4-2.1,2.4-3.3c0.9-1.3,1.7-2.7,2.4-4.3c0.6-1.6,1.3-4,1.9-7s0.8-5.1,0.5-6s-0.3-1.6-0.3-2.1
		c0.2-0.5,0.3-1.3,0.5-2.4l0.2,1.7l2.1,2.7c0,0.9,0.2,1.7,0.2,2.1c0.2,0.5,0,0.9-0.2,1.6c-0.2,0.6-0.5,1.9-0.9,3.5l0.5-0.2l-0.2,0.6
		l0.6-0.2c0.3-0.9,0.6-1.4,0.9-1.7c0.3-0.3,0.6-0.6,0.9-1.1c0.3-0.5,1.3-1.7,2.8-3.6c1.6-2.1,2.7-3.2,3-3.6v0.2l0.3-0.3
		c0-0.2,0.2-0.3,0.2-0.5s0.8-1.3,2.5-3.2c1.6-1.9,2.8-3.3,3.8-4.3c0.9-0.9,2.1-2.2,3.6-3.8c1.4-1.1,2.7-2.1,3.6-2.7
		c0.9-0.6,2.1-1.3,3.3-1.9c1.3-0.6,2.5-0.9,3.6-1.3c1.1-0.2,2.4-0.2,3.6,0.2c1.3,0.3,2.2,0.6,3,0.9c0.8,0.3,1.1,0.6,1.3,0.9
		c0.2,0.3,0.3,0.6,0.8,0.9c0.3,0.8,0.6,1.4,0.8,1.9c0.3,0.5,0.3,1.3,0,2.7c-0.3,1.3-0.9,2.7-2.2,4.3s-2.5,2.7-3.6,3.5
		s-1.7,1.4-1.7,1.6c0,0.2-0.2,0.3-0.2,0.5c0.9,0.5,2.1,0.9,3.2,1.3l-0.6,0.8l-1.3,0.8l-0.9,0.8c-3.8,1.6-7.4,3.2-11.1,4.7
		c-0.3,1.3-0.8,2.1-1.1,2.7c-0.3,0.6-0.6,1.4-0.8,2.7c-0.2,1.1-0.3,1.9-0.2,2.2c0.2,0.3,0.3,0.6,0.6,0.9c2.5,0.6,4.6,0.9,6,1.1
		c1.6,0.2,3.3,0.3,5.4,0.6c2.1,0.2,4.4,0.2,7.3-0.2c2.8-0.3,4.9-0.6,6-0.9c1.1-0.3,2.2-0.8,3.5-1.3c0.5-1.7,0.9-3,1.3-3.6
		c0.3-0.6,0.6-1.4,0.8-2.2s0.5-1.6,0.8-2.4c0.3-0.6,0.5-1.4,0.8-2.4s0.6-1.7,0.9-2.7c0.5-0.9,0.8-2.1,1.3-3.5s0.9-3,1.6-4.6
		c0.6-1.6,1.3-3.2,1.6-4.6c0.5-1.4,0.8-2.8,1.3-4.1s0.8-2.5,1.1-3.6s0.6-2.2,1.1-3.2C196,214.8,196.4,213.2,196.9,211.2z M138.8,223
		c0.6,0.6,1.1,1.3,1.7,1.6c0.6,0.3,1.6,0.9,3,1.9c1.4,0.8,2.2,1.4,2.4,1.6s0.5,0.5,0.9,0.8c-0.2,0.9-0.6,1.7-1.3,2.5
		c-0.5,0-0.8,0-1.1,0s-0.8-0.3-1.4-1.1c-0.6-0.8-1.7-1.9-3-3.5L138.8,223z"/>
	<path class="st0" d="M262,203.1c0.3,0.3,0.8,0.6,1.1,0.8s1.6,0.3,3.6,0.3s3.8,0.2,5.4,0.3c1.4,0.2,2.7,0.6,3.5,0.9
		c0.8,0.5,1.6,0.8,2.4,0.8c0.8,1.3,1.4,2.1,1.9,2.5c0.5,0.5,0.6,0.9,0.5,1.4c0,0.5,0,1.1,0.2,1.9c-0.6,0.6-1.1,1.1-1.4,1.4
		c-0.3,0.3-0.6,0.6-0.9,1.3s-0.9,1.1-1.9,1.6c-0.9,0.5-1.7,1.4-2.8,2.7c-1.1,1.3-2.2,2.8-3.3,4.6c-1.1,1.7-1.6,2.8-1.7,3
		c0,0.3-0.2,0.5-0.2,0.8c2.1-0.3,3.8-0.5,5.4-0.8c1.4-0.3,3.2-0.6,5.2-0.8s3.3-0.2,4,0.2c0.5,0.3,1.1,0.6,1.6,1.1l0.2,2.7l-1.4,0.3
		l-0.2,0.6c-0.3,0-0.6,0-0.9-0.2c-0.2,0-0.6,0-1.4,0c-0.6,0.2-1.6,0.2-2.5,0.2s-2.2,0.2-3.3,0.3c-1.3,0.2-2.5,0.3-4,0.5
		c-1.4,0-3.5,0.3-6.2,0.9l-0.8,0.6c0,0.6,0,0.9,0.2,1.3c0.2,0.3,0.2,0.8-0.2,1.4c-0.2,0.8-0.3,1.3-0.2,1.6c0.2,0.3,0.2,0.8,0.3,1.4
		c0.8,0.3,1.4,0.6,1.9,0.8s0.9,0.5,1.6,0.9c0.6,0.5,1.6,1.3,3,2.2c0.6-0.2,1.7-0.6,3.2-1.6c1.6-0.9,3-1.7,4.6-2.5s3.5-1.9,5.8-3.5
		c2.4-1.6,4.3-2.5,5.4-2.7c1.1-0.3,1.9-0.3,2.2,0c0.3,0.3,0.8,0.5,1.6,0.8c0,0.2,0,0.3,0,0.5s-0.2,0.3-0.6,0.6
		c-0.3,0.3-0.9,0.8-1.7,1.4c-6,3-11.7,6.3-17.2,10.1c1.6,1.7,2.8,3.2,4.1,4.3c1.1,1.1,5.1,4.4,11.9,10c0.5,1.1,0.9,1.9,1.3,2.2
		c0.3,0.3,0.3,0.8,0.3,1.1c-0.2,0.3-0.2,0.6,0,0.9c0.2,0.2,0.2,0.5,0,0.6c0,0.2-0.2,0.6-0.3,1.3l-0.9-0.3l-0.5,1.7
		c-0.8-0.8-1.4-1.4-1.9-1.7c-0.3-0.3-0.6-0.6-0.8-0.5c-0.2,0.2-0.3,0-0.5,0l-2.4-3.3c-0.9-0.9-1.7-1.7-2.4-2.4
		c-0.6-0.6-1.6-1.9-3.2-3.6c-1.4-1.7-2.8-3.5-4.1-5.1c-1.3-1.6-1.9-2.4-2.1-2.4s-0.3,0-0.5,0l-0.2-0.9c-0.6,0-1.3,0.5-2.1,1.1
		c-0.6,0.6-1.6,1.3-2.5,1.9c-0.9,0.6-1.7,1.3-2.5,1.9c-0.8,0.6-1.4,0.9-2.4,1.3v-4.4c-0.2,0.2-0.5,0.3-0.8,0.6
		c-0.3,0.2-0.8,1.4-1.1,3.8c-0.5,2.4-1.3,5.7-2.7,10.1c-1.4,4.4-2.2,6.8-2.4,7.3s-0.5,0.9-0.9,1.6l-0.2-0.3l-1.4,1.6l-1.9-1.3
		l-0.5-0.6l-1.1-0.9c-0.9-1.4-1.9-3.3-3-5.5s-1.9-3.8-2.2-4.4l-2.7,1.6l-0.2,0.6l-2.4,1.7c0,0.6-0.3,1.3-0.9,1.7l-1.1,0.2l-0.2,0.6
		l-0.5,0.3l-0.3,0.3l-0.9-0.3c-0.5-1.3-0.9-2.2-1.3-2.7c-0.3-0.5-0.3-0.8-0.2-1.3s0.3-0.9,0.6-1.9l0.6-0.2l1.1-1.6l2.1-0.2l3.8-3.6
		c-0.8-1.4-1.1-3-1.1-4.9l1.9,3.8l0.8-0.3l4-4.6c-2.5,0.3-4.9,0-7-0.8l-0.6-1.1l1.4-1.6c1.3-0.8,2.4-1.3,2.8-1.7
		c0.6-0.3,1.4-0.6,2.4-1.1c0.9-0.3,2.2-0.6,3.3-0.9c1.3-0.3,1.9-0.3,2.2-0.2c0.2,0.2,0.6,0.3,1.1,0.3l0.8,1.1l1.7,1.7l-0.3,0.8
		l0.6,0.9l-0.6,1.6l-3,2.1l-0.2,0.5c2.2-0.9,4.4-2.1,7-3.3c0.5-2.5,0.9-4.4,1.3-5.7c0.3-1.3,0.6-3,0.9-5.4c0.3-2.2,0.3-3.5,0.3-3.6
		s-0.2-0.3-0.5-0.6c-3.2,0.8-5.5,1.3-6.8,1.4c-1.4,0.2-4,0.8-7.6,1.6s-6,1.3-7,1.6c-0.9,0.3-1.9,0.5-2.7,0.6
		c-0.8,0.2-1.4,0.3-2.1,0.3l-0.6,0.5c-0.3,0-0.5,0-0.6,0s-0.5,0-1.1,0.2s-1.6,0.5-2.8,1.1l-0.9-0.5l0.9-3.2c0.9-0.3,1.6-0.5,1.9-0.8
		c0.5-0.3,0.9-0.3,1.4,0s1.9,0,4.1-0.8c2.2-0.8,4.3-1.4,6-1.9s3.2-0.9,4.3-1.3c1.1-0.5,2.1-0.8,3-0.9c0.9-0.2,1.6-0.3,2.1-0.5
		s1.7-0.5,3.6-0.8c2.1-0.3,4.7-0.9,7.9-1.7l0.3-4.3l1.3,1.3l0.6-0.2l1.6-3.2c-2.1,0.3-3.6,0.5-4.9,0.6c-1.3,0.2-2.4,0-3.5-0.6
		c-1.1-0.5-1.9-0.9-2.2-1.3c-0.3-0.3-0.6-0.6-0.9-1.1c-0.3-0.8-0.2-1.6,0.2-2.5l0.9,1.1c1.7,0,3.3-0.5,5.1-1.3c0,0,0.2,0.2,0.3,0.2
		c0.2,0,1.1-0.2,2.8-0.6c1.7-0.5,2.8-0.5,3.3-0.3s0.9,0.5,1.6,0.6l4.4-6.6l-0.3-0.6c-0.9-0.6-1.7-1.1-2.5-1.6
		c-0.8-0.3-2.1-0.9-4.1-1.6c-2.1-0.6-3.2-1.1-3.6-1.3s-0.9-0.5-1.4-0.9L262,203.1z M258.1,251.8c-2.1,1.1-4,2.2-5.8,3.6l-0.3,0.3
		c-2.2,1.4-4.4,2.8-6.5,4.4l2.2,3.3c0.9,0.9,1.7,1.6,2.2,2.1s1.1,0.8,1.9,0.9c0.8,0.2,1.3,0.3,1.4,0.2c0.2,0,0.5-0.2,0.8-0.5
		L258.1,251.8L258.1,251.8z M263.6,239.3l-1.1,7.7l0.5-0.2l0.3-1.3l0.6,0.8l4.4-2.1l-0.6-1.1l-3.8-3.6h-0.3V239.3z"/>
	<path class="st0" d="M328.2,276.1c0.3-0.3,0.5-0.8,0.6-1.1c0-0.2,0.2-0.3,0.3-0.3l0.3-0.8l0.8-1.7l1.3-2.2l2.8-4.7l2.2-3.2
		c0.6-1.9,0.8-3.5,0.6-4.9c0.2,0.2,0.2,0.2,0.5,0.2s0.3,0,0.5-0.2c0.3,0,0.6,0.2,1.1,0.5s0.8,0.5,0.9,0.5h0.2
		c0.5-0.2,0.6-0.2,0.6,0.2c0.2,0.2,0.3,0.3,0.5,0.5s0.3,0.3,0.5,0.5s0.3,0.5,0.5,1.3c0,0.6-0.5,1.6-1.4,2.7
		c-0.3,0.5-0.6,0.9-0.9,1.3l-2.2,2.5l-4.4,5.1c-1.6,2.1-2.8,3.6-3.8,4.6L328.2,276.1z"/>
	<path class="st0" d="M474.9,201.7c0.6,0.3,0.9,0.3,1.3,0.5c0.3,0,0.6,0.2,0.8,0.6c0.2,0.3,0.5,0.8,1.1,1.4l2.7,7
		c1.1,0,2.1,0.2,2.8,0.6v0.6l1.1,1.1l0.2,1.1l-2.4,1.6l6.2,20.7c2.1-1.9,4-4,5.5-6.3l0.8,0.5c-0.2,0-0.3,0.6-0.5,1.7
		c-0.2,1.1-0.5,2.2-0.8,3.2s-0.8,1.9-1.3,2.7s-0.9,1.3-1.3,1.4c-0.3,0.2-0.5,0.5-0.6,0.6c-0.2,0.2-0.3,0.5-0.8,0.8
		c1.1,6.8,2.7,13.3,4.7,19.6l0.3-0.6l0.6-0.3c0.6-2.4,1.3-4,1.6-4.9c0.3-0.8,0.6-1.6,0.8-2.5c0.2-0.8,0.5-1.6,0.8-2.2
		c0.3-0.6,0.5-1.3,0.5-1.7s0.2-0.9,0.5-1.3c0.2-0.3,0.5-1.1,0.6-2.1c-0.2,2.2-0.2,3.8-0.2,4.7s-0.2,2.2-0.5,4
		c-0.3,1.6-0.6,3.2-0.8,4.6c-0.2,1.4-0.6,3.2-1.1,5.2c-0.5,2.1-0.9,4.6-1.4,7.6s-0.3,5.2,0.2,6.6s0.6,2.2,0.3,2.7
		c-0.3,0.5-0.6,0.9-0.9,1.7c-0.9-0.5-1.7-0.8-2.5-1.3l-0.2-0.6c-1.3,0.3-2.2-0.2-2.7-1.3c0.2-0.2,0.3-0.3,0.5-0.6
		c0.2-0.2,0.3-0.8,0.5-1.6c0.2-0.8,0.5-2.1,1.1-3.6c0.6-1.7,0.8-2.7,0.6-3.2c-0.2-0.3-0.2-0.8,0-1.3s0.2-0.6,0-0.8
		c-0.2-0.2-0.3-0.3-0.5-0.5l0.5-0.6c-0.3-2.1-0.9-4.9-1.7-8.7c-0.9-3.8-2.2-8.5-3.8-14.5l-0.3-0.2l-5.2,5.8l-1.6,0.5l-0.9-1.1
		c0-0.6,0-1.1,0-1.4c0-0.3-0.2-0.8-0.2-1.6c0-0.6,0-1.3,0.2-1.6l0.6-0.3c0.6-0.6,1.1-1.3,1.4-1.6s0.5-0.6,0.6-0.9
		c0-0.3,0.2-0.8,0.5-1.4l0.3,1.1l0.6,0.3l2.7-2.8c-0.6-2.7-1.1-4.6-1.4-5.8c-0.3-1.1-0.8-2.5-1.1-4.3c-0.3-1.7-0.8-3.3-1.4-4.7
		c-0.5-1.4-1.3-4.1-2.1-7.9c-0.5,0.3-0.8,0.6-1.3,0.8s-0.9,0.3-1.3,0.3c-0.5,0-0.8,0.2-1.1,0.3c-0.3,0.2-0.8,0.2-1.1,0l-0.9,0.9
		l-0.8,0.3l-0.3-0.2c-0.9,0.6-1.7,1.1-2.4,1.4c-0.6,0.3-1.6,0.6-2.7,1.1c-1.1,0.3-3.2,1.1-6,2.1c0.2,0.6,0.3,1.3,0.6,1.4
		c0.2,0.3,0.3,0.8,0.2,1.4c-0.2,0.6-0.5,1.6-1.1,3c-0.6,1.3-0.9,2.2-0.6,2.8c0.2,0.6,0.5,1.4,0.8,2.5c1.4-0.9,2.5-1.7,3.3-2.2
		s1.6-0.9,2.4-1.7s1.6-1.1,2.1-1.3c0.6-0.2,1.1,0,1.4,0.2s0.6,0.3,0.9,0.5c0.3,0.3,0.5,0.6,0.6,0.8c0.2,0.2,0.3,0.3,0.2,0.3
		c0,0.2,0,0.3,0,0.5c-0.2,0.3-0.5,0.6-0.6,0.9c-0.2,0.2-0.6,0.8-1.3,1.7c-0.6,0.9-1.1,2.2-1.4,3.6c-0.3,1.4-0.8,3-1.3,4.6
		c-0.6,1.6-0.9,2.7-1.3,3c-0.3,0.3-0.5,0.6-0.3,0.9c0,0.2,0,0.6-0.5,1.3c-0.3,0.6-0.6,1.3-0.9,2.2s-0.5,1.4-0.6,1.4
		c-0.2,0.2-0.5,0.3-0.8,0.6c-0.6-0.6-0.9-1.1-1.1-1.4c-0.2-0.3-0.3-0.3-0.6-0.5c-0.2,0-0.5,0-0.6-0.2c-0.5-1.4-0.8-3.2-1.3-5.5
		c-0.3-2.2-0.5-3.8-0.3-4.6c-1.3,1.1-2.2,1.9-2.8,2.2c-0.6,0.5-1.1,1.1-1.4,2.1c-0.3,0.9-0.9,2.1-1.7,3.5c-0.8,1.3-1.3,2.2-1.6,2.5
		c-0.3,0.3-0.8,0.8-1.3,1.3l-0.9-0.8c-0.2-0.6-0.3-1.4-0.5-2.1c-0.2-0.6-0.2-1.3-0.2-1.9s0.2-0.9,0.2-1.3l0.9-0.5
		c0.6-0.8,1.1-1.6,1.4-2.1c0.3-0.6,1.1-2.1,2.4-4.6s2.4-4.6,3.2-6.5c0.8-1.7,2.1-4.6,3.6-8.5c-1.4,0.3-2.5,0.6-3.3,0.8
		s-1.7,0.3-2.5,0.3s-1.4,0-1.9-0.2s-0.9-0.3-1.3-0.6l-0.5-2.5l-0.6-0.3l0.6-0.2l0.8,0.8c0.6,0,1.3,0,1.9,0s3.3-1.1,8.4-3.2
		c4.9-2.1,7.9-3.3,9-3.6c0.9-0.3,1.7-0.5,2.1-0.8c0.3-0.2,0.9-0.5,1.7-0.8c0.8-0.3,2.2-0.9,4.1-1.9c-0.5-2.2-0.8-4-0.9-4.9
		c-0.2-0.9-0.5-1.7-0.8-2.2c-0.5-0.5-1.1-1.1-1.9-2.2L474.9,201.7z M460.3,233.6c-0.9,1.6-1.6,3.2-2.1,4.7l1.9-1.6L460.3,233.6
		L460.3,233.6z M467.9,234.4l-5.5,3.8c0.5,1.6,0.8,2.7,1.1,3.6s0.6,1.6,0.9,2.1h1.1c0.2-0.8,0.5-1.4,0.6-1.9
		c0.2-0.5,0.5-1.3,0.6-2.2c0.2-0.9,0.6-2.7,1.1-5.2L467.9,234.4z M506.2,202.3c1.1,0,2.1,0.2,2.5,0c0.5,0,0.9,0.2,1.3,0.5
		c0.3,0.3,0.8,0.8,1.6,1.4c0.3,1.3,0.6,2.1,0.8,2.5s0.2,0.8,0,1.1s-0.2,0.6-0.3,0.8c0,0.2,0,0.3,0.2,0.5l-0.8,0.9
		c-0.5,0-0.8,0.2-1.1,0.2s-0.9-0.3-1.6-0.8c-0.6-0.5-1.9-1.6-3.6-3l-1.7-2.5l-1.1-0.6l0.2-0.3L506.2,202.3z"/>
	<path class="st0" d="M589.9,212.1c0.9,1.1,2.2,2.1,3.6,2.8l-0.3,1.6l-1.4,1.1V217c-1.9,1.4-3.2,3-4.1,4.6l-0.5,0.3
		c-1.1,1.7-2.7,4-4.7,6.3s-4.1,5.1-6.2,7.6l-1.3,0.5l0.2,0.3l-0.6,0.8c1.1-0.3,2.4-0.6,3.6-0.9l0.3-0.5l1.1-0.2l0.5-0.5
		c3.2-1.3,6.3-2.4,9.6-3.6l0.6-0.5c0.6-0.2,1.3-0.3,1.9-0.5c0.5-0.2,1.4-0.5,2.8-0.9c1.3-0.5,2.1-0.8,2.4-0.8c0.3,0,0.5-0.2,0.9-0.3
		l0.6-0.6c2.4-0.5,4.7-1.3,7.1-2.2c0.5,0.2,0.6,0.3,0.8,0.3c0.2,0.2,0.3,0.3,0.6,0.5c0.3,0.3,0.6,0.6,1.1,1.3l0.3,0.8
		c-0.2,0.2-0.5,0.5-0.9,0.9c-0.5,0.5-0.9,1.3-1.1,2.2c-0.3,0.9-1.1,2.5-2.5,4.7s-3,4.7-4.6,7.7s-3.5,6-5.8,9.2
		c-2.2,3.2-4.1,5.4-5.4,6.8c-1.4,1.4-2.4,2.5-3,3.5c-0.6,0.9-1.7,2.7-3.3,5.2l0.6,0.2l-0.3,0.3c0-0.2-0.2-0.3-0.2-0.5
		s-0.3-0.2-0.5-0.2c-0.3,0-0.8,0-1.6,0s-1.6-0.2-2.4-0.5c-0.8-0.3-1.3-0.6-1.6-0.9s-0.8-0.6-1.3-0.9c-0.6-0.3-1.1-0.6-1.4-0.9
		c-0.5-0.3-1.1-1.1-2.1-2.1c-1.6-3.8-2.8-7.7-3.6-11.9l0.6-0.2l2.1,3.6c1.4,1.6,2.7,2.7,3.5,3.5c0.8,0.6,1.4,1.1,1.6,1.1l0.2,0.3
		c0.9,0.3,1.7,0.6,2.4,0.8c0.6,0.2,1.6,0.3,2.7,0.5c1.1,0.2,2.1,0.2,2.8,0c6-8.5,9.6-13.6,11.1-15.2c1.4-1.7,2.2-3.3,2.7-4.7
		c0.5-1.6,1.6-3.6,3.5-6.3c1.7-2.7,2.7-4.3,2.7-4.4s0-0.5,0-0.6c-2.8,1.1-6.8,2.5-12,4.4s-8.5,3.2-9.8,3.5c-1.3,0.5-3.3,1.3-6,2.4
		l-0.8,0.6c2.1,0.6,3.6,1.1,4.6,1.3s1.6,0.3,2.1,0.6c0.3,0.3,0.8,0.8,1.4,1.4c0.3,0.5,0.6,0.8,0.9,1.1c0.3,0.2,0.6,0.6,0.8,1.6
		c0.2,0.9,0,1.6-0.3,2.2c-0.3,0.6-0.6,1.7-1.1,3.2c-0.5,0-0.9-0.2-1.4-0.2c-0.5-0.6-0.6-1.6-0.8-2.4c0-0.9,0-1.6,0-1.9
		s-0.2-0.9-0.5-1.6c-1.9-1.6-3.3-2.8-4.1-3.5s-1.6-1.1-2.2-1.3s-0.9-0.2-1.4,0c-0.3,0.2-0.9,0.3-1.7,0.6c-1.6,1.9-3.6,4.4-6.5,7.4
		c-2.7,3-5.1,5.1-6.8,6.6l-8.4,6.3c2.5-2.4,4.3-4.1,5.4-4.9c1.1-0.9,2.1-1.9,3.2-3s2.2-2.4,3.3-3.6c1.1-1.3,3.2-3.8,6-7.4
		c-1.4,0.3-3.5,0.8-6.3,1.3s-5.5,0.5-8.4,0.2c-2.8-0.3-4.6-0.5-5.5-0.6c0.3,0,2.5-0.3,7.1-0.9c4.4-0.6,7.7-1.3,9.8-1.9
		c2.1-0.6,4.6-1.4,7.1-2.4c0.5-0.5,0.9-0.9,1.3-1.4c0.3-0.5,1.9-2.8,4.7-7.4c2.8-4.6,4.7-7.6,5.8-9.5l-0.2-0.3
		c-2.4,1.3-4.7,2.5-6.8,4.1c-0.8,0.6-1.3,1.1-1.7,1.6c-0.5,0.3-0.9,0.9-1.7,1.6c-0.6,0.6-1.3,1.4-1.7,2.4c-0.5,0.8-0.8,1.6-1.3,2.1
		s-0.8,0.9-0.8,1.4c-0.2,0.5-0.2,1.3-0.5,2.5l-1.3,1.1c-0.6,0-0.9,0.2-1.3,0.2c-0.3,0-0.6-0.2-0.9-0.6c-0.3-0.5-0.9-0.9-1.7-1.9
		c-1.9-3.2-3.3-5.4-4.3-6.6s-1.4-1.9-1.6-2.2c0-0.2,0-0.5,0-0.9l0.3,0.8c2.1,2.4,4.9,3.8,8.2,4.4c3-3.3,6.3-6.3,10.1-9
		c3.5-1.9,7-4,10.3-6c0.3-1.1,0.9-2.1,1.9-3h1.1L589.9,212.1z"/>
	<path class="st0" d="M682.5,224.1c0,0,0.3,0.2,0.6,0.6c0.3,0.5,0.6,0.8,0.9,0.8c0.3,0.2,0.6,0.3,0.8,0.6s0.5,0.5,0.8,0.6
		c0.3,0.2,0.6,0.3,1.1,0.8l-0.2,0.3l0.2,0.3l-0.9,0.5l-0.5,0.6l-0.8,0.3l-0.2-0.3l-1.7,0.6c-0.5,0.5-0.9,0.9-1.3,1.3l-0.8,0.2
		l-0.9,1.3c-0.6,0.3-1.1,0.6-1.6,0.9c-0.2,0.2-0.2,0.3-0.3,0.5c-0.2,0.2-0.5,0.3-0.8,0.8c-0.5,0.3-0.9,0.9-1.6,1.6
		c-0.6,0.6-1.7,1.6-3.5,2.7c-1.7,1.1-3,2.7-3.6,4.6c-0.6,1.9-1.4,3.5-2.2,5.1c-0.8,1.4-1.3,2.2-1.4,2.4c-0.2,0.2-0.3,0.3-0.5,0.3
		c0.6,0.3,1.1,0.6,1.6,0.9c0.5,0.2,1.6,0.6,3.3,1.3c1.7,0.6,4,1.3,6.3,1.9s3.8,1.1,4,1.3c0.3,0.2,0.6,0.3,0.8,0.3
		c0.3,0,0.6,0,0.9,0.2c0.3,0.2,0.9,0.3,1.7,0.3c0.8,0.2,2.2,0.5,4.1,1.1c1.9,0.6,3.3,1.1,4.1,1.4s1.4,0.5,1.7,0.3
		c0.5-0.2,0.8,0,0.9,0.3c0.2,0.3,1.1,0.6,2.5,0.8c1.4,0.2,2.2,0.2,2.5,0.2s0.3,0,0.5,0c0,0.2,0.2,0.2,0.3,0c0.2,0,0.3,0,0.5,0
		s1.3,0.2,3,0.2s3.6,0.2,5.5,0.3c1.7,0.2,2.7,0.3,2.8,0.5c0.2,0.2,0.3,0.2,0.5,0.3c-0.2,0-0.3,0.2-0.5,0c-0.2,0-0.6,0.2-1.3,0.5
		c-0.6,0.3-1.4,0.5-2.1,0.5c-0.8,0-1.7,0-3.3,0.2c-1.4,0.2-5.8,0.2-13,0V264c-0.2,0.2-0.3,0.2-0.5,0.3c-0.2,0-0.5,0.2-0.9,0
		c-0.5,0-1.4,0-2.7,0.2s-2.4,0.2-3.5,0.2s-2.4-0.2-3.8-0.3c-1.4-0.2-3.2-0.6-5.5-1.6c-2.4-0.9-4.3-1.9-6-3s-2.8-1.7-3.5-1.7
		c-0.5,0-0.9-0.3-1.4-0.6c-0.3-0.3-1.1-0.9-2.2-1.7c-2.7,3.3-5.7,6.3-8.8,9.2c-1.6,0.9-2.7,1.7-3.3,2.4c-0.6,0.5-1.3,0.8-1.7,0.8
		s-0.9,0-1.4,0s-0.9,0.2-1.7,0.3c1.3-0.5,2.7-1.1,4.1-2.1l1.6-1.4l0.8-0.2c1.4-1.6,2.7-2.7,3.3-3.3c0.8-0.6,1.4-1.4,2.1-2.2
		s1.7-2.2,3.5-4.3c-0.3-0.3-0.6-0.5-0.8-0.6c-0.2-0.2-0.3-0.5-0.8-0.9c-0.3-0.5-0.6-0.8-1.1-0.9c-0.3-0.2-0.8-0.5-1.4-0.8v0.3
		l-0.9,0.6l-1.1-1.3c-0.2-0.5-0.3-0.8-0.5-0.8c-0.2-0.2-0.2-0.3-0.2-0.5c0.2-0.2,0.2-0.5,0-0.8s-0.3-0.8-0.6-1.6
		c-0.3-0.6-0.3-1.4,0-2.1c0.3-0.6,0.5-2.7,0.3-6.2s-0.2-5.2-0.3-5.4c-0.2-0.2-0.3-0.3-0.3-0.6c0-0.2,0.2-0.2,0.2-0.3
		c0.2,0,0-0.5-0.2-1.1s-0.3-1.9-0.5-3.6l0.5,0.8h0.5c0.3,0.5,0.5,0.8,0.8,1.3s0.6,1.6,1.1,3.6s0.8,4,0.8,5.5c0,1.6,0.2,3,0.5,4.1
		c0.2,1.1,0.3,1.7,0.3,2.1c0,0.3,0,0.5,0,0.6c0,0.2,0.2,0.2,0.3,0.3l0.8-0.3l0.2,0.2c0.2,0,0.5,0.2,0.6,0.2c0.2,0,0.6-0.2,1.4-0.6
		c0.8-0.5,1.7-1.1,2.7-1.9c1.1-0.8,2.7-2.1,5.1-4l0.5-1.7c-0.3,0-0.6,0.3-1.1,0.5c-0.5,0.3-1.3,0.6-2.2,0.9
		c-0.9,0.3-1.7,0.6-2.5,0.8s-1.3,0.2-1.7-0.2c-0.3-0.2-0.9-0.5-1.7-0.8c0.2,0,0.6,0,1.6-0.2s4-1.7,9.3-4.7c0.3-0.6,0.5-1.4,0.6-2.2
		c-1.7,0.3-3,0.5-3.8,0.6c-0.8,0.2-1.6,0.2-2.2,0.2s-0.9-0.2-1.3-0.3c-0.2-0.2-0.5-0.3-0.8-0.3s-0.6,0-1.1-0.2
		c0.6,0,1.4-0.3,2.5-0.6s2.1-0.6,3-0.8s2.4-0.6,4.3-1.3c0.2-0.6,0.2-1.1-0.3-1.6l1.1-1.4l2.4-0.9c0.5,0.3,0.8,0.6,1.1,0.9
		c-0.6,0.6-0.8,1.4-0.8,2.1c1.6-0.6,2.8-0.9,3.5-0.9c0.8-0.2,1.4-0.3,2.1-0.6c0.6-0.3,1.1-0.6,1.6-0.8s0.8-0.3,0.9-0.3
		c0.2-0.2,0.3-0.3,0.6-0.3L682.5,224.1z M662.9,212.9c0.6,0.3,1.3,0.6,1.6,0.8s1.1,0.3,2.4,0.3c1.3,0.2,2.4,0.3,3.5,0.8
		s2.2,0.6,3.2,0.6c1.1,0,2.2,0,3.5,0c1.1,0,2.2,0,3.3,0.2c0.9,0.2,1.7,0.2,2.1,0.2c0.3,0,0.6,0,0.9,0.3c0.3,0.3,0.8,0.6,1.6,1.1
		l0.2,0.8c0.5,0.3,0.9,0.5,1.4,0.8c0,0.2,0,0.3,0,0.3c0,0.2,0,0.2,0,0.3c0,0.2-0.2,0.5-0.5,0.8l0.2,0.2l-0.2,0.6
		c-0.5,0.2-0.9,0.3-1.6,0.6l-0.2-0.3l-0.5,0.5c-0.3,0-0.6,0-0.9-0.2c-0.2,0-1.6-0.6-4-1.7c-2.4-1.1-4-1.6-4.4-1.6s-1.3-0.2-2.2-0.3
		c-0.9-0.3-2.2-0.8-3.8-1.4c-1.6-0.6-2.5-1.3-2.8-1.9c-0.3-0.6-0.8-0.9-1.4-0.9c-0.5,0-0.9-0.2-0.9-0.3
		C663.2,213.4,663.1,213.2,662.9,212.9z M664.5,244.3c-2.2,0.9-4.1,2.2-6,3.8l-0.2,0.5l3.5,1.9c0.6-1.1,1.1-1.9,1.4-2.4
		c0.3-0.5,0.5-0.9,0.6-1.4C663.9,246.2,664.2,245.4,664.5,244.3L664.5,244.3z M676.2,230c-0.9,0.2-1.7,0.3-2.1,0.3
		c-0.5,0-0.6,0-0.8,0.2c-0.2,0-0.3,0.2-0.6,0.3v0.6c0.9-0.2,2.1-0.3,3.2-0.3l0.6-0.8L676.2,230z"/>
	<path class="st0" d="M772.1,205.6c0.6,0,1.1,0.2,1.4,0.2c0.3,0,0.6,0.2,0.8,0.3c0.2,0.3,0.3,0.6,0.8,1.1c0,1.1,0,1.9,0.2,2.5
		c0,0.6-0.2,1.4-0.6,2.7c-0.5,1.1-0.8,2.2-0.9,3.2c-0.2,0.9-0.5,1.9-0.8,2.7s-0.9,2.4-1.7,4.7c1.9-0.2,3.6-0.6,5.5-1.3
		c0.3-0.8,0.5-1.4,0.6-1.7c0.2-0.3,0.3-0.6,0.2-0.8s-0.2-0.3-0.2-0.8c0.5-0.2,0.8-0.3,1.1-0.5s0.5-0.2,0.8-0.2
		c0.3,0.2,0.5,0.3,0.6,0.5c0.2,0.2,0.3,0.5,0.8,0.6l-0.5,2.1c0.5,0,1.3-0.2,2.4-0.6c1.1-0.3,2.1-0.8,2.5-1.3
		c0.5-0.5,1.3-0.9,2.4-1.6c-0.3,0.3-0.5,0.6-0.6,0.8c-0.2,0.3-0.5,0.8-1.3,1.4c-0.6,0.6-1.4,1.4-2.4,2.2c-1.7,0.9-3.3,1.7-4.9,2.7
		c-1.3,2.5-1.9,4.3-2.4,5.2c-0.3,0.9-0.9,1.9-1.6,2.7c-0.6,0.9-1.1,1.7-1.3,2.5s-0.6,1.6-1.3,2.4c-0.6,0.8-1.4,2.1-2.2,3.6
		c-0.8,1.7-1.6,3-2.2,4c-0.6,0.9-1.1,1.6-1.3,2.1c-0.3,0.5-0.5,0.8-0.6,1.1c-0.2,0.3-0.5,0.6-0.9,1.1c0.2,0.5,0.6,1.3,1.3,2.2
		c0.6,0.9,1.6,2.2,2.7,3.8l0.3-0.3c0.5,0.3,0.8,0.5,1.1,0.5c0.3,0.2,0.5,0.3,0.6,0.5c0.2,0.3,0.5,0.6,0.8,1.1l-0.2,1.1l-1.3,1.1
		c-0.9-0.3-1.7-0.6-2.4-0.8s-1.1-0.5-1.6-0.9c-0.5-0.5-0.9-0.8-1.4-0.8c-0.5-0.2-0.8-0.3-1.1-0.6c-0.3-0.3-0.8-0.9-1.6-1.6
		c-0.3,0.6-0.6,1.1-0.9,1.6c-0.3,0.5-1.4,2.4-3.6,5.5c-2.2,3.2-4.1,5.8-5.8,7.7c-1.7,2.1-2.8,3.2-3.5,3.6c-0.6,0.5-1.4,1.1-2.7,2.1
		l-2.1,0.9c0.5-0.3,0.8-0.6,1.1-0.8c0.3-0.2,0.9-0.8,2.1-1.9s2.5-2.8,4.4-5.4c1.9-2.5,3.5-4.6,4.6-6.5s2.7-4.7,4.9-8.7l-2.4-3.3
		L757,250l-1.4-1.6c-0.3-0.8-0.3-1.3-0.3-1.6s0-0.5-0.3-0.6c-0.2-0.2-0.3-0.5-0.2-1.1c0-0.6,0.2-0.9,0.5-1.3
		c0.2-0.3,0.5-0.8,0.8-1.3l2.7-2.1c1.6-2.5,2.8-4.4,3.5-5.5c0.8-1.1,1.3-2.1,1.7-3c0.5-0.9,1.3-2.5,2.4-4.9c-2.4,0.2-4,0.2-5.1,0.2
		s-2.1-0.2-2.8-0.3c-0.8-0.2-1.9-0.5-3.5-0.9l-0.5-0.8c0.3,0.2,0.6,0.3,0.9,0.3c0.3,0,1.1,0,2.2,0s2.4-0.2,3.8-0.5s3.5-0.8,6.2-1.3
		c1.4-4.1,2.5-7,3.3-8.7s1.4-3.3,1.9-5.1c0.5-1.7,0.6-2.7,0.3-3C772.9,206.7,772.4,206.3,772.1,205.6z M774.7,225.2
		c-1.9,0.2-3.5,0.6-5.2,1.6c-0.5,0.8-0.8,1.4-0.9,1.9c-0.2,0.5-0.5,0.8-0.6,1.3c-0.2,0.5-0.5,0.9-0.6,1.4c-0.3,0.5-0.5,0.9-0.6,1.4
		c-0.2,0.5-0.5,0.9-0.8,1.4s-1.1,1.7-1.9,3.5c-0.9,1.9-2.1,4.1-3.3,6.6l3.2,3.2c1.7-3.3,3-5.5,3.6-6.8c0.6-1.1,1.1-2.1,1.4-2.7
		c0.2-0.6,0.5-1.3,0.9-2.1c0.5-0.6,0.9-1.6,1.6-3C771.7,231.7,772.9,229,774.7,225.2z M793.5,211.8c0.2,0,0.6,0,1.6,0.2
		s1.6,0.6,2.1,1.3c0.5,0.6,1.1,1.7,2.1,3c0.2,0.8,0.2,1.4,0.3,1.7c0.2,0.5,0,1.3-0.6,2.5c-0.5,1.3-1.1,2.8-2.1,4.3
		c-0.8,1.6-1.6,3.2-2.1,4.6c-0.5,1.6-0.9,2.7-1.4,3.3c-0.3,0.6-0.6,1.3-0.6,1.7c0,0.6,0,0.9,0,1.3l2.1,1.6c1.4-0.5,2.7-0.9,3.8-1.4
		s3.3-1.1,6.5-1.9c3.2-0.8,4.7-1.3,4.9-1.1s0.3,0.2,0.5,0.2v0.5c-0.8,0.5-1.4,0.8-1.9,1.3l-0.5-0.2l-5.1,3.2l-1.4,1.3l2.1,0.8
		c0.5,0.8,0.8,1.4,1.1,1.6c0.3,0.3,0.5,0.8,0.6,1.4c0.2,0.6,0,1.6-0.5,2.5c-0.5,1.1-1.3,1.9-2.4,2.7c-1.1,0.6-2.7,2.1-4.9,4
		l-0.5-0.3l-0.5,0.3l-1.9,1.3l-2.2,2.1l-0.6,0.2l-0.6,0.8l-4,3l-0.9,0.6c-1.4,0.8-2.5,1.4-3.3,1.9s-1.6,0.6-2.4,0.6
		c-0.8-0.2-1.4-0.3-1.7-0.6c-0.3-0.3-0.6-0.6-1.1-1.1c0-0.6,0-0.9,0-1.3c0-0.3-0.2-0.6-0.3-0.9c-0.3-0.3-0.5-0.9-0.5-1.9
		c-0.2-0.9-0.5-1.6-0.9-2.2c-0.5-0.6-1.1-1.6-1.9-3l-2.4,0.2c-0.2-0.3-0.2-0.6-0.2-0.8s0.2-0.5,0.5-0.9c0.3-0.5,0.8-1.4,1.4-2.8
		c0.5,0,0.8-0.2,0.9-0.3c0.2-0.2,0.5-0.3,0.8-0.3s0.6-0.2,1.1-0.3c0.3-0.2,0.8-0.3,1.4-0.5s1.6-0.5,3.2-1.4c1.6-0.8,4.1-2.1,7.6-4
		c-0.2-1.4-0.3-2.4-0.3-3c-0.2-0.6,0-1.9,0.5-3.6c0.5-1.7,1.6-4.6,3.5-8.4c1.7-3.8,2.7-6,2.7-6.5s0-1.1,0-1.6
		c-0.5-0.2-1.1-0.6-2.1-1.4s-1.6-1.1-1.9-1.1s-0.6,0-0.9,0c0.2-0.6,0.5-1.4,1.1-2.1L793.5,211.8z M791.6,244.3
		c-0.6,0-1.3,0.2-1.9,0.5c-0.6,0.3-2.1,1.1-4.6,2.1c-2.4,1.1-5.1,2.4-8.2,3.8c0,0.2-0.2,0.3-0.2,0.5s0.2,0.6,0.3,1.4
		c0.3,0.8,0.5,1.4,0.6,2.1c0.2,0.6,0.3,1.1,0.6,1.4c0.3,0.5,0.6,1.1,1.3,1.9l1.4,0.8c0.5-0.3,0.9-0.5,1.6-0.6l0.9-1.3l0.3,0.3
		l0.9-0.9l1.7-1.3c3-2.8,5.2-4.9,6.6-5.8c1.3-0.9,2.2-1.7,2.5-2.2s0.9-0.9,1.4-1.6c-0.6,0-1.1,0-1.4,0c-0.3,0-0.8-0.2-1.4-0.3
		C793.9,245.1,793,244.8,791.6,244.3z"/>
	<path class="st0" d="M862.2,212.9c0.2,0,2.4,0.3,6.3,0.9c4.1,0.6,7,0.9,8.5,1.3c1.6,0.3,2.7,0.6,3,0.9c0.5,0.3,0.9,0.6,1.6,1.3
		l0.8,3.2l-0.3,0.2l-0.3,1.3l-0.8,0.3c-0.6-0.3-1.3-0.6-1.6-0.9c-0.5-0.3-1.9-0.9-4.4-1.7s-4.6-1.7-6.5-2.5s-3.2-1.4-3.8-2.1
		S863.2,213.8,862.2,212.9z M902,209.6c0.2,0.3,0.5,0.5,0.8,0.6c0,0.5-0.2,0.9-0.3,1.4c-0.2,0.5-0.8,1.4-2.2,3.3
		c-1.4,1.7-2.8,3.5-4.3,4.9c-1.4,1.6-2.4,2.4-2.5,2.5c-0.3,0.2-0.6,0.5-0.9,0.8l0.2,0.2c3.2-0.8,6.3-2.1,9.5-3.6l0.3-1.4l0.5-0.2
		l2.7-2.2c0.3,0,0.6,0.2,0.8,0c0.2,0,0.3,0,0.5,0.2s0.3,0.3,0.6,0.5l0.9,2.2l-0.5,0.6l0.6,0.5l-1.1,0.8l-1.3,0.6
		c-0.6,0.5-1.1,0.9-1.6,1.1c-0.5,0.3-0.9,1.4-1.3,3.5c-0.3,2.1-0.8,4.3-1.3,6.8s-0.9,5.5-1.9,9c-0.8,3.5-1.9,6.8-3,9.8
		s-2.2,5.5-3.3,7.7s-2.1,4-3.2,5.5c-1.1,1.6-1.9,2.7-2.5,3.2s-1.7,1.6-3.3,3c-0.8,0.6-1.3,0.9-1.7,1.3s-1.3,0.5-2.4,0.8
		c-1.1,0.3-1.7,0.5-1.9,0.5s-0.3-0.2-0.6-0.3c-0.9-1.3-1.7-2.2-2.1-2.8c-0.5-0.5-0.8-1.4-1.1-2.5c-0.3-1.3-0.5-2.4-0.6-3.5
		c-0.2-1.1-0.3-2.1-0.6-2.7c-0.2-0.6-0.6-1.7-0.9-3.3c1.1,2.4,2.5,4.6,4.3,6.5c0.9,1.1,1.7,1.9,2.2,2.4s0.9,0.8,1.4,0.9
		c0.5,0.2,1.1,0.3,2.1,0.6l1.3-0.6c1.1-1.1,2.1-2.1,2.7-2.7c0.6-0.6,1.7-1.9,3.2-4c1.4-1.9,2.7-4,3.5-5.8c0.9-1.9,1.4-3.3,1.7-4.3
		c0.3-0.9,0.8-2.4,1.4-4.1H896l-0.9-1.9c-2.2-0.9-4-1.6-5.2-2.1c-1.3-0.5-2.7-0.9-4.1-1.6c-1.4-0.6-2.5-1.3-3.6-1.9
		c-0.9-0.6-1.6-1.1-1.9-1.3s-0.6-0.5-0.9-0.9c1.3,0,2.2,0,3-0.2c0.8,0,1.6,0,2.7,0.3c0.9,0.3,2.1,0.5,3.2,0.8
		c1.1,0.2,2.5,0.5,4.3,0.9c1.6,0.5,3,0.9,4,1.6c0.9,0.6,1.6,0.9,1.6,0.9c2.1-10.1,3-15.5,3-16.1c-0.2-0.6-0.2-1.4-0.2-2.2
		c-4.9,1.9-9.8,3.6-14.5,5.2l-5.8,5.4l-2.4,1.6c0.2-0.5,0.2-0.9,0-1.3c-0.8,1.3-1.4,2.2-1.9,2.7c-0.5,0.6-0.8,1.4-1.1,2.7
		c-0.3,1.1-0.6,2.7-0.9,4.7c-0.3,2.1-0.6,4-1.1,5.8c-0.5,1.9-0.9,3-1.3,3.6c-0.3,0.6-0.6,1.3-1.1,2.4l-1.1-2.8h0.8l0.6-1.7l1.3-9
		c-2.1,2.7-3.6,4.6-4.6,6c-0.9,1.3-2.5,2.8-4.4,4.6c-1.9,1.7-3,3-3.2,4c-0.2,0.9-0.5,1.4-0.8,1.6s-0.6,0.3-0.6,0.5
		c-0.2,0.2-0.3,0.5-0.6,0.9l-0.8-1.1l-1.9,5.4c-0.2-0.3-0.6-1.3-0.9-3.2c-0.5-1.7-0.5-3,0-4c0.5-0.9,0.8-1.6,0.9-2.1
		c0.2-0.5,0.3-1.3,0.6-2.5l0.5,0.2c0.3-2.2,0.6-4.1,1.1-5.7c0.3-1.4,1.1-4.6,2.2-9.2c1.1-4.6,1.7-7.6,1.9-9.2c0-1.4,0.2-3.3,0.3-5.5
		c0,0.9,0.2,1.6,0.3,1.9c0.2,0.3,0.3,0.8,0.5,1.6s0.2,1.9,0,3.3c-0.2,1.4-0.6,3.5-1.3,6.2c-0.6,2.7-0.8,4.1-0.6,4.4l0.2-0.5
		c3.8-2.4,7.6-3.5,11.5-3.2l-0.6,2.1c-1.7,1.1-3,1.9-3.6,2.4s-1.3,0.8-1.6,0.8s-0.6,0.2-1.1,0.3c-0.5,0.3-1.1,0.5-2.1,0.6
		c-0.9,0.2-1.6,0.3-2.1,0.5s-1.1,0.3-2.1,0.5l-1.6,9h1.1l0.5-0.5l0.6-0.2l1.4-1.7l-0.2,0.6l1.4-1.1c1.6-1.6,2.7-2.7,3.3-3.3
		s1.3-1.3,2.1-1.7c0.8-0.5,1.4-1.1,1.7-2.1c0.3-0.8,0.9-1.6,1.9-2.5c0.9-0.8,1.4-1.7,1.6-3c0.2-1.1,0.3-2.1,0.2-2.5
		c0-0.6,0-1.4,0.2-2.5c-1.7,0.6-3,1.3-3.8,1.6c-0.9,0.3-1.4,0.3-1.9,0.2c-0.3-0.2-0.6-0.2-0.9-0.2c-0.3,0-0.8,0-1.4-0.2
		c0.3,0,0.6-0.2,0.9-0.3c0.2-0.2,0.8-0.5,1.9-1.3c0.9-0.6,2.7-1.9,5.1-3.5c0.2-0.6,0.2-0.9,0.2-1.3s0.3-0.5,0.6-0.8s0.8-0.8,1.4-1.6
		l1.1-0.5l3,1.6l0.3,1.6l0.8,0.6l6.2-7c-1.4,1.6-2.5,3.2-3.6,4.9l2.5-1.3c3-3.2,5.1-5.4,6.3-6.5c1.3-1.3,2.1-2.2,2.5-2.8
		c0.5-0.6,1.1-1.7,2.1-3l-0.2-0.3c0.9-0.8,1.6-1.7,1.9-2.8C900.1,210.5,901.1,210.2,902,209.6z M879.7,229.8
		c-0.9,0.8-1.6,1.6-1.9,2.5c0.9-0.5,1.7-1.4,2.2-2.5H879.7z"/>
	<path class="st0" d="M991.3,204l2.2,3l-0.6,1.9l-1.4,0.3l-3.8,3.3c-1.6,0.6-3,1.6-4.3,2.5c-1.3,4.4-2.1,7.4-2.5,9.2
		c-0.5,1.7-0.9,3.5-1.6,5.2c-0.6,1.7-0.9,2.7-0.9,3s0,0.6,0,1.1c2.5-0.9,4.7-1.9,6.5-2.7c1.9-0.8,3.2-1.3,3.8-1.3s1.1,0,1.3,0.2
		s0.3,0.5,0.8,0.6c0,0.5-0.2,0.9,0,1.1c0,0.3,0,0.5-0.2,0.6c-0.2,0.2-0.5,0.5-0.9,0.8l-5.4,1.9l-0.5,0.6c-0.3,0-0.6,0-0.9,0.2
		c-0.3,0.2-0.6,0.2-1.1,0.3c-0.5,0-1.1,0.2-2.1,0.5c-0.9,0.3-1.9,0.5-2.8,0.8c-1.1,2.4-1.9,4.7-2.4,7c0.9-0.5,1.7-0.8,2.4-1.1
		c0.6-0.3,2.1-0.8,4.1-1.9c2.1-0.9,3.5-1.4,4.1-1.3c0.6,0.2,1.3,0.2,1.9,0.2l0.2,1.3l-1.3,1.1c-3.8,1.9-7.3,3.8-10.7,6
		c-0.8,0.6-1.4,1.3-1.9,1.6s-0.8,1.1-1.1,2.4c-0.2,1.3-0.8,3.5-1.7,6.5l6.5-2.1c0-0.3,0.2-0.5,0.3-0.8c0.2-0.2,0-0.5-0.2-0.9
		c-0.2-0.5-0.5-1.3-0.8-2.5l1.6,3.6c2.5-0.5,5.1-1.1,7.6-2.1v0.2c-1.1,0.8-2.1,1.4-3.2,2.1l-0.5,0.3l-0.9,0.3l-1.9,1.7
		c0.8,2.5,2.1,4.7,3.6,6.8c0.8,0.3,1.3,0.6,1.6,0.9c0.3,0.2,0.5,0.3,0.6,0.3c0.2,0,0.2,0,0.3-0.2c3.2-12.3,4.9-20.7,5.5-25.3
		c0.5-4.4,2.2-12.6,5.1-24.5c-2.7-0.2-4.7-1.1-6.2-3c1.6,0,2.7,0,3.5,0s1.7-0.2,2.5-0.6c0.9-0.5,1.4-0.8,1.6-0.6
		c0.2,0,0.5,0.2,0.8,0.2l0.6,0.8l1.9,1.9v1.7l-0.8,0.3c-0.3,0.3-0.6,0.5-0.8,0.6c-0.2,0.2-0.5,0.5-0.8,1.1s-0.3,1.1-0.3,1.6
		s-0.2,0.9-0.6,1.6c-0.5,0.6-1.1,3.2-1.9,7.6c-0.8,4.4-1.3,7.3-1.4,8.2c-0.2,1.1-0.3,2.5-0.8,4.6c-0.5,1.9-0.8,4-1.1,5.8
		c-0.3,1.9-0.8,4.1-1.4,6.6c-0.6,2.5-1.1,4.7-1.4,6.8c-0.3,2.1-0.6,3.3-0.8,3.8s-0.3,0.8-0.2,1.1c0,0.3,0,1.1-0.3,2.4
		s-0.6,2.2-1.1,2.7s-0.9,1.1-1.6,2.1l-1.3,0.6l-1.4-1.3c-0.6-1.3-1.1-2.2-1.4-2.7c-0.3-0.6-0.8-1.3-1.1-2.4
		c-0.5-0.9-0.5-1.9-0.5-2.5c0.2-0.8,0-1.4-0.3-2.1c-0.3-0.6-0.6-2.1-1.3-4.3c-0.8,0.3-2.1,1.1-4,2.4s-3.5,2.4-4.9,3.3
		c-0.2,0.6-0.3,1.1-0.3,1.4s-0.3,0.8-0.8,1.6c-0.5,0.8-0.9,2.2-1.7,4.4h-0.8c-0.5-0.8-0.8-1.3-0.8-1.6c-0.2-0.3-0.3-0.6-0.3-0.9
		c-0.2-0.3-0.2-0.6-0.2-0.8c0-0.2,0-0.5-0.3-0.9c-1.1,0-2.1-0.3-2.5-1.1l0.2-0.6l-1.3-0.5c0-0.9,0.3-2.1,0.8-3.2l3-1.6l0.2,0.9
		l2.1-0.8l1.9-5.8l0.2,2.7l0.5-0.2c0.9-3.3,1.7-5.7,2.2-7s0.6-2.2,0.3-2.7s-0.3-0.9-0.3-1.4c0-0.3,0.2-0.9,0.5-1.9
		c0.5-0.3,0.8-0.6,1.1-0.8c0.3-0.3,0.6-0.8,0.9-1.7c0.3-0.9,0.5-1.7,0.6-2.4c0.2-0.6,0.5-1.6,0.8-3c-1.6,0-2.7-0.5-3.3-1.6
		c1.3,0.6,2.7,0.3,4.3-0.8c1.9-5.8,3.8-11.9,5.5-17.9l-2.4,1.6l-0.5-0.2l-0.3,0.6l-1.9,0.6l-0.5,0.5c-2.8,1.4-5.5,2.8-8.2,4.3
		c0.3-0.9,0.9-1.9,1.9-2.8l2.2-0.8c3.2-2.4,6-4.9,8.7-7.7l-0.6,1.1l2.7-2.2l-0.2-0.3c0.2,0,0.3,0,0.6-0.2c0.2-0.2,0.8-0.5,1.6-1.3
		c0.9-0.6,2.4-1.9,4.4-3.5l1.7-2.1v-1.1L991.3,204z"/>
	<path class="st0" d="M1088.7,214.8c0.2,0,0.3,0,0.5,0s0.5,0.2,1.1,0.5s1.4,0.9,2.7,1.6l0.3,0.8c-1.7,1.3-3.3,2.7-4.7,4l-0.8,0.5
		c-0.2,0.2-0.2,0.3-0.3,0.6c-0.2,0.2-0.6,0.8-1.7,1.7s-1.9,1.9-2.4,2.5c-0.6,0.6-1.3,1.6-2.1,2.7h-0.3c-0.6,0.8-1.3,1.6-2.1,2.2
		l0.6,0.5v0.9l0.9,0.2v0.5l-0.9,1.1l-0.9,0.3l-0.2,0.3c-1.3,0.8-2.2,1.3-3.2,1.9c-0.9,0.6-4.4,2.1-10.4,4.6
		c-0.2,0.3-0.3,0.5-0.5,0.6c-0.2,0.2-0.3,0.3-0.5,0.5s-0.2,0.9-0.3,2.4c-0.2,1.3-0.2,2.4,0,3s0.3,1.3,0.5,1.6s0.5,0.9,0.9,1.9
		c0.5,0.5,1.4,1.1,2.8,2.1c1.4,0.9,3.2,1.6,4.9,2.1c1.7,0.5,4,1.1,6.8,1.6c2.8,0.6,5.4,0.9,7.7,0.9c2.4,0.2,3.5,0.2,3.6,0.2
		c0.2,0,0.2,0.2,0.3,0.2c0.2-0.2,0.3-0.5,0.3-0.6c0-0.3,0.2-0.6,0.3-0.8c0.2-0.2,0.3-0.6,0.3-0.9s0.3-0.6,0.5-0.8c0-0.3,0-0.6,0-0.6
		c0-0.2,0-0.2,0.2-0.3c0.2-0.2,0.2-0.3,0.3-0.5l-0.3-0.5c0.3-0.5,0.6-1.1,0.8-1.9s0.3-1.4,0.5-1.9c0-0.5,0.2-0.9,0.3-1.3
		c0.2-0.3,0.2-0.8,0.2-0.9c0-0.3,0-0.5,0.2-0.8s0.2-0.5,0.2-0.8s0-0.6,0.2-0.8c0.2-0.3,0.3-0.8,0.6-1.4h1.7c0,0,0,0.5,0,0.6
		c0,0,0,0.2,0,0.3c0,0.2,0.2,0.6,0.2,1.6c0,0.9,0,1.7-0.2,2.7c-0.2,0.8-0.2,1.4-0.2,1.6c0,0.3,0,0.6,0,0.9c-0.2,0.3-0.2,0.9,0,1.6
		c0.2,0.6,0.2,1.3,0,1.6c0,0.5-0.3,3.3-0.3,3.3h1.1c0,0.5,0,0.8,0.2,0.9c0,0.2,0,0.3,0,0.8c0,0.3,0.3,0.9,1.1,1.9
		c0.8,0.8,1.1,1.3,1.1,1.4s-0.2,0.3,0,0.5l-1.4,1.4l-1.6,0.6l-0.2-0.2c0,0-1.6-0.2-4.6-0.2s-5.7-0.3-8.1-0.9
		c-2.4-0.5-4.3-0.8-5.8-0.9c-1.6-0.2-3.2-0.5-4.7-0.9c-1.6-0.5-2.7-0.8-3-1.1c-0.5-0.2-0.8-0.3-1.1-0.3c-0.3,0-1.4-0.5-3.3-1.6
		s-3-1.7-3.5-2.2s-1.1-1.1-1.9-1.9c-0.5-1.1-0.9-1.9-1.3-2.4c-0.3-0.5-0.6-1.4-0.9-2.8c-0.3-1.4-0.3-2.8,0-4.6
		c0.3-1.7,0.3-2.8,0-3.2c-0.3-0.3-0.5-0.9-0.8-1.6c0.2,0,1.1,0,1.3,0s0.3-0.2,0.6-0.3c0.3-0.3,0.6-0.5,1.4-0.5
		c0.6,0,2.1-0.8,4.4-2.2c2.2-1.4,4.1-2.5,5.5-3.5c1.4-0.8,2.5-1.3,3-1.6c0.6-0.2,1.3-0.5,2.1-0.6c0.6-0.9,1.1-1.6,1.4-1.9
		c0.3-0.3,0.6-0.6,0.9-0.9c0.3-0.3,0.6-0.8,0.8-1.3c0.3-0.6,0.9-1.7,2.2-3.3c1.3-1.6,1.9-2.5,2.1-2.8c0-0.2,0.2-0.5,0.2-0.8
		c-1.4,0.3-2.5,0.5-3.3,0.6c-0.6,0.2-1.3,0.3-1.6,0.5s-0.6,0.3-0.9,0.3s-0.6,0.2-1.3,0.3l-0.8,0.6c-0.8,0.2-1.6,0.3-2.2,0.3
		c-0.6,0.2-1.6,0.3-2.8,0.8c-1.3,0.3-2.2,0.6-3,0.5c-0.8,0-1.3-0.2-1.9-0.5c-0.5-0.3-0.9-0.5-1.1-0.8c-0.3-0.3-0.6-0.6-1.1-1.1
		l-0.5-1.1c0.2,0,0.2,0,0.3,0c0,0,0.3,0,0.8,0s1.4,0.2,3,0c1.4,0,3.6-0.5,6.3-1.4c2.7-0.9,4.9-1.7,6.5-2.4c1.6-0.6,2.8-1.1,4-1.3
		c0.9-0.2,2.4-0.6,4.1-1.3L1088.7,214.8z"/>
</g>
</svg>
