<?xml version="1.0" encoding="utf-8"?>
<!-- Generator: Adobe Illustrator 26.0.0, SVG Export Plug-In . SVG Version: 6.00 Build 0)  -->
<svg version="1.1" id="图层_1" xmlns="http://www.w3.org/2000/svg" xmlns:xlink="http://www.w3.org/1999/xlink" x="0px" y="0px"
	 viewBox="0 0 200 200" style="enable-background:new 0 0 200 200;" xml:space="preserve">
<path d="M145.2,99c-11.6,10.3-27,16.5-44,16.5c-17.3,0-32.9-6.5-44.6-17c-27.1,7.1-43.9,31.4-43.9,60.3v14.8
	c0,34.6,174.4,34.6,174.4,0v-14.8C187,130.7,171.1,106.8,145.2,99z M101.1,105.1c30.1,0,54.5-23.5,54.5-52.5S131.3,0,101.1,0
	c-30,0-54.5,23.5-54.5,52.6C46.7,81.6,71.1,105.1,101.1,105.1L101.1,105.1z"/>
</svg>
