<?xml version="1.0" encoding="utf-8"?>
<!-- Generator: Adobe Illustrator 26.0.0, SVG Export Plug-In . SVG Version: 6.00 Build 0)  -->
<svg version="1.1" id="图层_1" xmlns="http://www.w3.org/2000/svg" xmlns:xlink="http://www.w3.org/1999/xlink" x="0px" y="0px"
	 viewBox="0 0 106.9 200" style="enable-background:new 0 0 106.9 200;" xml:space="preserve">
<path d="M104.3,89H74.5L90.2,2.6c0-3.1-3.1-3.1-4.7-1.6L0.7,106.3c-1.6,1.6,0,4.7,1.6,4.7h29.8l-15.7,86.4c0,3.1,3.1,3.1,4.7,1.6
	l84.8-105.3C107.5,92.1,107.5,89,104.3,89z"/>
<path d="M182.1,195.8h-15.7l-7.8-28.7h-44.4l-10.4,28.7H90.7L127.3,94l18.3,0L182.1,195.8z M153.4,156.7l-18.3-49.6l-18.3,49.6
	H153.4z"/>
</svg>
