<?xml version="1.0" encoding="utf-8"?>
<!-- Generator: Adobe Illustrator 26.0.0, SVG Export Plug-In . SVG Version: 6.00 Build 0)  -->
<svg version="1.1" id="图层_1" xmlns="http://www.w3.org/2000/svg" xmlns:xlink="http://www.w3.org/1999/xlink" x="0px" y="0px"
	 viewBox="0 0 200 200" style="enable-background:new 0 0 200 200;" xml:space="preserve">
<path d="M150.4,68.2H51c-3,0-5.6,2.3-5.6,5.4v65.9c0,3.1,2.5,5.4,5.6,5.4h99.3c3,0,5.3-2.3,5.3-5.4V73.5
	C155.7,70.5,153.4,68.2,150.4,68.2z M57.8,92.5l28-5.4l2.1,10.5L60.2,103C60.2,103,57.8,92.5,57.8,92.5z M101,124.5
	c-8.6,9.4-17.6-3-17.6-3l4.6-3c0,0,6.1,11.1,13-3.6c6.6,14.2,13.8,3.7,13.8,3.8l4.2,2.7C118.9,121.5,111.1,133.9,101,124.5
	L101,124.5z M142.5,103l-27.8-5.4l2.2-10.5l27.9,5.4L142.5,103z"/>
<path d="M100,0C44.8,0,0,44.8,0,100c0,55.2,44.8,100,100,100s100-44.8,100-100C200,44.8,155.2,0,100,0z M152.7,158.1
	c-7-0.2-9.3,0-9.3,0s-0.5,8-7.4,8.2c-6.9,0.1-7.9-5.6-8.2-7.7c-4.2,0-54.6,0.2-54.6,0.2s-0.9,7.4-7.7,7.4c-6.9,0-7.3-6.2-7.7-7.4
	c-4.5,0-10.5-0.1-10.5-0.1s-15.2-3.2-17.1-22.9c0.2-19.7,0-58.7,0-58.7s-1.4-18.2,16.7-23.4c5.6-0.2,17.7-0.3,31.6-0.3L65.5,40.8
	c0,0-2-2.5,1.4-5.3c3.5-2.8,3.6-1.7,4.8-0.8c1.2,0.8,19.2,18.6,19.2,18.6h-2.4c6.9,0,14.1,0.1,20.9,0.1c2.6-2.6,17.7-17.4,18.8-18.2
	c1.2-0.7,1.4-2,4.8,0.8c3.4,2.8,1.4,5.3,1.4,5.3l-12.6,12.1c17.3,0.1,30.6,0.2,30.6,0.2s17.1,3.8,17.5,23.3
	c-0.2,19.6,0.1,58.9,0.1,58.9S169,155.1,152.7,158.1z"/>
</svg>
