<?xml version="1.0" encoding="utf-8"?>
<!-- Generator: Adobe Illustrator 26.0.0, SVG Export Plug-In . SVG Version: 6.00 Build 0)  -->
<svg version="1.1" id="图层_1" xmlns="http://www.w3.org/2000/svg" xmlns:xlink="http://www.w3.org/1999/xlink" x="0px" y="0px"
	 viewBox="0 0 200 200" style="enable-background:new 0 0 200 200;" xml:space="preserve">
<path d="M6.2,9.4h187.5v13.9H6.2V9.4z"/>
<path d="M6.2,176.7h187.5v13.9H6.2V176.7z"/>
<path d="M25,30.3h12.5v13.9H25V30.3z"/>
<path d="M43.8,30.3h12.5v13.9H43.8V30.3z"/>
<path d="M62.5,30.3H75v13.9H62.5V30.3z"/>
<path d="M75,155.8H25V86.1h50V155.8z M37.5,141.8h25V100h-25V141.8z"/>
<path d="M87.5,86.1h43.8V100H87.5V86.1z"/>
<path d="M200,65.1H0V9.4h200V65.1z M12.5,51.2h175V23.3h-175V51.2z"/>
<path d="M200,190.6H0V86.1h12.5v90.6h175V79.2H200V190.6z"/>
<path d="M87.5,113.9H175v13.9H87.5V113.9z"/>
<path d="M87.5,141.8H175v13.9H87.5V141.8z"/>
</svg>
