<?xml version="1.0" encoding="utf-8"?>
<!-- Generator: Adobe Illustrator 26.0.0, SVG Export Plug-In . SVG Version: 6.00 Build 0)  -->
<svg version="1.1" id="图层_1" xmlns="http://www.w3.org/2000/svg" xmlns:xlink="http://www.w3.org/1999/xlink" x="0px" y="0px"
	 viewBox="0 0 200 200" style="enable-background:new 0 0 200 200;" xml:space="preserve">
<path d="M170.7,29.3C131.7-9.8,68.3-9.8,29.3,29.3c-39.1,39.1-39.1,102.4,0,141.4c39.1,39.1,102.4,39.1,141.4,0
	C209.8,131.7,209.8,68.3,170.7,29.3z M74,145c-3.8,3.8-10,3.8-13.9,0c-3.8-3.8-3.8-10,0-13.9c3.8-3.8,10-3.8,13.9,0
	C77.9,135,77.9,141.2,74,145z M116.8,145.3c-0.2,1.6-1,3.2-2.3,4.5c-3.2,3.2-8.3,3.2-11.4,0c-1.9-1.9-2.6-4.5-2.3-6.9l0,0
	c0,0,0,0.1,0,0.1l0-0.1l0,0c0.1-0.6,0.4-4.3-0.6-9.4c-1.5-7.1-4.9-13.3-10.1-18.6c-5.3-5.3-11.5-8.6-18.5-10.1
	c-4.3-0.9-7.6-0.7-8.8-0.6c-2.6,0.5-5.4-0.2-7.4-2.2c-3.2-3.2-3.2-8.3,0-11.4c1.2-1.2,2.8-2,4.4-2.3l0,0c0.9-0.2,23.2-3.4,41.7,15.2
	C120.1,122,117,144.4,116.8,145.3z M153.3,146.9c-0.7,4.4-4.8,7.4-9.2,6.7c-1.7-0.3-3.3-1.1-4.4-2.3c-1.8-1.8-2.8-4.4-2.4-7
	c0-0.1,1.1-7.8-1.1-18.5c-2.8-14-9.4-26.4-19.8-36.9c-10.4-10.3-22.8-17-36.9-19.8C68.8,67,61.1,68.1,61,68.1l0,0c0,0,0,0,0,0
	c-2.7,0.4-5.3-0.7-7-2.4c-1.2-1.2-2-2.7-2.3-4.4C51,56.8,54,52.7,58.4,52c0.4-0.1,10-1.5,23.2,0.9c7.7,1.4,15.1,3.9,22.1,7.3
	c8.7,4.3,16.8,10,23.9,17.1c0.1,0.1,0.1,0.1,0.2,0.2c0.1,0.1,0.1,0.1,0.2,0.2c7.1,7.1,12.9,15.2,17.1,23.9c3.4,7,5.9,14.4,7.3,22.1
	C154.9,136.9,153.4,146.5,153.3,146.9z"/>
</svg>
