<?xml version="1.0" encoding="utf-8"?>
<!-- Generator: Adobe Illustrator 26.0.0, SVG Export Plug-In . SVG Version: 6.00 Build 0)  -->
<svg version="1.1" id="图层_1" xmlns="http://www.w3.org/2000/svg" xmlns:xlink="http://www.w3.org/1999/xlink" x="0px" y="0px"
	 viewBox="0 0 200 200" style="enable-background:new 0 0 200 200;" xml:space="preserve">
<path d="M11.1,88.9h66.7c6.1,0,11.1-5,11.1-11.1V11.1C88.9,5,83.9,0,77.8,0H11.1C5,0,0,5,0,11.1l0,0v66.7C0,83.9,5,88.9,11.1,88.9z
	 M122.2,88.9h66.7c6.1,0,11.1-5,11.1-11.1l0,0V11.1C200,5,195,0,188.9,0l0,0h-66.7c-6.1,0-11.1,5-11.1,11.1v0v66.7
	C111.1,83.9,116.1,88.9,122.2,88.9L122.2,88.9z M11.1,200h66.7c6.1,0,11.1-5,11.1-11.1l0,0v-66.7c0-6.1-5-11.1-11.1-11.1l0,0H11.1
	c-6.1,0-11.1,5-11.1,11.1l0,0v66.7C0,195,5,200,11.1,200L11.1,200z M155.6,200c24.5,0,44.4-19.9,44.4-44.4s-19.9-44.4-44.4-44.4
	s-44.4,19.9-44.4,44.4S131,200,155.6,200z"/>
</svg>
