<?xml version="1.0" encoding="utf-8"?>
<!-- Generator: Adobe Illustrator 26.0.0, SVG Export Plug-In . SVG Version: 6.00 Build 0)  -->
<svg version="1.1" id="图层_1" xmlns="http://www.w3.org/2000/svg" xmlns:xlink="http://www.w3.org/1999/xlink" x="0px" y="0px"
	 viewBox="0 0 200 200" style="enable-background:new 0 0 200 200;" xml:space="preserve">
<path d="M0,200l7.2-1.2c2.2-0.4,4.5-0.7,6.7-1c3.4-0.5,6.9-1,10.3-1.5c2.6-0.4,5.2-0.7,7.8-1.1l0.6-0.1c2.7-0.4,5.4-0.8,8.1-1
	l13.1-1.5V0h-0.5C46.6,0,39.8,0.1,33,0.3c-7.5,0.2-15.1,0.5-22.6,0.9C7.2,1.3,4,1.5,0.7,1.8H0.2v198.2L0,200z M66.6,0.1v191.2
	c9.3-0.8,18.6-1.5,27.9-2.1c22.9-1.3,46-1.8,69-1.3c12.2,0.3,24.4,0.8,36.5,1.6V12.5c-10.9-1.9-21.8-3.6-32.8-5.1
	c-21.3-2.8-42.8-4.9-64.4-6.1C90.8,0.7,78.7,0.3,66.6,0.1L66.6,0.1L66.6,0.1z M183.1,123.4l-0.5,0l-6.1-0.5
	c-15.1-1.2-30.3-2-45.5-2.4c-15.2-0.3-30.5-0.3-45.7,0.1h-0.5c-0.5,0-1,0-1.5-0.1c-1.1-0.2-2.1-0.6-2.9-1.2c-1.4-1.1-2-2.6-1.7-4.1
	c0.1-0.5,0.3-0.9,0.6-1.4c0.3-0.4,0.7-0.9,1.1-1.1c0.5-0.4,1-0.6,1.5-0.9c0.6-0.2,1.3-0.4,1.9-0.5h1c2.1,0,4.2-0.1,6.2-0.1
	c15-0.3,30.1-0.2,45.1,0.3c15.5,0.5,31,1.4,46.4,2.8l1.6,0.1c0.5,0.1,1,0.1,1.5,0.3c1.1,0.3,2,0.8,2.8,1.5c0.5,0.4,0.8,0.9,1.1,1.4
	c0.3,0.5,0.5,1,0.5,1.5c0.2,1.4-0.5,2.8-1.8,3.8c-0.5,0.4-1,0.6-1.5,0.9c-0.5,0.3-1.1,0.4-1.8,0.5c-0.3,0.1-0.5,0.1-1,0.1h-0.5
	L183.1,123.4L183.1,123.4z M183.4,100.8c-0.5,0-0.5,0-1,0l-6-0.6c-15.1-1.5-30.2-2.5-45.4-3c-15.2-0.6-30.4-0.8-45.6-0.5l-0.5-0.1
	c-0.5-0.1-1-0.1-1.5-0.2c-1.1-0.3-2-0.7-2.7-1.4c-0.3-0.4-0.8-0.9-1-1.2c-0.8-1.4-0.8-3,0.2-4.4c0.3-0.5,0.7-0.9,1.1-1.2
	c0.5-0.4,1-0.8,1.6-0.9c0.7-0.2,1.3-0.5,1.9-0.5l1-0.1l6.3-0.1c15-0.1,30,0.1,44.9,0.8c15.6,0.6,31,1.8,46.4,3.2l1.6,0.1l1,0.1
	c1.1,0.2,2.2,0.7,2.9,1.4c1.3,1,1.9,2.4,1.8,3.7c0,0.5-0.2,1-0.5,1.4c-0.3,0.5-0.7,0.9-1,1.2c-0.3,0.4-0.8,0.6-1.5,1
	c-0.5,0.2-1.1,0.4-1.8,0.5l-1,0.1h-0.5L183.4,100.8L183.4,100.8z M183.4,78.3c-0.5,0-0.5,0-1-0.1l-6-0.7
	c-15.1-1.6-30.2-2.8-45.4-3.6c-15.2-0.8-30.4-1.1-45.6-1.1h-0.5l-1-0.1c-0.6-0.1-1.2-0.3-1.8-0.6c-1.7-0.8-2.8-2.1-3.1-3.6
	c0-0.5,0-1,0.2-1.5c0.1-0.5,0.3-1,0.6-1.4c0.4-0.4,0.8-0.9,1.3-1.2c1.2-0.9,2.9-1.4,4.5-1.4h6.2c15.6,0.1,31.2,0.5,46.6,1.4
	c15.1,0.9,30,2.2,44.9,3.8l1.6,0.2c0.5,0.1,0.7,0.1,1,0.2c0.6,0.2,1.3,0.4,1.8,0.7c0.6,0.2,1.1,0.6,1.5,1c0.3,0.4,0.7,0.8,1,1.3
	c1.2,2.5-0.4,5.4-3.7,6.3c-0.2,0.1-0.4,0.1-0.6,0.2c-0.3,0.1-0.5,0.1-1,0.1l-0.5,0L183.4,78.3L183.4,78.3z M183.4,55.7
	c-0.5,0-0.5,0-1-0.1l-6-0.7c-15.1-1.9-30.2-3.3-45.4-4.1c-15.2-1-30.4-1.5-45.6-1.7h-0.5l-1.1-0.1c-1.3-0.3-2.4-0.8-3.3-1.6
	c-0.4-0.4-0.7-0.9-1-1.2c-0.2-0.5-0.4-1-0.5-1.5c-0.2-1.5,0.6-3,2-4.1c0.8-0.6,1.9-1.1,3-1.2c0.5-0.1,1-0.1,1.5-0.1
	c2,0,4.1,0,6.2,0.1c15.6,0.3,31.1,0.9,46.6,2c15,1,30,2.5,44.9,4.4l1.5,0.1c0.4,0,0.6,0,1,0.1c0.7,0.1,1.2,0.4,1.8,0.6
	c0.5,0.2,1,0.6,1.4,1c1,1.1,1.4,2.5,1.1,3.9c-0.1,0.5-0.4,0.9-0.7,1.4c-0.3,0.4-0.8,0.8-1.3,1.1c-0.8,0.6-1.8,1-2.9,1.2h-1.5
	L183.4,55.7L183.4,55.7z M13.9,51.4c-1,0-2-0.2-2.9-0.5c-2.1-0.8-3.4-2.4-3.6-4.2c0-0.5,0.2-0.9,0.3-1.4c0.2-0.6,0.5-1.1,1-1.6
	c0.5-0.5,1.1-1,1.8-1.3c0.8-0.4,1.7-0.6,2.6-0.8l5.2-0.4c7-0.5,14.1-0.9,21.1-1.2H40c1,0,2,0.2,2.9,0.6c2.1,0.8,3.4,2.5,3.4,4.3
	c0,0.5-0.2,0.9-0.3,1.3c-0.2,0.6-0.5,1.1-1,1.6c-0.5,0.6-1.1,1-1.8,1.4c-0.8,0.4-1.7,0.6-2.6,0.7c-1.1,0.1-2.3,0.1-3.4,0.3
	c-1.5,0.1-3.1,0.1-4.7,0.3l-12.6,0.7l-3.1,0.3c-0.7,0.1-1.4,0.1-2.1,0.1C14.7,51.6,13.9,51.4,13.9,51.4z M183.3,33.1l-1-0.1l-6-0.8
	c-15.1-2-30.3-3.5-45.6-4.7c-15.2-1.1-30.4-1.9-45.6-2.3h-0.5l-1-0.2c-0.6-0.1-1.2-0.3-1.8-0.6c-0.5-0.3-1-0.6-1.5-1
	c-1.3-1.2-1.8-2.8-1.3-4.2c0.2-0.5,0.5-1,0.8-1.5c0.3-0.5,0.8-0.9,1.3-1.2c0.9-0.6,1.9-1,3.1-1.3c0.5-0.1,1-0.1,1.5-0.1l6.3,0.1
	c15.1,0.5,30,1.3,45,2.5c15.6,1.2,31,3,46.4,5l1.6,0.1c0.5,0,0.7,0,1,0.1c0.6,0.1,1.2,0.3,1.8,0.6c1.5,0.8,2.4,2.1,2.6,3.5
	c0.2,0.5,0,1-0.2,1.5c0,0.5-0.3,1-0.6,1.4c-0.3,0.4-0.7,0.8-1.1,1.1c-0.8,0.6-1.9,1-3.1,1.1l-0.9,0.1h-0.5L183.3,33.1L183.3,33.1z
	 M13.7,26.7c-3.5,0-6.4-2.2-6.4-4.9c0-1.6,1-3.2,2.8-4.1c0.8-0.4,1.8-0.7,2.8-0.8c1.7-0.1,3.4-0.1,5.1-0.2c7-0.4,14.1-0.6,21.1-0.9
	h0.5c1,0.1,2,0.2,2.8,0.6c1.9,0.9,3.2,2.6,3.2,4.4c0,0.5-0.1,0.9-0.3,1.4c-0.3,0.6-0.7,1.1-1.1,1.6c-0.5,0.5-1.2,1-2,1.2
	c-0.8,0.4-1.8,0.6-2.8,0.6c-1.1,0.1-2.3,0.1-3.6,0.1L31,26c-4.4,0.2-8.6,0.4-12.8,0.6l-3.2,0.1c-0.8,0.1-1.5,0.1-2.1,0.1
	C12.8,26.9,13.7,26.7,13.7,26.7z"/>
</svg>
