<?xml version="1.0" encoding="utf-8"?>
<!-- Generator: Adobe Illustrator 26.0.0, SVG Export Plug-In . SVG Version: 6.00 Build 0)  -->
<svg version="1.1" id="图层_1" xmlns="http://www.w3.org/2000/svg" xmlns:xlink="http://www.w3.org/1999/xlink" x="0px" y="0px"
	 viewBox="0 0 200 200" style="enable-background:new 0 0 200 200;" xml:space="preserve">
<path d="M100,0C44.8,0,0,44.8,0,100c0,55.2,44.8,100,100,100c55.2,0,100-44.8,100-100C200,44.8,155.2,0,100,0z M165.7,87.2
	c-12.9,0.1-25-3.8-35.6-11V127c0,22.5-15.4,41.9-37.2,47c-29.8,6.8-55-14.7-58.1-40.5C31.5,107.7,47.8,85.2,73,80.1
	c4.9-1,12.1-1,16.1-0.1v27.2c-1.1-0.3-2.2-0.6-3.4-0.7c-9.8-1.7-19.3,3.2-23.2,12.1c-3.9,9-1.3,19.4,6.7,25.4
	c6.6,5.2,14,5.9,21.5,2.5c7.5-3.3,11.5-9.4,12.4-17.6c0.1-1.2,0.1-2.5,0.1-3.8V27.5c0-2.7,0.1-2.7,2.8-2.7h21.5
	c1.6,0,2.2,0.3,2.3,2.2c1.2,16.8,13.9,31.1,30.2,33.2c1.7,0.3,3.6,0.4,5.6,0.6L165.7,87.2L165.7,87.2L165.7,87.2z"/>
</svg>
