<?xml version="1.0" encoding="utf-8"?>
<!-- Generator: Adobe Illustrator 26.0.0, SVG Export Plug-In . SVG Version: 6.00 Build 0)  -->
<svg version="1.1" id="图层_1" xmlns="http://www.w3.org/2000/svg" xmlns:xlink="http://www.w3.org/1999/xlink" x="0px" y="0px"
	 viewBox="0 0 200 200" style="enable-background:new 0 0 200 200;" xml:space="preserve">
<path d="M199.2,96.3c0.8,2.8,0.8,4.7,0,7.5c0,0-0.8,2.8-1.7,3.7c-0.8,2.8-2.5,5.6-4.2,9.3c-4.2,7.5-10,16.8-18.3,27
	c-15.8,19.6-40.8,40.1-75,40.1s-59.2-20.5-75-40.1c-8.3-10.3-14.2-19.6-18.3-27l-4.2-9.3c-0.8-0.9-1.7-3.7-1.7-3.7
	c-0.8-1.9-0.8-4.7,0-7.5c0,0,0.8-2.8,1.7-3.7C3.3,89.7,5,87,6.7,83.2c4.2-7.5,10-16.8,18.3-27c15.8-19.6,40.8-40.1,75-40.1
	s59.2,20.5,75,40.1c8.3,10.3,14.2,19.6,18.3,27l4.2,9.3C198.3,93.5,199.2,96.3,199.2,96.3L199.2,96.3z M100,66.4
	c15,0,28.3,14.9,28.3,33.6S115,133.6,100,133.6S71.7,118.6,71.7,100S85,66.4,100,66.4z M55,100c0,28,20,52.2,45,52.2
	s45-24.2,45-52.2s-20-52.2-45-52.2S55,72,55,100z"/>
</svg>
