<?xml version="1.0" standalone="no"?><!DOCTYPE svg PUBLIC "-//W3C//DTD SVG 1.1//EN" "http://www.w3.org/Graphics/SVG/1.1/DTD/svg11.dtd"><svg t="1651492229011" class="icon" viewBox="0 0 1024 1024" version="1.1" xmlns="http://www.w3.org/2000/svg" p-id="1132" xmlns:xlink="http://www.w3.org/1999/xlink" width="200" height="200"><defs><style type="text/css"></style></defs><path d="M576 256c0 0-1.984 0-128 0S320 384 320 384l0 64 128 0c0 0-1.984-64 64-64s64 64 64 64C502.016 448 448 576 448 576l128 0c0-56 64-64 64-64s64-8 64-128S576 256 576 256zM512 0C229.248 0 0 229.248 0 512c0 282.752 229.248 512 512 512 282.752 0 512-229.248 512-512C1024 229.248 794.752 0 512 0zM512 896c-212.096 0-384-171.904-384-384 0-212.096 171.904-384 384-384 212.096 0 384 171.904 384 384C896 724.096 724.096 896 512 896zM448 768l128 0 0-128L448 640 448 768z" p-id="1133"></path></svg>