<?xml version="1.0" encoding="utf-8"?>
<!-- Generator: Adobe Illustrator 26.0.0, SVG Export Plug-In . SVG Version: 6.00 Build 0)  -->
<svg version="1.1" id="图层_1" xmlns="http://www.w3.org/2000/svg" xmlns:xlink="http://www.w3.org/1999/xlink" x="0px" y="0px"
	 viewBox="0 0 200 200" style="enable-background:new 0 0 200 200;" xml:space="preserve">
<path d="M131.9,5.7c-22.7-8.2-46.3-7.3-68.1,0.9l68.1,69L131.9,5.7L131.9,5.7z M54.7,11.1C34.7,22,18.4,39.3,9.3,61.1h96.2
	C104.6,61.1,54.7,11.1,54.7,11.1z M140.1,9.3v96.2L190,57.4C179.1,35.7,161.8,18.4,140.1,9.3z M5.7,69.2
	c-8.2,21.8-7.3,46.3,0.9,68.1l68.1-68.1C74.7,69.2,5.7,69.2,5.7,69.2z M60.2,191.8V95.6l-49.9,49.9
	C21.1,165.5,39.3,182.7,60.2,191.8z M143.7,189.1c20.9-10,38.1-27.2,47.2-48.1H95.6L143.7,189.1L143.7,189.1z M193.6,63.8l-68.1,69
	h69.9C201.8,110.1,201.8,85.6,193.6,63.8z M68.3,194.5c22.7,7.3,46.3,7.3,68.1-0.9l-68.1-68.1C68.3,125.5,68.3,194.5,68.3,194.5z"/>
</svg>
