<?xml version="1.0" encoding="utf-8"?>
<!-- Generator: Adobe Illustrator 26.0.0, SVG Export Plug-In . SVG Version: 6.00 Build 0)  -->
<svg version="1.1" id="图层_1" xmlns="http://www.w3.org/2000/svg" xmlns:xlink="http://www.w3.org/1999/xlink" x="0px" y="0px"
	 viewBox="0 0 200 200" style="enable-background:new 0 0 200 200;" xml:space="preserve">
<path d="M191.4,116c-0.6,0.9-1.6,1.6-2.6,1.7c-0.1,0-0.2,0-0.4,0c-1,0-1.9-0.3-2.6-1.1L100,26.7l-85.8,89.9c-0.9,0.8-1.9,1.2-3,1.1
	c-1-0.2-2-0.8-2.6-1.7l-7.7-11.5c-1.4-2-1.1-5.3,0.5-7L90.6,4.1c5.2-5.5,13.6-5.5,18.9,0l30.3,31.8V5.5c0-2.8,1.7-5,4-5h23.8
	c2.2,0,4,2.2,4,5v63.6l27.2,28.4c1.6,1.7,1.9,5,0.5,7L191.4,116z M171.5,190c0,5.5-3.6,10-7.9,10h-47.6v-59.8H84.1V200H36.5
	c-4.3,0-7.9-4.5-7.9-10l0-74.8c0-0.3,0.1-0.6,0.1-0.9L100,40.4l71.3,73.9c0.1,0.3,0.1,0.6,0.1,0.9L171.5,190z"/>
</svg>
