<?xml version="1.0" encoding="utf-8"?>
<!-- Generator: Adobe Illustrator 26.0.0, SVG Export Plug-In . SVG Version: 6.00 Build 0)  -->
<svg version="1.1" id="图层_1" xmlns="http://www.w3.org/2000/svg" xmlns:xlink="http://www.w3.org/1999/xlink" x="0px" y="0px"
	 viewBox="0 0 200 200" style="enable-background:new 0 0 200 200;" xml:space="preserve">
<style type="text/css">
	.st0{fill:#EA6F5A;}
	.st1{fill:#FFFFFF;}
</style>
<path class="st0" d="M130.3,0H69.7C49.6,0,39.6,0,28.8,3.4C17,7.7,7.7,17,3.4,28.8c-3.4,10.8-3.4,20.8-3.4,40.9v60.6
	c0,20.1,0,30.2,3.4,40.9c4.3,11.8,13.6,21.1,25.4,25.4c10.8,3.4,20.8,3.4,40.9,3.4h60.6c20.1,0,30.1,0,40.9-3.4
	c11.8-4.3,21.1-13.6,25.4-25.4c3.4-10.8,3.4-20.8,3.4-40.9V69.8c0-20.1,0-30.1-3.4-40.9C192.3,17,183,7.7,171.2,3.4
	C160.4,0,150.4,0,130.3,0L130.3,0z"/>
<path class="st1" d="M41.7,88.4h15v78.3h-15V88.4z M50.1,64.7c3.8,7,6.2,13.9,7.3,20.9h16.3c-2.2-8.9-5.1-15.8-8.4-20.9L50.1,64.7
	L50.1,64.7z"/>
<path class="st1" d="M82.3,50.8h18v-9.9H67.7c0.4-0.8,0.9-2.1,1.7-4c0.4-1.6,0.8-2.7,1.1-3.5H53.6C51,43.8,45,51.5,35.6,56.6v9.9
	C48,63.4,56.8,58.1,62,50.8h5.6c1.9,5,3,9.9,3.4,14.5h15.8C85.7,59.9,84.2,55,82.3,50.8z M75,82.1h67.8v63.8
	c0.4,5.8-2.2,8.5-7.9,8.1h-9.3v11.6h13.5c13.1,0.4,19.5-5.6,19.1-18V70.5H75L75,82.1L75,82.1z"/>
<path class="st1" d="M127.9,92.5H72.7v58.6H111c12,0.4,17.6-5.4,16.9-17.4V92.5z M87.9,103h24.7v13.4H87.9V103z M105.4,140.7H87.9
	v-14.5h24.7v7C113,138.5,110.6,141.1,105.4,140.7L105.4,140.7z M128.4,40.3c0-0.4,0.2-1,0.6-1.7l1.7-5.2h-16.9
	c-2.6,10.8-8.4,19-17.4,24.4V67c11.6-3.1,20.4-8.5,26.4-16.2h7.9c1.9,5,3,9.9,3.4,14.5h15.2c-0.4-3.8-1.9-8.7-4.5-14.5h19.7V40.4
	L128.4,40.3L128.4,40.3z"/>
</svg>
