<?xml version="1.0" encoding="utf-8"?>
<!-- Generator: Adobe Illustrator 26.0.0, SVG Export Plug-In . SVG Version: 6.00 Build 0)  -->
<svg version="1.1" id="图层_1" xmlns="http://www.w3.org/2000/svg" xmlns:xlink="http://www.w3.org/1999/xlink" x="0px" y="0px"
	 viewBox="0 0 200 200" style="enable-background:new 0 0 200 200;" xml:space="preserve">
<path d="M132.5,57.5c3.8,11.2,8.8,20,17.5,28.7c7.5-7.5,12.5-17.5,16.2-28.8C166.2,57.5,132.5,57.5,132.5,57.5z M50,120h32.5
	L66.2,76.3L50,120z"/>
<path d="M175,0H25C11.3,0,0,11.2,0,25v150c0,13.8,11.2,25,25,25h150c13.8,0,25-11.2,25-25V25C200,11.2,190,0,175,0L175,0z
	 M113.8,161.2c-2.5,2.5-5,2.5-7.5,2.5c-1.2,0-3.8,0-5-1.3c-1.2-1.2-2.5,0-2.5-1.2s-1.2-2.5-2.5-5c-1.2-2.5-1.2-3.8-2.5-6.2l-5-13.8
	H45L40,150c-2.5,5-3.8,8.8-5,11.2s-3.8,2.5-7.5,2.5c-2.5,0-5-1.3-7.5-2.5c-2.5-2.5-3.7-3.8-3.7-6.2c0-1.3,0-2.5,1.2-5
	c1.2-2.5,1.2-3.8,2.5-6.2l27.5-70c1.2-2.5,1.2-5,2.5-7.5c1.2-2.5,2.5-5,3.8-6.2c1.3-1.2,2.5-3.8,5-5c2.5-1.2,5-1.2,7.5-1.2
	c2.5,0,5,0,7.5,1.2c2.5,1.2,3.8,2.5,5,5c1.2,1.2,2.5,3.8,3.8,6.2c1.2,2.5,2.5,5,3.8,8.8l27.5,68.8c2.5,5,3.8,8.8,3.8,11.2
	C116.3,156.2,115,158.8,113.8,161.2L113.8,161.2z M182.5,112.5c-13.8-5-23.8-11.2-32.5-18.8c-8.8,8.8-20,15-33.8,18.8l-3.8-6.2
	c13.8-3.8,25-8.8,33.7-17.5c-8.7-8.8-16.2-20-18.7-32.5H115v-5h33.7c-2.5-3.8-5-8.8-7.5-12.5l3.8-1.2c2.5,3.8,6.2,8.8,8.8,13.8H185
	v6.2h-12.5c-3.8,12.5-10,23.8-17.5,31.2c8.8,7.5,18.8,13.8,32.5,17.5L182.5,112.5z"/>
</svg>
