<?xml version="1.0" encoding="utf-8"?>
<!-- Generator: Adobe Illustrator 26.0.0, SVG Export Plug-In . SVG Version: 6.00 Build 0)  -->
<svg version="1.1" id="图层_1" xmlns="http://www.w3.org/2000/svg" xmlns:xlink="http://www.w3.org/1999/xlink" x="0px" y="0px"
	 viewBox="0 0 200 200" style="enable-background:new 0 0 200 200;" xml:space="preserve">
<path d="M100,0C44.8,0,0,44.8,0,100s44.8,100,100,100s100-44.8,100-100S155.2,0,100,0z M147,136.7c-2.6,0.3-10-11.8-10-11.8
	c0,7-3.6,16.1-11.4,22.7c3.8,1.2,12.3,4.3,10.2,7.7c-1.6,2.7-28,1.8-35.7,0.9c-7.6,0.8-34,1.9-35.7-0.9c-2-3.4,6.5-6.5,10.2-7.7
	c-7.8-6.6-11.4-15.7-11.4-22.7c0,0-7.5,12.1-10,11.8c-1.2-0.2-2.8-6.6,2.1-22.3c2.3-7.4,4.9-13.5,9-23.6c-0.7-26.1,10.1-48,35.8-48
	c25.4,0,36.5,21.5,35.8,48c4,10.1,6.7,16.2,9,23.6C149.8,130.1,148.2,136.6,147,136.7z"/>
</svg>
