<?xml version="1.0" encoding="utf-8"?>
<!-- Generator: Adobe Illustrator 26.0.0, SVG Export Plug-In . SVG Version: 6.00 Build 0)  -->
<svg version="1.1" id="图层_1" xmlns="http://www.w3.org/2000/svg" xmlns:xlink="http://www.w3.org/1999/xlink" x="0px" y="0px"
	 viewBox="0 0 200 200" style="enable-background:new 0 0 200 200;" xml:space="preserve">
<path d="M69,37.2c-3.6,1.5-6.9,3.3-10,5.4c-3.1,2.1-6,4.6-8.6,7.2l0,0l0,0c-2.8,2.7-5.1,5.7-7.2,8.8l0,0c-2.1,3.1-4,6.5-5.4,10
	c-1.1,2.6,0.1,5.5,2.7,6.5c2.5,1.1,5.4-0.1,6.5-2.6c1.2-2.8,2.7-5.7,4.5-8.3l0,0c1.8-2.6,3.7-5.1,5.9-7.2c2.2-2.3,4.7-4.3,7.3-6.1
	c2.7-1.8,5.4-3.3,8.2-4.5c2.6-1.1,3.8-3.9,2.7-6.5C74.5,37.3,71.6,36.1,69,37.2L69,37.2z M197.6,185.7L197.6,185.7l-36-36
	c5.9-7.1,10.6-14.8,14.1-23.4c4.5-10.8,6.9-22.5,6.9-34.9c0-12.1-2.4-23.7-6.7-34.3l-0.1-0.4c-4.5-11-11.1-20.8-19.3-29.2l-0.5-0.4
	c-8.3-8.4-18.3-15.1-29.4-19.7l0,0l0,0c-10.7-4.5-22.5-6.9-34.7-6.9c-25,0-47.7,10.2-64.1,26.6C19.4,35.4,12.6,45.5,8,56.7
	C3.6,67.4,1.2,79.1,1.2,91.4c0,12.2,2.4,23.8,6.7,34.4l0.2,0.5c4.6,11,11.3,21.1,19.7,29.5l0,0c8.4,8.4,18.4,15.2,29.4,19.8h0.1
	c10.6,4.5,22.3,6.9,34.6,6.9c12.4,0,24-2.4,34.7-6.9c8.5-3.4,16.4-8.3,23.3-14.1l36.1,36.2c3.2,3.2,8.5,3.2,11.7-0.1
	C200.8,194.2,200.8,188.9,197.6,185.7L197.6,185.7z M144.3,144L144.3,144L144.3,144l-0.1,0.2c-6.8,6.8-14.9,12.3-23.9,16
	c-8.7,3.7-18.3,5.7-28.4,5.7c-10.1,0-19.6-2-28.3-5.7l0,0c-9.1-3.7-17.2-9.3-24-16.1l-0.1-0.1h0.1c-6.9-6.8-12.4-15.1-16.2-24.1
	l-0.1-0.4c-3.5-8.5-5.4-18-5.4-28c0-10.1,2-19.7,5.6-28.4c3.8-9,9.3-17.3,16.2-24.1c13.4-13.4,31.9-21.8,52.3-21.8
	c10.1,0,19.7,2,28.4,5.6c9,3.7,17.2,9.3,24.1,16.1l0.5,0.4c6.6,6.8,11.9,14.8,15.6,23.8l0.2,0.4c3.4,8.5,5.4,18.1,5.4,28
	c0,10.1-2.1,19.7-5.7,28.4C156.7,128.9,151.1,137.2,144.3,144L144.3,144z M145.6,86.4L145.6,86.4c-2.7,0-5,2.3-5,5
	c0,6.4-1.2,12.8-3.7,18.7l-0.1,0.2c-2.4,5.6-5.8,11-10.5,15.5c-4.6,4.7-10,8.3-15.8,10.7c-5.9,2.5-12.2,3.7-18.7,3.7
	c-2.8,0-4.9,2.3-4.9,5s2.1,5,4.9,5c7.7,0,15.3-1.5,22.5-4.5c7-2.8,13.5-7.1,19-12.8c5.6-5.6,9.8-12,12.7-18.9V114
	c3.1-7.2,4.6-15,4.6-22.6C150.6,88.7,148.3,86.4,145.6,86.4L145.6,86.4z"/>
</svg>
