<?xml version="1.0" encoding="utf-8"?>
<!-- Generator: Adobe Illustrator 26.0.0, SVG Export Plug-In . SVG Version: 6.00 Build 0)  -->
<svg version="1.1" id="图层_1" xmlns="http://www.w3.org/2000/svg" xmlns:xlink="http://www.w3.org/1999/xlink" x="0px" y="0px"
	 viewBox="0 0 200 200" style="enable-background:new 0 0 200 200;" xml:space="preserve">
<style type="text/css">
	.st0{fill:#FC8848;}
</style>
<path class="st0" d="M100,0C44.8,0,0,44.8,0,100s44.8,100,100,100s100-44.8,100-100l0,0C200,44.8,155.2,0,100,0z M52,44
	c6.6,0,12,5.4,12,12c0,6.6-5.4,12-12,12s-12-5.4-12-12l0,0C40,49.4,45.4,44,52,44C52,44,52,44,52,44z M46.6,149.8l-20.3-14.6
	c0,0,28.5-23.4,26.9-31.1c-1.6-7.8-21.2-17.5-21.2-17.5l9.1-12.9c0,0,23.4,15.3,25,27.4C67.7,113.2,46.6,149.7,46.6,149.8
	L46.6,149.8z M167.3,127c0,0-1.9,15.3-15,20.7c-13.1,5.4-33.3,1.3-33.3,1.3l1.1-8.4c0,0,12.1,2.7,19.6,0.3c4.3-1.2,7.8-4.3,9.7-8.4
	V72.6c-1.2-4.4-4.1-8.2-8.1-10.5c-7-4.3-10.5-3.6-18-2.7c-6.6,1.4-13,3.6-19.1,6.4l-6.4,12.6h43.5v8.6h-26.7v10.8h27.7v7.5
	l-27.1,1.1v20.4l12.9-5.7l-1.1-8.9l10.5-2.2l7.8,20.4l-12.9,5.8l-1.6-7.3c0,0-24.4,10.3-34.1,10.9c-9.8,0.7-19.4-1.5-24-8.1
	s-3.6-19.9-3.6-19.9l17.4,0.4c-0.7,4.2,0,8.6,2.1,12.3c3.4,4.8,11.2,3.6,11.2,3.6v-22.6l-26.8-0.8v-7.3H100l-0.3-10.8l-8.4-1.7
	c0,0-7,10.9-11.6,10.6c-4.6-0.3-5.3-6.5-5.3-6.5l14.8-18.2l-8-0.8L69.1,84.8L60,76.7c4.6-4.3,8.6-9.2,11.8-14.6
	c3.1-5.4,5.5-11.1,7-17.2l14.8,5.9l-4.3,8.3c0,0,1.1,1.1,4.9,0.5c3.8-0.5,28.5-12.9,45.4-9.9c16.9,3,27.7,16.4,27.7,26.8L167.3,127z
	"/>
</svg>
