<?xml version="1.0" encoding="utf-8"?>
<!-- Generator: Adobe Illustrator 26.0.0, SVG Export Plug-In . SVG Version: 6.00 Build 0)  -->
<svg version="1.1" id="图层_1" xmlns="http://www.w3.org/2000/svg" xmlns:xlink="http://www.w3.org/1999/xlink" x="0px" y="0px"
	 viewBox="0 0 200 200" style="enable-background:new 0 0 200 200;" xml:space="preserve">
<style type="text/css">
	.st0{fill:#768696;}
</style>
<path class="st0" d="M99.8,0C26.7,0-0.3,63.8-0.3,99.5s26,100.2,98,100.2c0,0,17.9,0.3,17.9-15.8s-8-11-8-22.5
	c0-11.6,8-16.7,11.9-16.7s29.3,1.9,43.5-3.6c14.2-5.5,37-22.8,37-52.5C200,62.5,172.9,0,99.8,0z M38.8,99.8
	c-9.6,0-17.4-7.8-17.4-17.4s7.8-17.4,17.4-17.4s17.4,7.8,17.4,17.4C56.2,92.1,48.4,99.8,38.8,99.8z M71.6,56.8
	c-9.6,0-17.4-7.8-17.4-17.4S62,22,71.6,22C81.2,22,89,29.8,89,39.4S81.2,56.8,71.6,56.8z M127.4,56.8c-9.6,0-17.4-7.8-17.4-17.4
	S117.8,22,127.4,22c9.6,0,17.4,7.8,17.4,17.4S137,56.8,127.4,56.8z M160.5,99.8c-9.6,0-17.4-7.8-17.4-17.4s7.8-17.4,17.4-17.4
	s17.4,7.8,17.4,17.4C177.9,92.1,170.1,99.8,160.5,99.8z"/>
</svg>
